<?xml version="1.0" standalone="no"?>
<!DOCTYPE svg PUBLIC "-//W3C//DTD SVG 1.1//EN" "http://www.w3.org/Graphics/SVG/1.1/DTD/svg11.dtd" >
<svg>
<metadata>
Created by FontForge 20110222 at Wed Jun 13 10:21:55 2012
 By www-data
Copyright (c) 2010 by Russell McGorman /Our House Graphics. All rights reserved.
</metadata>
<defs>
<font id="Kush-Fat" horiz-adv-x="673" >
  <font-face 
    font-family="Kush"
    font-weight="900"
    font-stretch="normal"
    units-per-em="1000"
    panose-1="2 1 9 3 7 4 7 1 0 1"
    ascent="750"
    descent="-250"
    x-height="574"
    cap-height="793"
    bbox="-72 -264 1080 1054"
    underline-thickness="50"
    underline-position="-50"
    unicode-range="U+0020-2212"
  />
    <missing-glyph />
    <glyph glyph-name="space" unicode=" " horiz-adv-x="225" 
 />
    <glyph glyph-name="AE" unicode="&#xc6;" horiz-adv-x="896" 
d="M392 170q-9 9 -22 13t-27 4q-33 0 -59 -17q-23 -15 -30.5 -44t-12 -60t-12.5 -58.5t-33 -38.5q-14 -7 -40 -7q-27 0 -53 9.5t-47 26.5t-33.5 41t-12.5 54q0 39 20 79t47.5 79.5t56.5 79t47 78.5q19 42 30 91t24.5 95.5t35 87t60.5 65.5q57 36 128 57t146 21q66 0 124 -18
t100 -60q16 -16 23.5 -39.5t7.5 -49.5t-7.5 -49.5t-23.5 -39.5q-17 -17 -46 -17q-18 0 -38.5 5.5t-41 11.5t-41 11.5t-38.5 5.5q-29 0 -46 -17q-10 -10 -14.5 -24t-4.5 -29t4.5 -29t14.5 -23q12 -12 33 -12q13 0 28 3.5t30 8t30 8.5t28 4q21 0 33 -12q16 -16 23.5 -40
t7.5 -50t-7.5 -49.5t-23.5 -39.5q-12 -12 -33 -12q-13 0 -28 3.5t-30 8t-30 8.5t-28 4q-21 0 -33 -12q-10 -10 -14.5 -24.5t-4.5 -29.5q0 -16 4.5 -30t14.5 -23q18 -18 49 -18q19 0 40.5 5.5t43.5 12.5t43.5 12.5t40.5 5.5q31 0 49 -18q16 -16 23.5 -40t7.5 -50t-7.5 -49.5
t-23.5 -39.5q-42 -42 -101 -61t-125 -19t-126 19t-100 61q-12 12 -12 31q0 12 3.5 26t8 28t8.5 28t4 26q0 19 -12 31zM358 358q5 -7 15.5 -6t16.5 7q8 8 9 19t-1 23t-5 25t-3 24q0 6 -1 2t-2.5 -11.5t-3.5 -17t-4 -14.5q-2 -6 -7 -13t-9.5 -13.5t-6.5 -12.5t2 -12z" />
    <glyph glyph-name="Aacute" unicode="&#xc1;" horiz-adv-x="770" 
d="M353 327q10 -13 32 -13t32 13q6 7 4.5 16t-6.5 19t-11 20t-8 18q-2 6 -1.5 15t0.5 16.5t-2 13t-8 5.5t-8 -5.5t-2 -13v-16.5t-1 -15q-2 -8 -7.5 -18t-10.5 -20t-7 -19t4 -16zM497 162q-23 16 -51.5 23t-57.5 7t-57.5 -7.5t-51.5 -22.5q-17 -11 -24.5 -30t-11 -41.5
t-6.5 -45t-10.5 -41t-23.5 -30.5t-46 -12q-27 0 -53.5 9t-47 26t-33.5 41t-13 54q0 38 15 77t37 78t45.5 78t40.5 77q27 61 53.5 130.5t52.5 132.5q8 19 20.5 40t28.5 38.5t36.5 28.5t45.5 11q23 0 42.5 -10.5t36 -27t30 -38t22.5 -43.5q26 -61 46.5 -129t46.5 -128
q17 -38 42.5 -77.5t49.5 -79.5t41.5 -79.5t17.5 -78.5q0 -28 -12 -51.5t-32 -41t-46.5 -27.5t-54.5 -10q-30 0 -45.5 11.5t-23 30t-9.5 41t-5 44.5t-10.5 41.5t-24.5 31.5zM346 793q-11 0 -22 5.5t-20.5 14t-15.5 19t-6 21.5q0 13 13 21.5t23 18.5q12 13 21 31t19.5 34.5
t23 28.5t30.5 12q13 0 26.5 -7t24.5 -18t18 -24.5t7 -26.5q0 -18 -12 -31t-29 -24.5t-35.5 -21.5t-31.5 -22q-8 -8 -15.5 -19.5t-18.5 -11.5z" />
    <glyph glyph-name="Acircumflex" unicode="&#xc2;" horiz-adv-x="770" 
d="M353 327q10 -13 32 -13t32 13q6 7 4.5 16t-6.5 19t-11 20t-8 18q-2 6 -1.5 15t0.5 16.5t-2 13t-8 5.5t-8 -5.5t-2 -13v-16.5t-1 -15q-2 -8 -7.5 -18t-10.5 -20t-7 -19t4 -16zM497 162q-23 16 -51.5 23t-57.5 7t-57.5 -7.5t-51.5 -22.5q-17 -11 -24.5 -30t-11 -41.5
t-6.5 -45t-10.5 -41t-23.5 -30.5t-46 -12q-27 0 -53.5 9t-47 26t-33.5 41t-13 54q0 38 15 77t37 78t45.5 78t40.5 77q27 61 53.5 130.5t52.5 132.5q8 19 20.5 40t28.5 38.5t36.5 28.5t45.5 11q23 0 42.5 -10.5t36 -27t30 -38t22.5 -43.5q26 -61 46.5 -129t46.5 -128
q17 -38 42.5 -77.5t49.5 -79.5t41.5 -79.5t17.5 -78.5q0 -28 -12 -51.5t-32 -41t-46.5 -27.5t-54.5 -10q-30 0 -45.5 11.5t-23 30t-9.5 41t-5 44.5t-10.5 41.5t-24.5 31.5zM459 790q-15 0 -24 13t-17.5 29t-17.5 29t-24 13t-24 -13t-17 -29t-17 -29t-24 -13q-18 0 -34.5 17
t-16.5 35t16.5 41t38 44t44 35.5t34.5 14.5t34.5 -14.5t44.5 -35.5t38.5 -44t16.5 -41t-16.5 -35t-34.5 -17z" />
    <glyph glyph-name="Adieresis" unicode="&#xc4;" horiz-adv-x="770" 
d="M353 327q10 -13 32 -13t32 13q6 7 4.5 16t-6.5 19t-11 20t-8 18q-2 6 -1.5 15t0.5 16.5t-2 13t-8 5.5t-8 -5.5t-2 -13v-16.5t-1 -15q-2 -8 -7.5 -18t-10.5 -20t-7 -19t4 -16zM497 162q-23 16 -51.5 23t-57.5 7t-57.5 -7.5t-51.5 -22.5q-17 -11 -24.5 -30t-11 -41.5
t-6.5 -45t-10.5 -41t-23.5 -30.5t-46 -12q-27 0 -53.5 9t-47 26t-33.5 41t-13 54q0 38 15 77t37 78t45.5 78t40.5 77q27 61 53.5 130.5t52.5 132.5q8 19 20.5 40t28.5 38.5t36.5 28.5t45.5 11q23 0 42.5 -10.5t36 -27t30 -38t22.5 -43.5q26 -61 46.5 -129t46.5 -128
q17 -38 42.5 -77.5t49.5 -79.5t41.5 -79.5t17.5 -78.5q0 -28 -12 -51.5t-32 -41t-46.5 -27.5t-54.5 -10q-30 0 -45.5 11.5t-23 30t-9.5 41t-5 44.5t-10.5 41.5t-24.5 31.5zM525 822q-9 -11 -23 -16t-29 -5t-29 5t-23 16q-7 7 -7 21q0 6 0.5 12.5t0.5 12.5q0 17 -5 28t-5 22
t10 21q21 21 58 21t58 -21q10 -10 10 -21t-5 -22.5t-5 -28.5q0 -6 0.5 -12t0.5 -12q0 -14 -7 -21zM351 822q-9 -11 -23 -16t-29 -5t-29 5t-23 16q-7 7 -7 20q0 6 0.5 12.5t0.5 12.5q0 16 -5 28t-5 23t10 21q21 21 58 21t58 -21q10 -10 10 -21t-5 -22.5t-5 -28.5
q0 -6 0.5 -12t0.5 -12q0 -14 -7 -21z" />
    <glyph glyph-name="Agrave" unicode="&#xc0;" horiz-adv-x="770" 
d="M353 327q10 -13 32 -13t32 13q6 7 4.5 16t-6.5 19t-11 20t-8 18q-2 6 -1.5 15t0.5 16.5t-2 13t-8 5.5t-8 -5.5t-2 -13v-16.5t-1 -15q-2 -8 -7.5 -18t-10.5 -20t-7 -19t4 -16zM497 162q-23 16 -51.5 23t-57.5 7t-57.5 -7.5t-51.5 -22.5q-17 -11 -24.5 -30t-11 -41.5
t-6.5 -45t-10.5 -41t-23.5 -30.5t-46 -12q-27 0 -53.5 9t-47 26t-33.5 41t-13 54q0 38 15 77t37 78t45.5 78t40.5 77q27 61 53.5 130.5t52.5 132.5q8 19 20.5 40t28.5 38.5t36.5 28.5t45.5 11q23 0 42.5 -10.5t36 -27t30 -38t22.5 -43.5q26 -61 46.5 -129t46.5 -128
q17 -38 42.5 -77.5t49.5 -79.5t41.5 -79.5t17.5 -78.5q0 -28 -12 -51.5t-32 -41t-46.5 -27.5t-54.5 -10q-30 0 -45.5 11.5t-23 30t-9.5 41t-5 44.5t-10.5 41.5t-24.5 31.5zM488 845q-1 -22 -21.5 -40.5t-42.5 -19.5q-9 0 -15.5 5t-12 11.5t-11 14.5t-11.5 14
q-11 10 -26.5 18.5t-29.5 17.5t-24 20t-10 26q0 13 7 26.5t18 24.5t24.5 18t26.5 7q15 0 26 -10t20 -24.5t17.5 -30.5t18.5 -27q6 -6 13.5 -11.5t15 -11.5t12.5 -12.5t5 -15.5z" />
    <glyph glyph-name="Aring" unicode="&#xc5;" horiz-adv-x="770" 
d="M376 963q-16 0 -27.5 -13t-11.5 -30q0 -16 11.5 -27t31.5 -11q14 0 27 10t13 27q0 16 -12 30t-32 14zM377 788q-26 0 -50 10.5t-42.5 28.5t-29.5 42.5t-11 51.5q0 26 10 50t28.5 42.5t43.5 29.5t55 11q26 0 49.5 -10.5t41.5 -29t28.5 -42.5t10.5 -51q0 -26 -10.5 -50
t-29 -42.5t-43 -29.5t-51.5 -11zM353 327q10 -13 32 -13t32 13q6 7 4.5 16t-6.5 19t-11 20t-8 18q-2 6 -1.5 15t0.5 16.5t-2 13t-8 5.5t-8 -5.5t-2 -13v-16.5t-1 -15q-2 -8 -7.5 -18t-10.5 -20t-7 -19t4 -16zM497 162q-23 16 -51.5 23t-57.5 7t-57.5 -7.5t-51.5 -22.5
q-17 -11 -24.5 -30t-11 -41.5t-6.5 -45t-10.5 -41t-23.5 -30.5t-46 -12q-27 0 -53.5 9t-47 26t-33.5 41t-13 54q0 38 15 77t37 78t45.5 78t40.5 77q27 61 53.5 130.5t52.5 132.5q8 19 20.5 40t28.5 38.5t36.5 28.5t45.5 11q23 0 42.5 -10.5t36 -27t30 -38t22.5 -43.5
q26 -61 46.5 -129t46.5 -128q17 -38 42.5 -77.5t49.5 -79.5t41.5 -79.5t17.5 -78.5q0 -28 -12 -51.5t-32 -41t-46.5 -27.5t-54.5 -10q-30 0 -45.5 11.5t-23 30t-9.5 41t-5 44.5t-10.5 41.5t-24.5 31.5z" />
    <glyph glyph-name="Atilde" unicode="&#xc3;" horiz-adv-x="770" 
d="M353 327q10 -13 32 -13t32 13q6 7 4.5 16t-6.5 19t-11 20t-8 18q-2 6 -1.5 15t0.5 16.5t-2 13t-8 5.5t-8 -5.5t-2 -13v-16.5t-1 -15q-2 -8 -7.5 -18t-10.5 -20t-7 -19t4 -16zM497 162q-23 16 -51.5 23t-57.5 7t-57.5 -7.5t-51.5 -22.5q-17 -11 -24.5 -30t-11 -41.5
t-6.5 -45t-10.5 -41t-23.5 -30.5t-46 -12q-27 0 -53.5 9t-47 26t-33.5 41t-13 54q0 38 15 77t37 78t45.5 78t40.5 77q27 61 53.5 130.5t52.5 132.5q8 19 20.5 40t28.5 38.5t36.5 28.5t45.5 11q23 0 42.5 -10.5t36 -27t30 -38t22.5 -43.5q26 -61 46.5 -129t46.5 -128
q17 -38 42.5 -77.5t49.5 -79.5t41.5 -79.5t17.5 -78.5q0 -28 -12 -51.5t-32 -41t-46.5 -27.5t-54.5 -10q-30 0 -45.5 11.5t-23 30t-9.5 41t-5 44.5t-10.5 41.5t-24.5 31.5zM427 893q15 0 24 13t17 29t17 29t24 13q18 0 34.5 -17t16.5 -35q0 -24 -12 -48t-31 -43.5
t-42.5 -31.5t-47.5 -12q-15 0 -24 13t-17.5 29t-17.5 29t-24 13t-24 -13t-17.5 -29t-17.5 -29t-24 -13q-18 0 -34.5 17t-16.5 35q0 24 12 48t31 43.5t43 31.5t48 12q15 0 24 -13t17.5 -29t17.5 -29t24 -13z" />
    <glyph glyph-name="B" unicode="B" horiz-adv-x="721" 
d="M662 443q-5 -10 -14.5 -15.5t-19.5 -11.5t-17.5 -13t-7.5 -20q0 -16 10 -25t23 -16t25.5 -14t18.5 -20q16 -36 16 -74q0 -19 -4 -39t-12 -37q-22 -49 -68.5 -88t-97.5 -67q-57 -30 -132.5 -46.5t-147.5 -16.5q-57 0 -104.5 12.5t-82.5 47.5q-17 17 -26 40.5t-9 48.5
q0 10 3 26t10 31.5t16.5 27t23.5 11.5t26 -6t26 -6q12 0 22 15t15 25q15 33 24 74t9 87q0 97 -37 168q-4 8 -13 20.5t-20 12.5q-13 0 -25 -6.5t-26 -6.5q-13 0 -23 11t-16.5 27t-10 32t-3.5 27q0 25 9 48.5t26 40.5q33 33 80 47t101 14q68 0 138.5 -18.5t128.5 -42.5
q57 -23 100.5 -65.5t65.5 -96.5q15 -36 15 -73q0 -34 -15 -70zM363 157q20 0 39 3.5t36 17.5q9 8 18.5 21t9.5 31q0 25 -11 44.5t-30 30.5q-12 7 -25.5 11.5t-26.5 4.5q-18 0 -31 -16q-8 -11 -12.5 -29.5t-4.5 -39.5q0 -44 17 -67q9 -12 21 -12zM343 445q12 -14 25 -14
q12 0 26.5 6t27.5 17t21.5 27.5t8.5 37.5q0 13 -8 26.5t-21 24t-28 17t-28 6.5q-14 0 -24 -12q-8 -11 -12.5 -29t-4.5 -39t4.5 -39t12.5 -29z" />
    <glyph glyph-name="C" unicode="C" horiz-adv-x="716" 
d="M548 479q-24 0 -36 16t-22 36q-13 26 -31 46t-51 20t-59 -13q-26 -15 -41.5 -38.5t-23.5 -51t-10.5 -58t-2.5 -59.5q0 -24 2 -56.5t10 -64t23 -58t42 -39.5t61 -13q16 0 28.5 6t22 16t17.5 23t16 28q11 22 24.5 41t39.5 19q25 0 49.5 -12t44 -30.5t31.5 -42t12 -46.5
q0 -25 -14.5 -47.5t-37 -41.5t-49.5 -34t-52 -25q-73 -29 -152 -29q-83 0 -152 29q-57 23 -101 65.5t-66 96.5q-42 102 -42 212q0 54 10.5 107.5t31.5 104.5q22 54 66 96.5t101 65.5q67 26 142 26q78 0 161 -26q25 -8 51.5 -21.5t48 -31.5t35 -39.5t13.5 -45.5
q0 -23 -12.5 -46.5t-32.5 -42.5t-45 -30.5t-50 -11.5z" />
    <glyph glyph-name="A" unicode="A" horiz-adv-x="770" 
d="M353 327q10 -13 32 -13t32 13q6 7 4.5 16t-6.5 19t-11 20t-8 18q-2 6 -1.5 15t0.5 16.5t-2 13t-8 5.5t-8 -5.5t-2 -13v-16.5t-1 -15q-2 -8 -7.5 -18t-10.5 -20t-7 -19t4 -16zM497 162q-23 16 -51.5 23t-57.5 7t-57.5 -7.5t-51.5 -22.5q-17 -11 -24.5 -30t-11 -41.5
t-6.5 -45t-10.5 -41t-23.5 -30.5t-46 -12q-27 0 -53.5 9t-47 26t-33.5 41t-13 54q0 38 15 77t37 78t45.5 78t40.5 77q27 61 53.5 130.5t52.5 132.5q8 19 20.5 40t28.5 38.5t36.5 28.5t45.5 11q23 0 42.5 -10.5t36 -27t30 -38t22.5 -43.5q26 -61 46.5 -129t46.5 -128
q17 -38 42.5 -77.5t49.5 -79.5t41.5 -79.5t17.5 -78.5q0 -28 -12 -51.5t-32 -41t-46.5 -27.5t-54.5 -10q-30 0 -45.5 11.5t-23 30t-9.5 41t-5 44.5t-10.5 41.5t-24.5 31.5z" />
    <glyph glyph-name="Ccedilla" unicode="&#xc7;" horiz-adv-x="716" 
d="M545.458 493.712q-23.8887 0 -35.833 16.458t-21.8984 37.0303q-12.9395 26.7441 -30.8555 47.3164q-17.917 20.5732 -50.7637 20.5732t-58.7266 -13.373q-25.8789 -15.4287 -41.3076 -39.6016q-15.4277 -24.1729 -23.3906 -52.46t-10.4512 -59.6602t-2.48828 -61.2031
q0 -24.6875 1.99023 -58.1172q1.99121 -33.4307 9.9541 -65.832q7.96289 -32.4023 22.8926 -59.6602q14.9307 -27.2588 41.8057 -40.6309t60.7168 -13.3721q15.9258 0 28.3682 6.17188q12.4414 6.1709 21.8975 16.457q9.45605 10.2871 17.4189 23.6592t15.9258 28.8008
q10.9492 22.6299 24.3867 42.1738t39.3164 19.5439q24.8848 0 49.2705 -12.3438q24.3867 -12.3428 43.7959 -31.373q19.4102 -19.0293 31.3535 -43.2021q11.9453 -24.1729 11.9453 -47.8311q0 -25.7158 -14.4336 -48.8594q-14.4326 -23.1445 -36.8281 -42.6885
t-49.2705 -34.9727q-26.874 -15.4297 -51.7588 -25.7158q-72.6611 -29.8301 -151.295 -29.8301q-82.6152 0 -151.295 29.8301q-56.7354 23.6582 -100.531 67.375t-65.6934 99.2627q-41.8057 104.919 -41.8057 218.068q0 55.5459 10.4512 110.577t31.3545 107.491
q21.8975 55.5459 65.6934 99.2627t100.531 67.375q66.6895 26.7441 141.342 26.7441q77.6377 0 160.253 -26.7441q24.8838 -8.22949 51.2607 -22.1152q26.377 -13.8867 47.7773 -32.4023q21.4004 -18.5146 34.8379 -40.6309q13.4375 -22.1152 13.4375 -46.8018
q0 -23.6592 -12.4424 -47.8311q-12.4414 -24.1729 -32.3486 -43.7168t-44.791 -31.373q-24.8848 -11.8291 -49.7686 -11.8291zM424 3q0 -9 -2 -18.5t2 -17.5q3 -8 9.5 -13.5t14 -10t14 -10t9.5 -13.5q18 -48 0 -95q-9 -22 -27 -39t-40 -26q-23 -10 -51.5 -10t-51.5 10
q-15 6 -31.5 15t-30 21t-22.5 26t-9 31q0 13 6.5 25.5t17 23t23 17t25.5 6.5q14 0 21.5 -10.5t14 -23t14.5 -23t23 -10.5q7 0 12.5 2.5t5.5 8.5q0 14 -6 21t-14 11.5t-15.5 9t-10.5 12.5q-8 19 -4 39.5t4 40.5h99z" />
    <glyph glyph-name="D" unicode="D" horiz-adv-x="758" 
d="M476 530q-17 32 -41.5 55.5t-60.5 23.5q-20 0 -34.5 -16.5t-14.5 -44.5q0 -13 1 -22t3 -19q1 -8 2.5 -18t3 -25t3 -36.5t2.5 -52.5q2 -48 -2.5 -75.5t-8.5 -45.5q-2 -11 -4 -21t-2 -22q0 -26 12 -48.5t38 -22.5q32 0 60 21.5t43 57.5q6 15 11 36t8.5 43t5 44.5t1.5 40.5
t-1.5 38.5t-4.5 40.5t-8 38t-12 30zM10 89q0 11 2.5 27t9 31t17 25.5t26.5 10.5q11 0 19.5 -7.5t19.5 -7.5q5 0 10.5 4t11 10t9.5 12t6 10q11 19 18.5 42t11.5 46.5t5.5 44.5t1.5 36q0 16 -3 41t-10 52t-18.5 53t-27.5 45q-3 4 -9 10.5t-13 6.5q-9 0 -18.5 -5.5t-19.5 -5.5
q-12 0 -21 10t-15 24.5t-9.5 29.5t-3.5 25q0 25 9 48.5t26 40.5q35 35 84.5 49.5t106.5 14.5q66 0 141 -14.5t143 -47.5q57 -28 102.5 -70.5t70.5 -101.5q19 -46 29.5 -100.5t10.5 -102.5q0 -54 -9.5 -104.5t-30.5 -98.5q-24 -54 -68 -102.5t-104 -74.5
q-61 -26 -135.5 -42.5t-149.5 -16.5q-57 0 -106.5 14.5t-84.5 49.5q-17 17 -26 40.5t-9 48.5z" />
    <glyph glyph-name="E" unicode="E" horiz-adv-x="634" 
d="M489 286q-15 -15 -41 -15q-16 0 -33 4.5t-34.5 10.5t-34.5 10.5t-33 4.5q-26 0 -41 -15q-10 -10 -14.5 -24t-4.5 -30t4.5 -30.5t14.5 -23.5q12 -12 27 -17t32 -5q23 0 48 7t50.5 15t50.5 15t48 7q37 0 59 -22q8 -8 13 -14t8 -12.5t4 -14.5t1 -21q0 -26 -7.5 -49.5
t-23.5 -39.5q-45 -45 -113 -67.5t-143 -22.5t-142 22.5t-113 67.5q-11 10 -17.5 18t-9.5 15.5t-4 17.5t-1 25q0 30 6 62t12.5 64.5t12.5 64.5t6 62q0 33 -6.5 68t-14 71t-14 71t-6.5 68t9.5 57.5t32.5 47.5q22 22 52 35t64.5 20t72 9t73.5 2t69 -1t63 -6t56 -16.5t48 -33.5
q16 -16 23.5 -39.5t7.5 -49.5t-7.5 -49.5t-23.5 -39.5q-12 -12 -26 -16.5t-31 -4.5q-23 0 -47 6.5t-48 14.5t-48 14.5t-46 6.5q-17 0 -31 -4.5t-26 -16.5q-10 -10 -14.5 -24t-4.5 -29t4.5 -29t14.5 -23q15 -15 41 -15q16 0 33 4.5t34.5 10.5t34.5 10.5t33 4.5q26 0 41 -15
q16 -16 23.5 -40t7.5 -50t-7.5 -49.5t-23.5 -39.5z" />
    <glyph glyph-name="Eacute" unicode="&#xc9;" horiz-adv-x="634" 
d="M489 286q-15 -15 -41 -15q-16 0 -33 4.5t-34.5 10.5t-34.5 10.5t-33 4.5q-26 0 -41 -15q-10 -10 -14.5 -24t-4.5 -30t4.5 -30.5t14.5 -23.5q12 -12 27 -17t32 -5q23 0 48 7t50.5 15t50.5 15t48 7q37 0 59 -22q8 -8 13 -14t8 -12.5t4 -14.5t1 -21q0 -26 -7.5 -49.5
t-23.5 -39.5q-45 -45 -113 -67.5t-143 -22.5t-142 22.5t-113 67.5q-11 10 -17.5 18t-9.5 15.5t-4 17.5t-1 25q0 30 6 62t12.5 64.5t12.5 64.5t6 62q0 33 -6.5 68t-14 71t-14 71t-6.5 68t9.5 57.5t32.5 47.5q22 22 52 35t64.5 20t72 9t73.5 2t69 -1t63 -6t56 -16.5t48 -33.5
q16 -16 23.5 -39.5t7.5 -49.5t-7.5 -49.5t-23.5 -39.5q-12 -12 -26 -16.5t-31 -4.5q-23 0 -47 6.5t-48 14.5t-48 14.5t-46 6.5q-17 0 -31 -4.5t-26 -16.5q-10 -10 -14.5 -24t-4.5 -29t4.5 -29t14.5 -23q15 -15 41 -15q16 0 33 4.5t34.5 10.5t34.5 10.5t33 4.5q26 0 41 -15
q16 -16 23.5 -40t7.5 -50t-7.5 -49.5t-23.5 -39.5zM305 821q-11 0 -22 5.5t-20.5 14t-15.5 19t-6 21.5q0 13 13 21.5t23 18.5q12 13 21 31t19.5 34.5t23 28.5t30.5 12q13 0 26.5 -7t24.5 -18t18 -24.5t7 -26.5q0 -18 -12 -31t-29 -24.5t-35.5 -21.5t-31.5 -22
q-8 -8 -15.5 -19.5t-18.5 -11.5z" />
    <glyph glyph-name="Ecircumflex" unicode="&#xca;" horiz-adv-x="634" 
d="M489 286q-15 -15 -41 -15q-16 0 -33 4.5t-34.5 10.5t-34.5 10.5t-33 4.5q-26 0 -41 -15q-10 -10 -14.5 -24t-4.5 -30t4.5 -30.5t14.5 -23.5q12 -12 27 -17t32 -5q23 0 48 7t50.5 15t50.5 15t48 7q37 0 59 -22q8 -8 13 -14t8 -12.5t4 -14.5t1 -21q0 -26 -7.5 -49.5
t-23.5 -39.5q-45 -45 -113 -67.5t-143 -22.5t-142 22.5t-113 67.5q-11 10 -17.5 18t-9.5 15.5t-4 17.5t-1 25q0 30 6 62t12.5 64.5t12.5 64.5t6 62q0 33 -6.5 68t-14 71t-14 71t-6.5 68t9.5 57.5t32.5 47.5q22 22 52 35t64.5 20t72 9t73.5 2t69 -1t63 -6t56 -16.5t48 -33.5
q16 -16 23.5 -39.5t7.5 -49.5t-7.5 -49.5t-23.5 -39.5q-12 -12 -26 -16.5t-31 -4.5q-23 0 -47 6.5t-48 14.5t-48 14.5t-46 6.5q-17 0 -31 -4.5t-26 -16.5q-10 -10 -14.5 -24t-4.5 -29t4.5 -29t14.5 -23q15 -15 41 -15q16 0 33 4.5t34.5 10.5t34.5 10.5t33 4.5q26 0 41 -15
q16 -16 23.5 -40t7.5 -50t-7.5 -49.5t-23.5 -39.5zM406 826q-15 0 -24 13t-17.5 29t-17.5 29t-24 13t-24 -13t-17 -29t-17 -29t-24 -13q-18 0 -34.5 17t-16.5 35t16.5 41t38 44t44 35.5t34.5 14.5t34.5 -14.5t44.5 -35.5t38.5 -44t16.5 -41t-16.5 -35t-34.5 -17z" />
    <glyph glyph-name="Edieresis" unicode="&#xcb;" horiz-adv-x="634" 
d="M489 286q-15 -15 -41 -15q-16 0 -33 4.5t-34.5 10.5t-34.5 10.5t-33 4.5q-26 0 -41 -15q-10 -10 -14.5 -24t-4.5 -30t4.5 -30.5t14.5 -23.5q12 -12 27 -17t32 -5q23 0 48 7t50.5 15t50.5 15t48 7q37 0 59 -22q8 -8 13 -14t8 -12.5t4 -14.5t1 -21q0 -26 -7.5 -49.5
t-23.5 -39.5q-45 -45 -113 -67.5t-143 -22.5t-142 22.5t-113 67.5q-11 10 -17.5 18t-9.5 15.5t-4 17.5t-1 25q0 30 6 62t12.5 64.5t12.5 64.5t6 62q0 33 -6.5 68t-14 71t-14 71t-6.5 68t9.5 57.5t32.5 47.5q22 22 52 35t64.5 20t72 9t73.5 2t69 -1t63 -6t56 -16.5t48 -33.5
q16 -16 23.5 -39.5t7.5 -49.5t-7.5 -49.5t-23.5 -39.5q-12 -12 -26 -16.5t-31 -4.5q-23 0 -47 6.5t-48 14.5t-48 14.5t-46 6.5q-17 0 -31 -4.5t-26 -16.5q-10 -10 -14.5 -24t-4.5 -29t4.5 -29t14.5 -23q15 -15 41 -15q16 0 33 4.5t34.5 10.5t34.5 10.5t33 4.5q26 0 41 -15
q16 -16 23.5 -40t7.5 -50t-7.5 -49.5t-23.5 -39.5zM473 847q-9 -11 -23 -16t-29 -5t-29 5t-23 16q-7 7 -7 21q0 6 0.5 12.5t0.5 12.5q0 17 -5 28t-5 22t10 21q21 21 58 21t58 -21q10 -10 10 -21t-5 -22.5t-5 -28.5q0 -6 0.5 -12t0.5 -12q0 -14 -7 -21zM299 847
q-9 -11 -23 -16t-29 -5t-29 5t-23 16q-7 7 -7 20q0 6 0.5 12.5t0.5 12.5q0 16 -5 28t-5 23t10 21q21 21 58 21t58 -21q10 -10 10 -21t-5 -22.5t-5 -28.5q0 -6 0.5 -12t0.5 -12q0 -14 -7 -21z" />
    <glyph glyph-name="Egrave" unicode="&#xc8;" horiz-adv-x="634" 
d="M489 286q-15 -15 -41 -15q-16 0 -33 4.5t-34.5 10.5t-34.5 10.5t-33 4.5q-26 0 -41 -15q-10 -10 -14.5 -24t-4.5 -30t4.5 -30.5t14.5 -23.5q12 -12 27 -17t32 -5q23 0 48 7t50.5 15t50.5 15t48 7q37 0 59 -22q8 -8 13 -14t8 -12.5t4 -14.5t1 -21q0 -26 -7.5 -49.5
t-23.5 -39.5q-45 -45 -113 -67.5t-143 -22.5t-142 22.5t-113 67.5q-11 10 -17.5 18t-9.5 15.5t-4 17.5t-1 25q0 30 6 62t12.5 64.5t12.5 64.5t6 62q0 33 -6.5 68t-14 71t-14 71t-6.5 68t9.5 57.5t32.5 47.5q22 22 52 35t64.5 20t72 9t73.5 2t69 -1t63 -6t56 -16.5t48 -33.5
q16 -16 23.5 -39.5t7.5 -49.5t-7.5 -49.5t-23.5 -39.5q-12 -12 -26 -16.5t-31 -4.5q-23 0 -47 6.5t-48 14.5t-48 14.5t-46 6.5q-17 0 -31 -4.5t-26 -16.5q-10 -10 -14.5 -24t-4.5 -29t4.5 -29t14.5 -23q15 -15 41 -15q16 0 33 4.5t34.5 10.5t34.5 10.5t33 4.5q26 0 41 -15
q16 -16 23.5 -40t7.5 -50t-7.5 -49.5t-23.5 -39.5zM415 886q-1 -22 -21.5 -40.5t-42.5 -19.5q-9 0 -15.5 5t-12 11.5t-11 14.5t-11.5 14q-11 10 -26.5 18.5t-29.5 17.5t-24 20t-10 26q0 13 7 26.5t18 24.5t24.5 18t26.5 7q15 0 26 -10t20 -24.5t17.5 -30.5t18.5 -27
q6 -6 13.5 -11.5t15 -11.5t12.5 -12.5t5 -15.5z" />
    <glyph glyph-name="Eth" unicode="&#xd0;" horiz-adv-x="754" 
d="M64 175q7 7 18.5 5.5t23.5 -5.5t23 -6t19 6q21 21 21 58t-21 58q-10 10 -25.5 7.5t-32 -7.5t-32 -7.5t-25.5 7.5q-15 15 -22.5 37.5t-7.5 46.5t7.5 46.5t22.5 37.5q10 10 25.5 7.5t32 -7.5t32 -7.5t25.5 7.5q20 20 20 57t-20 57q-8 8 -19 6t-23 -6t-23.5 -6t-18.5 6
q-31 33 -31 87q0 25 7.5 48.5t23.5 39.5q31 31 77 43t98 12q42 0 83.5 -6t78 -14.5t66 -18t46.5 -16.5q27 -11 52.5 -27t48 -36.5t40.5 -44t30 -50.5q43 -98 43 -215t-43 -215q-23 -54 -69.5 -96t-101.5 -64q-30 -12 -63.5 -23t-69 -19.5t-71.5 -13.5t-70 -5q-51 0 -95.5 14
t-79.5 47q-16 15 -23.5 38t-7.5 49q0 25 7.5 48.5t23.5 39.5zM433 573q-16 5 -33.5 7.5t-33.5 2.5q-8 0 -15 -2t-13 -8q-11 -11 -15.5 -25.5t-4.5 -31.5t4.5 -31.5t15.5 -25.5q9 -9 23 -6.5t28 7t27.5 6.5t22.5 -7q15 -15 22.5 -37.5t7.5 -46.5t-7.5 -46.5t-22.5 -37.5
q-9 -9 -22.5 -7t-28 6.5t-28 7t-22.5 -6.5q-21 -21 -21 -58t21 -58q10 -10 27 -10q16 0 33 2t33 8q45 17 64 60q28 65 28 139q0 75 -28 140q-8 20 -24 35.5t-38 23.5z" />
    <glyph glyph-name="Euro" unicode="&#x20ac;" horiz-adv-x="595" 
d="M44 396q-12 11 -17.5 28.5t-5.5 37.5q0 19 5.5 37t17.5 30q4 4 9.5 3t11.5 -3t11.5 -3t9.5 3q5 5 4.5 12.5t-2.5 16t-3.5 17t1.5 15.5q21 52 63.5 94t93.5 64q45 18 99.5 34t106.5 16q19 0 41 -4.5t41 -14.5t31.5 -26.5t12.5 -40.5q0 -17 -6.5 -34.5t-17.5 -34
t-24.5 -30.5t-26.5 -23q-11 -8 -23 -10.5t-26 -2.5q-26 0 -54.5 6.5t-54.5 6.5q-11 0 -26.5 -9.5t-27.5 -21t-16.5 -21t6.5 -9.5q34 0 72 10.5t72 10.5q17 0 32 -4.5t27 -16.5q11 -12 17 -30t6 -37q0 -43 -23 -66q-8 -8 -18 -11t-21 -3q-15 0 -32.5 4.5t-35.5 9.5t-35.5 9.5
t-32.5 4.5q-13 0 -29 -6.5t-16 -23.5t14.5 -24t30.5 -7q15 0 32.5 4.5t35 9.5t35 9.5t32.5 4.5q11 0 21 -3t18 -11q11 -12 17 -29.5t6 -36.5t-6 -37t-17 -29q-13 -13 -36 -13q-17 0 -35.5 5.5t-37.5 11.5t-37 11.5t-33 5.5q-27 0 -34 -21q-5 -12 1.5 -23t18 -20.5t26 -17
t26.5 -12.5q15 -6 31 -6q17 0 35.5 4t36.5 9.5t35.5 9.5t32.5 4q24 0 39 -15.5t15 -41.5q0 -17 -6.5 -34.5t-17 -34t-24 -30.5t-27.5 -23q-23 -16 -51.5 -22.5t-57.5 -6.5q-35 0 -70.5 8t-66.5 21q-51 22 -93.5 64t-63.5 94q-3 8 -1 18t4 20.5t2.5 19.5t-5.5 15q-4 4 -9.5 3
t-12 -3t-12 -3t-9.5 3q-12 11 -17.5 29t-5.5 37t5.5 36.5t17.5 29.5q3 3 7 3q6 1 13.5 -2.5t14.5 -3.5t10.5 6t3.5 14q0 5 -3 12t-11 7q-6 0 -13 -3t-13 -3q-5 0 -8 3z" />
    <glyph glyph-name="F" unicode="F" horiz-adv-x="573" 
d="M465 296q-14 -14 -37 -14q-14 0 -30.5 4.5t-33 9.5t-32.5 9.5t-30 4.5q-23 0 -37 -14q-11 -11 -15 -24t-4 -28q0 -21 5.5 -45.5t12 -50.5t12 -50.5t5.5 -45.5q0 -15 -4 -28t-15 -24q-17 -17 -42 -25t-52 -8t-51.5 8t-41.5 25q-23 23 -31.5 50.5t-8.5 59.5q0 31 6 65.5
t13 69t13 68.5t6 66q0 31 -6 64t-12.5 67t-12.5 67t-6 64t8.5 58t30.5 49q20 20 46 32.5t56 19t63 9t66 2.5t64.5 -2.5t61 -9t55 -19t45.5 -32.5q16 -16 23.5 -39.5t7.5 -49.5t-6 -44.5t-22 -34.5q-11 -11 -23.5 -14.5t-26.5 -3.5q-20 0 -41.5 5.5t-43.5 12.5t-44 12.5
t-41 5.5q-14 0 -26.5 -3.5t-23.5 -14.5q-10 -10 -14.5 -24t-4.5 -29t4.5 -29t14.5 -23q14 -14 37 -14q14 0 30 4.5t32.5 9.5t33 9.5t30.5 4.5q23 0 37 -14q16 -16 23.5 -40t7.5 -50t-7.5 -49.5t-23.5 -39.5z" />
    <glyph glyph-name="G" unicode="G" horiz-adv-x="752" 
d="M674 578q-20 -20 -44 -28t-53 -8t-55 5.5t-52 13.5t-52.5 14t-55.5 6q-28 0 -50 -21.5t-37 -53t-23 -67.5t-8 -66q0 -29 2.5 -62.5t13.5 -65.5q18 -50 63.5 -80t102.5 -30q41 0 67 23q14 13 22.5 34.5t8.5 36.5q0 33 -17 52q-9 9 -25 9q-11 0 -19 -2.5t-15 -5.5
q-9 -4 -22 -9.5t-20 -5.5q-12 0 -20 4.5t-16 14.5q-11 14 -18.5 31t-7.5 37q0 31 14 51.5t44 37.5q48 26 111 26q45 0 86 -13.5t67 -40.5q34 -34 53.5 -70t19.5 -87q0 -33 -5 -67t-16 -65.5t-28 -58.5t-41 -46q-42 -33 -86.5 -50t-98.5 -19q-62 -2 -116.5 8.5t-102.5 32.5
q-100 46 -156 141.5t-56 239.5q0 102 38 196q24 60 72.5 106t106.5 72t124.5 43t132.5 17q48 0 91.5 -13.5t75.5 -45.5q16 -15 23.5 -38t7.5 -48q0 -55 -31 -85z" />
    <glyph glyph-name="H" unicode="H" horiz-adv-x="728" 
d="M264 749q11 -11 15.5 -25t4.5 -30q0 -21 -6.5 -45t-14 -49t-13.5 -49t-6 -45q0 -16 4.5 -30t15.5 -25q17 -18 44 -26.5t56 -8.5t56 8.5t45 26.5q11 11 15.5 25t4.5 30q0 21 -6.5 45t-14 49t-13.5 49t-6 45q0 16 4.5 30t15.5 25q17 17 42 25.5t52 8.5t52 -8.5t42 -25.5
q23 -23 31.5 -51t8.5 -60t-6.5 -66.5t-14 -69t-13.5 -69t-6 -66.5q0 -30 6 -63t13 -67t13 -67t6 -64t-8 -57.5t-30 -48.5q-17 -17 -42 -25.5t-52 -8.5t-52 8.5t-42 25.5q-11 11 -14.5 23.5t-3.5 26.5q0 19 5.5 41t12.5 44.5t12.5 44.5t5.5 42q0 14 -3.5 26.5t-14.5 23.5
q-18 17 -45 26t-56 9t-56 -9t-44 -26q-11 -11 -14.5 -23.5t-3.5 -26.5q0 -20 5.5 -42t12.5 -44.5t12.5 -44.5t5.5 -41q0 -14 -3.5 -26.5t-14.5 -23.5q-17 -17 -42 -25.5t-52 -8.5t-52 8.5t-42 25.5q-21 21 -29 47.5t-8 56.5t6 62.5t12.5 65t12.5 64.5t6 62q0 33 -6.5 68
t-14 71t-14 71t-6.5 68q0 32 9 61t32 52q17 17 42 25.5t52 8.5t52 -8.5t42 -25.5z" />
    <glyph glyph-name="I" unicode="I" horiz-adv-x="482" 
d="M24 63q1 12 2 25.5t5 25.5t11.5 20.5t21.5 10.5q16 2 23.5 -4.5t19.5 -6.5t19 8t10.5 19.5t5 25.5t1.5 26q0 10 -1.5 37t-3 62t-2.5 74.5t-1 76.5q0 46 2 79.5t1 40.5q-2 21 -10 27t-18.5 4.5t-21.5 -6t-19 -4.5q-13 1 -22 9t-14.5 19t-8 23.5t-2.5 23.5q0 19 7 36.5
t22 30.5q38 32 86 39.5t95 7.5q25 0 51.5 -1t52 -5.5t49.5 -14t44 -26.5q15 -13 24 -30t7 -37q-1 -12 -2.5 -24t-5 -22.5t-10.5 -18t-19 -9.5q-14 -2 -24 5t-25 7q-24 0 -32 -22.5t-13 -60.5q-2 -12 -2.5 -26t-0.5 -32v-42.5v-58.5q0 -64 1.5 -104t3.5 -57t4 -29.5t5 -20.5
q4 -11 13 -21t23 -12t22.5 4.5t22.5 6.5t21.5 -9t11 -21.5t4 -27t0.5 -26.5q0 -20 -9 -36t-23 -28q-32 -29 -78 -36t-103 -7q-52 0 -100 7t-90 42q-14 12 -23.5 28t-7.5 35z" />
    <glyph glyph-name="Iacute" unicode="&#xcd;" horiz-adv-x="482" 
d="M24 63q1 12 2 25.5t5 25.5t11.5 20.5t21.5 10.5q16 2 23.5 -4.5t19.5 -6.5t19 8t10.5 19.5t5 25.5t1.5 26q0 10 -1.5 37t-3 62t-2.5 74.5t-1 76.5q0 46 2 79.5t1 40.5q-2 21 -10 27t-18.5 4.5t-21.5 -6t-19 -4.5q-13 1 -22 9t-14.5 19t-8 23.5t-2.5 23.5q0 19 7 36.5
t22 30.5q38 32 86 39.5t95 7.5q25 0 51.5 -1t52 -5.5t49.5 -14t44 -26.5q15 -13 24 -30t7 -37q-1 -12 -2.5 -24t-5 -22.5t-10.5 -18t-19 -9.5q-14 -2 -24 5t-25 7q-24 0 -32 -22.5t-13 -60.5q-2 -12 -2.5 -26t-0.5 -32v-42.5v-58.5q0 -64 1.5 -104t3.5 -57t4 -29.5t5 -20.5
q4 -11 13 -21t23 -12t22.5 4.5t22.5 6.5t21.5 -9t11 -21.5t4 -27t0.5 -26.5q0 -20 -9 -36t-23 -28q-32 -29 -78 -36t-103 -7q-52 0 -100 7t-90 42q-14 12 -23.5 28t-7.5 35zM249 823q-11 0 -22 5.5t-20.5 14t-15.5 19t-6 21.5q0 13 13 21.5t23 18.5q12 13 21 31t19.5 34.5
t23 28.5t30.5 12q13 0 26.5 -7t24.5 -18t18 -24.5t7 -26.5q0 -18 -12 -31t-29 -24.5t-35.5 -21.5t-31.5 -22q-8 -8 -15.5 -19.5t-18.5 -11.5z" />
    <glyph glyph-name="Icircumflex" unicode="&#xce;" horiz-adv-x="482" 
d="M24 63q1 12 2 25.5t5 25.5t11.5 20.5t21.5 10.5q16 2 23.5 -4.5t19.5 -6.5t19 8t10.5 19.5t5 25.5t1.5 26q0 10 -1.5 37t-3 62t-2.5 74.5t-1 76.5q0 46 2 79.5t1 40.5q-2 21 -10 27t-18.5 4.5t-21.5 -6t-19 -4.5q-13 1 -22 9t-14.5 19t-8 23.5t-2.5 23.5q0 19 7 36.5
t22 30.5q38 32 86 39.5t95 7.5q25 0 51.5 -1t52 -5.5t49.5 -14t44 -26.5q15 -13 24 -30t7 -37q-1 -12 -2.5 -24t-5 -22.5t-10.5 -18t-19 -9.5q-14 -2 -24 5t-25 7q-24 0 -32 -22.5t-13 -60.5q-2 -12 -2.5 -26t-0.5 -32v-42.5v-58.5q0 -64 1.5 -104t3.5 -57t4 -29.5t5 -20.5
q4 -11 13 -21t23 -12t22.5 4.5t22.5 6.5t21.5 -9t11 -21.5t4 -27t0.5 -26.5q0 -20 -9 -36t-23 -28q-32 -29 -78 -36t-103 -7q-52 0 -100 7t-90 42q-14 12 -23.5 28t-7.5 35zM339 826q-15 0 -24 13t-17.5 29t-17.5 29t-24 13t-24 -13t-17 -29t-17 -29t-24 -13q-18 0 -34.5 17
t-16.5 35t16.5 41t38 44t44 35.5t34.5 14.5t34.5 -14.5t44.5 -35.5t38.5 -44t16.5 -41t-16.5 -35t-34.5 -17z" />
    <glyph glyph-name="Idieresis" unicode="&#xcf;" horiz-adv-x="482" 
d="M24 63q1 12 2 25.5t5 25.5t11.5 20.5t21.5 10.5q16 2 23.5 -4.5t19.5 -6.5t19 8t10.5 19.5t5 25.5t1.5 26q0 10 -1.5 37t-3 62t-2.5 74.5t-1 76.5q0 46 2 79.5t1 40.5q-2 21 -10 27t-18.5 4.5t-21.5 -6t-19 -4.5q-13 1 -22 9t-14.5 19t-8 23.5t-2.5 23.5q0 19 7 36.5
t22 30.5q38 32 86 39.5t95 7.5q25 0 51.5 -1t52 -5.5t49.5 -14t44 -26.5q15 -13 24 -30t7 -37q-1 -12 -2.5 -24t-5 -22.5t-10.5 -18t-19 -9.5q-14 -2 -24 5t-25 7q-24 0 -32 -22.5t-13 -60.5q-2 -12 -2.5 -26t-0.5 -32v-42.5v-58.5q0 -64 1.5 -104t3.5 -57t4 -29.5t5 -20.5
q4 -11 13 -21t23 -12t22.5 4.5t22.5 6.5t21.5 -9t11 -21.5t4 -27t0.5 -26.5q0 -20 -9 -36t-23 -28q-32 -29 -78 -36t-103 -7q-52 0 -100 7t-90 42q-14 12 -23.5 28t-7.5 35zM396 847q-9 -11 -23 -16t-29 -5t-29 5t-23 16q-7 7 -7 21q0 6 0.5 12.5t0.5 12.5q0 17 -5 28t-5 22
t10 21q21 21 58 21t58 -21q10 -10 10 -21t-5 -22.5t-5 -28.5q0 -6 0.5 -12t0.5 -12q0 -14 -7 -21zM222 847q-9 -11 -23 -16t-29 -5t-29 5t-23 16q-7 7 -7 20q0 6 0.5 12.5t0.5 12.5q0 16 -5 28t-5 23t10 21q21 21 58 21t58 -21q10 -10 10 -21t-5 -22.5t-5 -28.5
q0 -6 0.5 -12t0.5 -12q0 -14 -7 -21z" />
    <glyph glyph-name="Igrave" unicode="&#xcc;" horiz-adv-x="482" 
d="M24 63q1 12 2 25.5t5 25.5t11.5 20.5t21.5 10.5q16 2 23.5 -4.5t19.5 -6.5t19 8t10.5 19.5t5 25.5t1.5 26q0 10 -1.5 37t-3 62t-2.5 74.5t-1 76.5q0 46 2 79.5t1 40.5q-2 21 -10 27t-18.5 4.5t-21.5 -6t-19 -4.5q-13 1 -22 9t-14.5 19t-8 23.5t-2.5 23.5q0 19 7 36.5
t22 30.5q38 32 86 39.5t95 7.5q25 0 51.5 -1t52 -5.5t49.5 -14t44 -26.5q15 -13 24 -30t7 -37q-1 -12 -2.5 -24t-5 -22.5t-10.5 -18t-19 -9.5q-14 -2 -24 5t-25 7q-24 0 -32 -22.5t-13 -60.5q-2 -12 -2.5 -26t-0.5 -32v-42.5v-58.5q0 -64 1.5 -104t3.5 -57t4 -29.5t5 -20.5
q4 -11 13 -21t23 -12t22.5 4.5t22.5 6.5t21.5 -9t11 -21.5t4 -27t0.5 -26.5q0 -20 -9 -36t-23 -28q-32 -29 -78 -36t-103 -7q-52 0 -100 7t-90 42q-14 12 -23.5 28t-7.5 35zM344 886q-1 -22 -21.5 -40.5t-42.5 -19.5q-9 0 -15.5 5t-12 11.5t-11 14.5t-11.5 14
q-11 10 -26.5 18.5t-29.5 17.5t-24 20t-10 26q0 13 7 26.5t18 24.5t24.5 18t26.5 7q15 0 26 -10t20 -24.5t17.5 -30.5t18.5 -27q6 -6 13.5 -11.5t15 -11.5t12.5 -12.5t5 -15.5z" />
    <glyph glyph-name="J" unicode="J" horiz-adv-x="555" 
d="M304 572q0 4 -0.5 10.5t-2 13t-5 11t-9.5 4.5t-15 -4.5t-18.5 -9.5t-19.5 -9.5t-19 -4.5q-10 0 -17 7q-32 32 -32 72q0 29 15 55t39 45t53.5 30t58.5 11q45 0 87 -13.5t70 -41.5q17 -17 24 -39t7 -46t-5 -50.5t-10.5 -53t-10.5 -53t-5 -50.5q0 -52 8.5 -105t8.5 -105
q0 -58 -16 -109t-49 -89t-83.5 -60t-119.5 -22q-46 0 -87 17q-24 10 -49.5 24t-46.5 32t-34.5 40t-13.5 48q0 22 11 44.5t29 40.5t40.5 29t45.5 11q18 0 26.5 -16.5t17 -36.5t21 -36.5t38.5 -16.5q58 0 67 61q3 18 3 42q0 43 -6 93.5t-6 92.5q0 40 5.5 74.5t4.5 62.5z" />
    <glyph glyph-name="K" unicode="K" horiz-adv-x="736" 
d="M267 748q11 -11 15.5 -24.5t4.5 -28.5q0 -21 -6.5 -44t-14 -46.5t-13.5 -46.5t-6 -44q0 -15 4.5 -28.5t15.5 -24.5q6 -6 15.5 -4.5t17.5 4.5q32 13 56 41t44 62t38 70.5t38.5 67t46 50.5t60.5 21q24 1 49 -11.5t44.5 -32.5t32 -45t12.5 -49q0 -31 -19.5 -53.5t-48.5 -41
t-63.5 -35t-63.5 -35t-48.5 -41t-19.5 -53.5q0 -32 20 -54.5t50 -41t65.5 -34.5t65.5 -34.5t50 -41.5t20 -54q0 -24 -12 -48t-31.5 -43.5t-44 -31.5t-48.5 -12q-35 0 -61.5 18.5t-49 47.5t-42.5 64.5t-41.5 69t-46.5 61t-58 41.5q-10 4 -17 4q-6 0 -10 -4q-11 -11 -15 -24
t-4 -28q0 -20 6 -43t13 -46.5t13 -46.5t6 -43q0 -15 -4 -28t-15 -24q-17 -17 -42 -25t-52 -8t-51.5 8t-41.5 25q-23 23 -31.5 51t-8.5 60t6 66.5t13.5 69t14 69t6.5 66.5q0 30 -6 63t-13 67t-13 67t-6 63q0 31 8 57.5t30 48.5q17 17 41.5 25t51.5 8t52 -8t42 -25z" />
    <glyph glyph-name="L" unicode="L" horiz-adv-x="617" 
d="M263 748q21 -21 30 -47.5t9 -56.5q0 -41 -10.5 -87.5t-23 -93.5t-23 -93.5t-10.5 -87.5q0 -30 6.5 -56.5t27.5 -47.5q12 -12 29 -16.5t34 -4.5q23 0 46.5 6.5t47.5 14.5t47.5 14.5t46.5 6.5q17 0 31.5 -4.5t26.5 -16.5q16 -16 23.5 -39.5t7.5 -49.5t-7.5 -49.5
t-23.5 -39.5q-14 -14 -30 -19.5t-34 -5.5t-38 4t-41 8.5t-43.5 8.5t-46.5 4t-49 -4.5t-50 -9.5t-48.5 -9.5t-45.5 -4.5q-23 0 -42 6t-35 22q-23 23 -31.5 51.5t-8.5 60.5t4.5 72.5t9.5 83t9.5 83t4.5 72.5q0 30 -4 57t-9 53.5t-9 53t-4 56.5t8 56.5t30 48.5q17 17 42 25.5
t52 8.5t52 -8.5t42 -25.5z" />
    <glyph glyph-name="M" unicode="M" horiz-adv-x="889" 
d="M201 752q23 -14 38.5 -36t26.5 -48t19 -54t17 -53q9 -26 22 -59t28 -67t31 -66.5t30.5 -58t26.5 -41t19 -15.5q14 0 34 31t41.5 77t42.5 98.5t37 95.5q9 26 17 54.5t18.5 55.5t25.5 49.5t38 36.5q8 5 22.5 8.5t25.5 3.5t22.5 -3t17.5 -9q24 -24 33.5 -54t9.5 -64
q0 -24 -2 -55t-4 -67t-2.5 -76t1.5 -82q3 -56 8.5 -111t7 -102.5t-4.5 -84.5t-25 -56q-16 -16 -40.5 -24t-50.5 -8t-50 8t-40 24q-13 13 -18 29t-5 35q0 5 0.5 31t1 55.5t0 53t-1.5 23.5q-2 0 -5 -6.5t-6.5 -15.5l-7 -18t-5.5 -15q-11 -30 -21.5 -69.5t-25 -74.5t-35.5 -59
t-54 -24q-32 0 -52.5 24t-34.5 58.5t-24.5 73.5t-22.5 69q-2 5 -5.5 14l-7 18t-7 15.5t-4.5 6.5q-5 0 -10 -24t-9.5 -54t-7 -56t-2.5 -30q0 -18 -5 -34.5t-18 -29.5q-16 -16 -40 -24t-50 -8t-50 8t-40 24q-27 27 -31.5 67t2 87.5t19 99.5t19.5 102q6 42 6.5 81t-1 74.5
t-4 67t-2.5 58.5q0 71 48 119q12 12 34 12q11 0 22.5 -3.5t19.5 -8.5z" />
    <glyph glyph-name="N" unicode="N" horiz-adv-x="694" 
d="M169 748q45 -21 80.5 -56.5t65.5 -78.5t56 -89t53 -89q3 -4 6 -12t5.5 -16t5 -14t3.5 -6t1 3v16q-2 28 -7.5 58.5t-12.5 60.5t-12 60t-5 59q0 30 8 56.5t29 47.5q16 16 41 24t51 8t50.5 -7.5t41.5 -24.5q24 -23 32 -50t8 -59q0 -46 -7 -91t-15 -89t-14.5 -88.5
t-4.5 -89.5q1 -51 3.5 -86t5 -60.5t5 -45t4.5 -40.5t3 -46.5t1 -62.5q0 -22 -11 -33t-24 -11q-22 0 -50 24t-59 62.5t-63.5 86.5t-62.5 97t-57 93.5t-47 75.5q-3 4 -6 12l-6 16t-5.5 13.5t-3.5 5.5q-1 -1 -1 -3v-12q1 -31 7.5 -63.5t13.5 -65.5t13 -65.5t6 -62.5
q0 -32 -8.5 -59.5t-31.5 -50.5q-17 -17 -41.5 -24.5t-50.5 -7.5t-50.5 7.5t-41.5 24.5q-23 24 -31.5 51.5t-8.5 59.5t6 66.5t13.5 69t14 69t6.5 66.5q0 30 -6 63t-13 67t-13 67t-6 63q0 31 8 57.5t30 48.5q8 8 18.5 11t22.5 3q15 0 30 -4t28 -10z" />
    <glyph glyph-name="Ntilde" unicode="&#xd1;" horiz-adv-x="694" 
d="M169 748q45 -21 80.5 -56.5t65.5 -78.5t56 -89t53 -89q3 -4 6 -12t5.5 -16t5 -14t3.5 -6t1 3v16q-2 28 -7.5 58.5t-12.5 60.5t-12 60t-5 59q0 30 8 56.5t29 47.5q16 16 41 24t51 8t50.5 -7.5t41.5 -24.5q24 -23 32 -50t8 -59q0 -46 -7 -91t-15 -89t-14.5 -88.5
t-4.5 -89.5q1 -51 3.5 -86t5 -60.5t5 -45t4.5 -40.5t3 -46.5t1 -62.5q0 -22 -11 -33t-24 -11q-22 0 -50 24t-59 62.5t-63.5 86.5t-62.5 97t-57 93.5t-47 75.5q-3 4 -6 12l-6 16t-5.5 13.5t-3.5 5.5q-1 -1 -1 -3v-12q1 -31 7.5 -63.5t13.5 -65.5t13 -65.5t6 -62.5
q0 -32 -8.5 -59.5t-31.5 -50.5q-17 -17 -41.5 -24.5t-50.5 -7.5t-50.5 7.5t-41.5 24.5q-23 24 -31.5 51.5t-8.5 59.5t6 66.5t13.5 69t14 69t6.5 66.5q0 30 -6 63t-13 67t-13 67t-6 63q0 31 8 57.5t30 48.5q8 8 18.5 11t22.5 3q15 0 30 -4t28 -10zM392 893q15 0 24 13t17 29
t17 29t24 13q18 0 34.5 -17t16.5 -35q0 -24 -12 -48t-31 -43.5t-42.5 -31.5t-47.5 -12q-15 0 -24 13t-17.5 29t-17.5 29t-24 13t-24 -13t-17.5 -29t-17.5 -29t-24 -13q-18 0 -34.5 17t-16.5 35q0 24 12 48t31 43.5t43 31.5t48 12q15 0 24 -13t17.5 -29t17.5 -29t24 -13z" />
    <glyph glyph-name="O" unicode="O" horiz-adv-x="738" 
d="M514 -4q-34 -11 -69 -17.5t-71 -6.5q-35 0 -69.5 5t-67.5 17q-36 13 -68 35t-58 51t-44.5 63.5t-27.5 72.5q-8 34 -10 66.5t-1 64.5q1 42 5 82t16 79q11 37 29 73.5t42.5 68t55 57.5t67.5 43q31 14 63.5 19.5t65.5 5.5q34 0 67 -5.5t63 -18.5q37 -16 67 -41.5t53 -57
t40 -67.5t28 -73q11 -36 15.5 -72.5t4.5 -73.5v-71t-5 -71q-6 -39 -22.5 -75t-41.5 -66t-57.5 -52.5t-69.5 -34.5zM480 228q11 37 12.5 74t1.5 73q0 35 -2.5 71t-14.5 71q-11 32 -40 48t-61 15q-30 -1 -56 -17.5t-37 -45.5q-13 -35 -17.5 -73.5t-4.5 -74.5q0 -37 1.5 -71.5
t14.5 -70.5q14 -39 52 -56q24 -11 51 -11q25 0 52 11q17 8 30 23.5t18 33.5z" />
    <glyph glyph-name="OE" unicode="&#x152;" horiz-adv-x="893" 
d="M741 286q-15 -15 -40 -15q-16 0 -33.5 4.5t-35.5 10.5t-35.5 10.5t-33.5 4.5q-25 0 -40 -15q-10 -10 -14.5 -24t-4.5 -30t4.5 -30.5t14.5 -23.5q12 -12 26.5 -17t31.5 -5q23 0 49 7t52 15t52 15t49 7q36 0 58 -22q16 -16 23.5 -39.5t7.5 -49.5t-7.5 -49.5t-23.5 -39.5
q-48 -48 -109.5 -66.5t-133.5 -18.5q-94 0 -190.5 25.5t-177.5 59.5q-54 23 -98 66.5t-67 97.5q-20 48 -30 101t-10 107t10 107.5t30 101.5q23 55 67.5 99.5t99.5 67.5q39 16 83 31t90.5 26.5t93.5 18.5t93 7q69 0 130 -18.5t107 -64.5q16 -16 23.5 -39.5t7.5 -49.5
t-7.5 -49.5t-23.5 -39.5q-21 -21 -56 -21q-22 0 -47 6.5t-50 14.5t-50 14.5t-47 6.5q-35 0 -56 -21q-10 -10 -14.5 -24t-4.5 -29t4.5 -29t14.5 -23q15 -15 40 -15q16 0 33.5 4.5t35.5 10.5t35.5 10.5t33.5 4.5q25 0 40 -15q16 -16 23.5 -40t7.5 -50t-7.5 -49.5t-23.5 -39.5z
M254 243q17 -38 54 -55q10 -4 16 -4q7 0 11 4.5t9 10.5q26 35 41 79.5t15 94.5q0 51 -15 98t-44 81l-6.5 6.5t-8.5 3.5q-8 0 -14 -3q-19 -8 -34.5 -22.5t-23.5 -33.5q-13 -30 -19 -63t-6 -67t5.5 -67t19.5 -63z" />
    <glyph glyph-name="Oacute" unicode="&#xd3;" horiz-adv-x="738" 
d="M514 -4q-34 -11 -69 -17.5t-71 -6.5q-35 0 -69.5 5t-67.5 17q-36 13 -68 35t-58 51t-44.5 63.5t-27.5 72.5q-8 34 -10 66.5t-1 64.5q1 42 5 82t16 79q11 37 29 73.5t42.5 68t55 57.5t67.5 43q31 14 63.5 19.5t65.5 5.5q34 0 67 -5.5t63 -18.5q37 -16 67 -41.5t53 -57
t40 -67.5t28 -73q11 -36 15.5 -72.5t4.5 -73.5v-71t-5 -71q-6 -39 -22.5 -75t-41.5 -66t-57.5 -52.5t-69.5 -34.5zM480 228q11 37 12.5 74t1.5 73q0 35 -2.5 71t-14.5 71q-11 32 -40 48t-61 15q-30 -1 -56 -17.5t-37 -45.5q-13 -35 -17.5 -73.5t-4.5 -74.5q0 -37 1.5 -71.5
t14.5 -70.5q14 -39 52 -56q24 -11 51 -11q25 0 52 11q17 8 30 23.5t18 33.5zM359 817q-11 0 -22 5.5t-20.5 14t-15.5 19t-6 21.5q0 13 13 21.5t23 18.5q12 13 21 31t19.5 34.5t23 28.5t30.5 12q13 0 26.5 -7t24.5 -18t18 -24.5t7 -26.5q0 -18 -12 -31t-29 -24.5t-35.5 -21.5
t-31.5 -22q-8 -8 -15.5 -19.5t-18.5 -11.5z" />
    <glyph glyph-name="Ocircumflex" unicode="&#xd4;" horiz-adv-x="738" 
d="M514 -4q-34 -11 -69 -17.5t-71 -6.5q-35 0 -69.5 5t-67.5 17q-36 13 -68 35t-58 51t-44.5 63.5t-27.5 72.5q-8 34 -10 66.5t-1 64.5q1 42 5 82t16 79q11 37 29 73.5t42.5 68t55 57.5t67.5 43q31 14 63.5 19.5t65.5 5.5q34 0 67 -5.5t63 -18.5q37 -16 67 -41.5t53 -57
t40 -67.5t28 -73q11 -36 15.5 -72.5t4.5 -73.5v-71t-5 -71q-6 -39 -22.5 -75t-41.5 -66t-57.5 -52.5t-69.5 -34.5zM480 228q11 37 12.5 74t1.5 73q0 35 -2.5 71t-14.5 71q-11 32 -40 48t-61 15q-30 -1 -56 -17.5t-37 -45.5q-13 -35 -17.5 -73.5t-4.5 -74.5q0 -37 1.5 -71.5
t14.5 -70.5q14 -39 52 -56q24 -11 51 -11q25 0 52 11q17 8 30 23.5t18 33.5zM459 809q-15 0 -24 13t-17.5 29t-17.5 29t-24 13t-24 -13t-17 -29t-17 -29t-24 -13q-18 0 -34.5 17t-16.5 35t16.5 41t38 44t44 35.5t34.5 14.5t34.5 -14.5t44.5 -35.5t38.5 -44t16.5 -41
t-16.5 -35t-34.5 -17z" />
    <glyph glyph-name="Odieresis" unicode="&#xd6;" horiz-adv-x="738" 
d="M514 -4q-34 -11 -69 -17.5t-71 -6.5q-35 0 -69.5 5t-67.5 17q-36 13 -68 35t-58 51t-44.5 63.5t-27.5 72.5q-8 34 -10 66.5t-1 64.5q1 42 5 82t16 79q11 37 29 73.5t42.5 68t55 57.5t67.5 43q31 14 63.5 19.5t65.5 5.5q34 0 67 -5.5t63 -18.5q37 -16 67 -41.5t53 -57
t40 -67.5t28 -73q11 -36 15.5 -72.5t4.5 -73.5v-71t-5 -71q-6 -39 -22.5 -75t-41.5 -66t-57.5 -52.5t-69.5 -34.5zM480 228q11 37 12.5 74t1.5 73q0 35 -2.5 71t-14.5 71q-11 32 -40 48t-61 15q-30 -1 -56 -17.5t-37 -45.5q-13 -35 -17.5 -73.5t-4.5 -74.5q0 -37 1.5 -71.5
t14.5 -70.5q14 -39 52 -56q24 -11 51 -11q25 0 52 11q17 8 30 23.5t18 33.5zM510 822q-9 -11 -23 -16t-29 -5t-29 5t-23 16q-7 7 -7 21q0 6 0.5 12.5t0.5 12.5q0 17 -5 28t-5 22t10 21q21 21 58 21t58 -21q10 -10 10 -21t-5 -22.5t-5 -28.5q0 -6 0.5 -12t0.5 -12
q0 -14 -7 -21zM336 822q-9 -11 -23 -16t-29 -5t-29 5t-23 16q-7 7 -7 20q0 6 0.5 12.5t0.5 12.5q0 16 -5 28t-5 23t10 21q21 21 58 21t58 -21q10 -10 10 -21t-5 -22.5t-5 -28.5q0 -6 0.5 -12t0.5 -12q0 -14 -7 -21z" />
    <glyph glyph-name="Ograve" unicode="&#xd2;" horiz-adv-x="738" 
d="M514 -4q-34 -11 -69 -17.5t-71 -6.5q-35 0 -69.5 5t-67.5 17q-36 13 -68 35t-58 51t-44.5 63.5t-27.5 72.5q-8 34 -10 66.5t-1 64.5q1 42 5 82t16 79q11 37 29 73.5t42.5 68t55 57.5t67.5 43q31 14 63.5 19.5t65.5 5.5q34 0 67 -5.5t63 -18.5q37 -16 67 -41.5t53 -57
t40 -67.5t28 -73q11 -36 15.5 -72.5t4.5 -73.5v-71t-5 -71q-6 -39 -22.5 -75t-41.5 -66t-57.5 -52.5t-69.5 -34.5zM480 228q11 37 12.5 74t1.5 73q0 35 -2.5 71t-14.5 71q-11 32 -40 48t-61 15q-30 -1 -56 -17.5t-37 -45.5q-13 -35 -17.5 -73.5t-4.5 -74.5q0 -37 1.5 -71.5
t14.5 -70.5q14 -39 52 -56q24 -11 51 -11q25 0 52 11q17 8 30 23.5t18 33.5zM451 876q-1 -22 -21.5 -40.5t-42.5 -19.5q-9 0 -15.5 5t-12 11.5t-11 14.5t-11.5 14q-11 10 -26.5 18.5t-29.5 17.5t-24 20t-10 26q0 13 7 26.5t18 24.5t24.5 18t26.5 7q15 0 26 -10t20 -24.5
t17.5 -30.5t18.5 -27q6 -6 13.5 -11.5t15 -11.5t12.5 -12.5t5 -15.5z" />
    <glyph glyph-name="Oslash" unicode="&#xd8;" horiz-adv-x="736" 
d="M45 67q-2 11 6 19.5t18.5 16.5t19 16.5t7.5 19.5q-1 8 -11 12.5t-13 12.5q-20 48 -30 101t-10 107t10 107.5t30 101.5q23 55 67.5 99.5t99.5 67.5q62 26 135 26q33 0 65.5 -6t61.5 -20q5 -2 7.5 -10t8.5 -8q7 0 11 7.5t7 17t7 18t12 9.5q20 3 42.5 -4t42.5 -20.5t34 -32
t17 -39.5q2 -11 -6 -20t-18.5 -17.5t-19.5 -17.5t-9 -21q0 -9 12.5 -15t16.5 -14q40 -95 40 -208q0 -54 -10 -107.5t-30 -101.5q-22 -54 -65.5 -97.5t-97.5 -66.5q-62 -26 -134 -26q-67 0 -133 26q-6 2 -9 11t-9 8q-8 -1 -11.5 -8.5t-6 -16.5t-6 -16.5t-11.5 -8.5
q-21 -3 -44 4t-42.5 21t-33.5 33t-18 40zM479 232q11 25 11 60q0 31 -5.5 62.5t-5.5 62.5q0 6 -1.5 2t-4 -12t-5.5 -17.5t-6 -14.5q-15 -27 -44.5 -51.5t-55.5 -48t-40.5 -47.5t0.5 -50q9 -17 35 -17q17 0 35.5 5.5t32.5 11.5q38 17 54 54zM260 515q-6 -14 -8 -28t-2 -28
q0 -29 5 -59.5t5 -59.5q0 -6 2 -2t4.5 12.5t5.5 17.5t6 14q14 25 41.5 48.5t52.5 46t38.5 45.5t0.5 49q-5 10 -16 13t-24 1.5t-26.5 -6l-25.5 -8.5q-22 -8 -36.5 -22t-22.5 -34z" />
    <glyph glyph-name="Otilde" unicode="&#xd5;" horiz-adv-x="738" 
d="M514 -4q-34 -11 -69 -17.5t-71 -6.5q-35 0 -69.5 5t-67.5 17q-36 13 -68 35t-58 51t-44.5 63.5t-27.5 72.5q-8 34 -10 66.5t-1 64.5q1 42 5 82t16 79q11 37 29 73.5t42.5 68t55 57.5t67.5 43q31 14 63.5 19.5t65.5 5.5q34 0 67 -5.5t63 -18.5q37 -16 67 -41.5t53 -57
t40 -67.5t28 -73q11 -36 15.5 -72.5t4.5 -73.5v-71t-5 -71q-6 -39 -22.5 -75t-41.5 -66t-57.5 -52.5t-69.5 -34.5zM480 228q11 37 12.5 74t1.5 73q0 35 -2.5 71t-14.5 71q-11 32 -40 48t-61 15q-30 -1 -56 -17.5t-37 -45.5q-13 -35 -17.5 -73.5t-4.5 -74.5q0 -37 1.5 -71.5
t14.5 -70.5q14 -39 52 -56q24 -11 51 -11q25 0 52 11q17 8 30 23.5t18 33.5zM412 892q15 0 24 13t17 29t17 29t24 13q18 0 34.5 -17t16.5 -35q0 -24 -12 -48t-31 -43.5t-42.5 -31.5t-47.5 -12q-15 0 -24 13t-17.5 29t-17.5 29t-24 13t-24 -13t-17.5 -29t-17.5 -29t-24 -13
q-18 0 -34.5 17t-16.5 35q0 24 12 48t31 43.5t43 31.5t48 12q15 0 24 -13t17.5 -29t17.5 -29t24 -13z" />
    <glyph glyph-name="P" unicode="P" horiz-adv-x="699" 
d="M263 570q-14 -14 -21.5 -35.5t-7.5 -44.5q0 -24 7 -46.5t22 -37.5q11 -11 25 -15t30 -4q26 0 55 5.5t48 13.5q21 9 40 31t19 47q0 29 -16.5 50.5t-42.5 35.5q-21 11 -47 16.5t-50 5.5q-18 0 -33.5 -5t-27.5 -17zM662 388q-11 -26 -31.5 -55t-47 -54.5t-57.5 -42
t-62 -16.5q-18 0 -37 4t-38.5 9t-38 9t-35.5 4q-15 0 -28 -4t-24 -15q-16 -16 -16 -42q0 -17 5 -35t11 -36.5t11 -37t5 -34.5q0 -26 -16 -42q-17 -17 -42 -25.5t-52 -8.5t-52 8.5t-42 25.5q-23 23 -31.5 51.5t-8.5 60.5t6 67t13.5 71t14 71t6.5 67q0 30 -6 62.5t-13 65.5
t-13 65.5t-6 62.5t8.5 56.5t29.5 47.5q32 32 76 45.5t93 13.5q66 0 133 -18t124 -41q54 -22 96.5 -65t64.5 -97q19 -47 19 -99q0 -55 -19 -99z" />
    <glyph glyph-name="Q" unicode="Q" horiz-adv-x="730" 
d="M555 -35q-14 0 -22.5 12t-16 27t-16 27t-21.5 12q-8 0 -15 -9t-15 -21t-17.5 -23t-20.5 -15q-42 -17 -88 -17q-23 0 -45.5 4t-42.5 13q-54 23 -97 65t-65 96q-22 52 -32.5 108.5t-10.5 116.5q0 121 43 225q22 54 65 96.5t97 65.5q32 14 68 20.5t73 6.5q75 0 141 -27
q54 -22 96 -65.5t65 -97.5q12 -28 17 -65.5t5 -79.5q0 -51 -6 -102.5t-16 -93.5q-3 -13 -14.5 -21.5t-24 -15.5t-22.5 -15.5t-10 -21.5q0 -14 12 -22t27 -15.5t27 -16t12 -21.5q0 -23 -11.5 -46t-30.5 -42t-42 -30.5t-46 -11.5zM321 574q-21 -10 -35.5 -26t-23.5 -36
q-8 -18 -11 -38.5t-3 -42.5t1 -44t1 -42q0 -11 -1.5 -20t-2 -16.5t1 -14t6.5 -12.5t11.5 -11t15.5 -5q15 0 27 19.5t23.5 42.5t25 42.5t31.5 19.5q13 0 21.5 -13t16 -29t15.5 -29t22 -13q5 0 10 5.5t7 11.5q8 22 6 46t-2 49t2 51t-6 49q-14 39 -50 56q-13 5 -27 9t-28 4
t-28 -4t-26 -9zM326 157q6 0 15 4.5t9 12.5q0 13 -6 29t-15 29t-21 22t-24 9q-9 0 -15 -4.5t-6 -15.5q0 -9 3 -19t6 -18q7 -16 21 -32.5t33 -16.5z" />
    <glyph glyph-name="R" unicode="R" horiz-adv-x="707" 
d="M261 570q-11 -11 -17 -28.5t-6 -35.5t6 -35t17 -28q14 -14 31.5 -19t37.5 -5q17 0 43.5 4.5t52 14.5t43.5 27t18 41t-17 40.5t-42 27t-52 15.5t-46 5q-20 0 -37.5 -5t-31.5 -19zM546 -31q-32 0 -56 21.5t-44 53t-37.5 69t-36 69t-39 53t-46.5 21.5q-20 0 -35 -11t-15 -34
q0 -17 6 -38.5t13.5 -44t14 -45t6.5 -41.5q0 -27 -15 -42q-17 -17 -42 -25t-52 -8t-51.5 8t-41.5 25q-23 23 -31.5 50t-8.5 59q0 31 6 65t13.5 68.5t14 68.5t6.5 66q0 31 -6 64.5t-13.5 67.5t-13.5 67t-6 64t8.5 58.5t30.5 49.5q33 33 77 47t95 14q66 0 135.5 -16.5
t126.5 -44.5q54 -27 98 -66.5t65 -94.5q14 -39 14 -73q0 -36 -14 -73q-15 -36 -37 -68t-54 -56q-3 -2 -10.5 -6t-17.5 -8t-20.5 -7t-19.5 -3q-14 0 -28.5 -2t-14.5 -10q0 -2 4.5 -5t10 -5.5t11.5 -5t9 -3.5q26 -9 56.5 -24t56.5 -35t43.5 -45t17.5 -55q0 -24 -12 -47.5
t-31 -43t-42.5 -31.5t-47.5 -12z" />
    <glyph glyph-name="S" unicode="S" horiz-adv-x="669" 
d="M146 299q25 0 44 -20.5t39 -45t45.5 -45t65.5 -20.5q16 0 32.5 8.5t16.5 28.5q0 38 -26 66t-65 52t-84.5 46t-84.5 47.5t-65 56.5t-26 74q0 49 26.5 90.5t71 71.5t103 46.5t123.5 16.5q66 0 125 -24q24 -10 49.5 -24.5t46.5 -33t35 -41t14 -47.5q0 -23 -11.5 -46
t-29.5 -41t-41 -29.5t-46 -11.5q-17 0 -28.5 14t-21.5 32t-21 35t-27 23q-26 8 -44 8q-5 0 -14.5 -1.5t-19.5 -5.5t-17.5 -11t-7.5 -17q0 -19 6.5 -33.5t17.5 -29.5q19 -27 51 -49t68.5 -42t74 -40t67.5 -42.5t49 -49.5t19 -62q0 -51 -29 -93.5t-77 -72.5t-109.5 -46.5
t-125.5 -16.5q-36 0 -70.5 6t-66.5 20q-27 11 -56 27.5t-53.5 37.5t-40 46.5t-15.5 54.5q0 23 12 47t31 43t43 31t47 12z" />
    <glyph glyph-name="Scaron" unicode="&#x160;" horiz-adv-x="669" 
d="M280 990q15 0 24 -13t17 -29t17 -29t24 -13t24 13t17.5 29t17.5 29t24 13q18 0 34.5 -17t16.5 -35q0 -17 -16.5 -40t-39 -44t-45 -36t-33.5 -15q-13 0 -35.5 15t-44 36t-37.5 44t-16 40q0 18 16.5 35t34.5 17zM146 299q25 0 44 -20.5t39 -45t45.5 -45t65.5 -20.5
q16 0 32.5 8.5t16.5 28.5q0 38 -26 66t-65 52t-84.5 46t-84.5 47.5t-65 56.5t-26 74q0 49 26.5 90.5t71 71.5t103 46.5t123.5 16.5q66 0 125 -24q24 -10 49.5 -24.5t46.5 -33t35 -41t14 -47.5q0 -23 -11.5 -46t-29.5 -41t-41 -29.5t-46 -11.5q-17 0 -28.5 14t-21.5 32
t-21 35t-27 23q-26 8 -44 8q-5 0 -14.5 -1.5t-19.5 -5.5t-17.5 -11t-7.5 -17q0 -19 6.5 -33.5t17.5 -29.5q19 -27 51 -49t68.5 -42t74 -40t67.5 -42.5t49 -49.5t19 -62q0 -51 -29 -93.5t-77 -72.5t-109.5 -46.5t-125.5 -16.5q-36 0 -70.5 6t-66.5 20q-27 11 -56 27.5
t-53.5 37.5t-40 46.5t-15.5 54.5q0 23 12 47t31 43t43 31t47 12z" />
    <glyph glyph-name="T" unicode="T" horiz-adv-x="670" 
d="M241 0q-21 21 -30 47.5t-9 56.5q0 41 7 84t15 88t15 92.5t7 97.5q0 36 -4 59.5t-31 44.5q-20 14 -50 14q-20 0 -30 -4.5t-17 -9.5t-14.5 -9.5t-22.5 -4.5q-23 0 -37 14q-16 16 -24 39.5t-8 49.5t8 49.5t24 39.5q17 17 38.5 24t45.5 7t50 -5t52.5 -10.5t53 -10.5t50.5 -5
q25 0 52 5t55 11t55 11t52 5t47 -7t40 -25q16 -16 23.5 -39.5t7.5 -49.5t-7.5 -49.5t-23.5 -39.5q-14 -14 -37 -14q-15 0 -22.5 4.5t-14.5 9.5t-17 9.5t-30 4.5q-30 0 -50 -14q-27 -21 -31 -44.5t-4 -59.5q0 -50 7 -97.5t15 -92.5t15 -88t7 -84q0 -30 -9 -56.5t-30 -47.5
q-17 -17 -42.5 -25.5t-52.5 -8.5t-52 8.5t-42 25.5z" />
    <glyph glyph-name="Thorn" unicode="&#xde;" horiz-adv-x="706" 
d="M267 748q7 -7 7 -17q0 -14 -7 -32t-7 -32q0 -11 7 -18q11 -11 24 -15t28 -4q17 0 35.5 4t38 9t38.5 9t37 4q21 0 37 -7q53 -25 96.5 -67t64.5 -96q20 -54 20 -106t-20 -106q-21 -54 -63.5 -96.5t-96.5 -66.5q-14 -7 -37 -7q-18 0 -37.5 4t-39 9.5t-38 9.5t-35.5 4
q-15 0 -28 -4.5t-24 -15.5q-8 -8 -8 -21q0 -16 7.5 -35.5t7.5 -35.5q0 -12 -7 -19q-17 -17 -42 -25t-52 -8t-51.5 8t-41.5 25q-23 23 -32 52t-9 62t6.5 68.5t14 72t14 72t6.5 68.5q0 30 -6 62t-12.5 64t-12.5 64t-6 61t8 55t29 47q17 17 41.5 25t51.5 8t52 -8t42 -25z
M267 461q-14 -14 -21.5 -36t-7.5 -45t7.5 -45t21.5 -36q13 -13 30 -18t36 -5q26 0 52 7t49 16q25 10 38 32.5t13 51.5q0 23 -13.5 45.5t-36.5 32.5q-22 10 -48.5 17t-52.5 7q-43 0 -67 -24z" />
    <glyph glyph-name="U" unicode="U" horiz-adv-x="746" 
d="M258 748q30 -30 42 -68t12 -81q0 -40 -7 -82t-16.5 -84.5t-18.5 -85t-12 -82.5q-2 -26 6 -44.5t23.5 -30t37.5 -17t47 -5.5q35 0 67 13.5t49 48.5q8 19 11.5 39.5t3.5 42.5q0 39 -9 81t-19.5 83.5t-19.5 82t-9 77.5q0 32 9.5 60.5t32.5 51.5q17 17 41.5 25t51.5 8t52 -8
t42 -25t24 -38.5t7 -45.5t-5 -50t-10.5 -52.5t-10.5 -53t-5 -50.5q0 -49 8.5 -99t8.5 -101q0 -25 -3.5 -48.5t-13.5 -46.5q-22 -54 -65 -97.5t-97 -65.5q-66 -27 -142 -27q-37 0 -73 6.5t-68 20.5q-54 23 -96 66t-64 97q-9 23 -12.5 47t-3.5 49q0 51 8 100.5t8 100.5
q0 24 -4.5 50t-10.5 52t-10.5 52t-4.5 50t6.5 45.5t23.5 38.5t42 25.5t52 8.5t52 -8.5t42 -25.5z" />
    <glyph glyph-name="Uacute" unicode="&#xda;" horiz-adv-x="746" 
d="M258 748q30 -30 42 -68t12 -81q0 -40 -7 -82t-16.5 -84.5t-18.5 -85t-12 -82.5q-2 -26 6 -44.5t23.5 -30t37.5 -17t47 -5.5q35 0 67 13.5t49 48.5q8 19 11.5 39.5t3.5 42.5q0 39 -9 81t-19.5 83.5t-19.5 82t-9 77.5q0 32 9.5 60.5t32.5 51.5q17 17 41.5 25t51.5 8t52 -8
t42 -25t24 -38.5t7 -45.5t-5 -50t-10.5 -52.5t-10.5 -53t-5 -50.5q0 -49 8.5 -99t8.5 -101q0 -25 -3.5 -48.5t-13.5 -46.5q-22 -54 -65 -97.5t-97 -65.5q-66 -27 -142 -27q-37 0 -73 6.5t-68 20.5q-54 23 -96 66t-64 97q-9 23 -12.5 47t-3.5 49q0 51 8 100.5t8 100.5
q0 24 -4.5 50t-10.5 52t-10.5 52t-4.5 50t6.5 45.5t23.5 38.5t42 25.5t52 8.5t52 -8.5t42 -25.5zM333 793q-11 0 -22 5.5t-20.5 14t-15.5 19t-6 21.5q0 13 13 21.5t23 18.5q12 13 21 31t19.5 34.5t23 28.5t30.5 12q13 0 26.5 -7t24.5 -18t18 -24.5t7 -26.5q0 -18 -12 -31
t-29 -24.5t-35.5 -21.5t-31.5 -22q-8 -8 -15.5 -19.5t-18.5 -11.5z" />
    <glyph glyph-name="Ucircumflex" unicode="&#xdb;" horiz-adv-x="746" 
d="M258 748q30 -30 42 -68t12 -81q0 -40 -7 -82t-16.5 -84.5t-18.5 -85t-12 -82.5q-2 -26 6 -44.5t23.5 -30t37.5 -17t47 -5.5q35 0 67 13.5t49 48.5q8 19 11.5 39.5t3.5 42.5q0 39 -9 81t-19.5 83.5t-19.5 82t-9 77.5q0 32 9.5 60.5t32.5 51.5q17 17 41.5 25t51.5 8t52 -8
t42 -25t24 -38.5t7 -45.5t-5 -50t-10.5 -52.5t-10.5 -53t-5 -50.5q0 -49 8.5 -99t8.5 -101q0 -25 -3.5 -48.5t-13.5 -46.5q-22 -54 -65 -97.5t-97 -65.5q-66 -27 -142 -27q-37 0 -73 6.5t-68 20.5q-54 23 -96 66t-64 97q-9 23 -12.5 47t-3.5 49q0 51 8 100.5t8 100.5
q0 24 -4.5 50t-10.5 52t-10.5 52t-4.5 50t6.5 45.5t23.5 38.5t42 25.5t52 8.5t52 -8.5t42 -25.5zM454 790q-15 0 -24 13t-17.5 29t-17.5 29t-24 13t-24 -13t-17 -29t-17 -29t-24 -13q-18 0 -34.5 17t-16.5 35t16.5 41t38 44t44 35.5t34.5 14.5t34.5 -14.5t44.5 -35.5
t38.5 -44t16.5 -41t-16.5 -35t-34.5 -17z" />
    <glyph glyph-name="Udieresis" unicode="&#xdc;" horiz-adv-x="746" 
d="M258 748q30 -30 42 -68t12 -81q0 -40 -7 -82t-16.5 -84.5t-18.5 -85t-12 -82.5q-2 -26 6 -44.5t23.5 -30t37.5 -17t47 -5.5q35 0 67 13.5t49 48.5q8 19 11.5 39.5t3.5 42.5q0 39 -9 81t-19.5 83.5t-19.5 82t-9 77.5q0 32 9.5 60.5t32.5 51.5q17 17 41.5 25t51.5 8t52 -8
t42 -25t24 -38.5t7 -45.5t-5 -50t-10.5 -52.5t-10.5 -53t-5 -50.5q0 -49 8.5 -99t8.5 -101q0 -25 -3.5 -48.5t-13.5 -46.5q-22 -54 -65 -97.5t-97 -65.5q-66 -27 -142 -27q-37 0 -73 6.5t-68 20.5q-54 23 -96 66t-64 97q-9 23 -12.5 47t-3.5 49q0 51 8 100.5t8 100.5
q0 24 -4.5 50t-10.5 52t-10.5 52t-4.5 50t6.5 45.5t23.5 38.5t42 25.5t52 8.5t52 -8.5t42 -25.5zM511 822q-9 -11 -23 -16t-29 -5t-29 5t-23 16q-7 7 -7 21q0 6 0.5 12.5t0.5 12.5q0 17 -5 28t-5 22t10 21q21 21 58 21t58 -21q10 -10 10 -21t-5 -22.5t-5 -28.5q0 -6 0.5 -12
t0.5 -12q0 -14 -7 -21zM337 822q-9 -11 -23 -16t-29 -5t-29 5t-23 16q-7 7 -7 20q0 6 0.5 12.5t0.5 12.5q0 16 -5 28t-5 23t10 21q21 21 58 21t58 -21q10 -10 10 -21t-5 -22.5t-5 -28.5q0 -6 0.5 -12t0.5 -12q0 -14 -7 -21z" />
    <glyph glyph-name="Ugrave" unicode="&#xd9;" horiz-adv-x="746" 
d="M258 748q30 -30 42 -68t12 -81q0 -40 -7 -82t-16.5 -84.5t-18.5 -85t-12 -82.5q-2 -26 6 -44.5t23.5 -30t37.5 -17t47 -5.5q35 0 67 13.5t49 48.5q8 19 11.5 39.5t3.5 42.5q0 39 -9 81t-19.5 83.5t-19.5 82t-9 77.5q0 32 9.5 60.5t32.5 51.5q17 17 41.5 25t51.5 8t52 -8
t42 -25t24 -38.5t7 -45.5t-5 -50t-10.5 -52.5t-10.5 -53t-5 -50.5q0 -49 8.5 -99t8.5 -101q0 -25 -3.5 -48.5t-13.5 -46.5q-22 -54 -65 -97.5t-97 -65.5q-66 -27 -142 -27q-37 0 -73 6.5t-68 20.5q-54 23 -96 66t-64 97q-9 23 -12.5 47t-3.5 49q0 51 8 100.5t8 100.5
q0 24 -4.5 50t-10.5 52t-10.5 52t-4.5 50t6.5 45.5t23.5 38.5t42 25.5t52 8.5t52 -8.5t42 -25.5zM474 850q-1 -22 -21.5 -40.5t-42.5 -19.5q-9 0 -15.5 5t-12 11.5t-11 14.5t-11.5 14q-11 10 -26.5 18.5t-29.5 17.5t-24 20t-10 26q0 13 7 26.5t18 24.5t24.5 18t26.5 7
q15 0 26 -10t20 -24.5t17.5 -30.5t18.5 -27q6 -6 13.5 -11.5t15 -11.5t12.5 -12.5t5 -15.5z" />
    <glyph glyph-name="V" unicode="V" horiz-adv-x="785" 
d="M418 353q-1 15 1 27t7 27q8 23 14.5 52t12.5 58q7 33 19 79.5t33 89t52.5 72.5t77.5 30q21 0 42.5 -6.5t40 -17.5t32.5 -26.5t21 -33.5q5 -13 7 -25.5t2 -21.5q0 -28 -10 -55.5t-26.5 -55t-37.5 -55t-43 -54.5q-26 -32 -49.5 -64t-41.5 -67q-17 -32 -26 -70t-19 -76
q-9 -38 -18.5 -75t-24 -65.5t-35.5 -46t-54 -17.5q-31 0 -52.5 18t-36.5 47t-25 65.5t-18 73.5t-18 75t-26 69q-17 34 -43 68t-50 65l-42 54t-37 54t-26 54.5t-10 55.5q0 22 9 48q7 18 21.5 33t33 26.5t39.5 18t41 6.5q45 0 75 -27t50.5 -67t33 -86.5t21.5 -85.5
q8 -35 17 -69t15 -62q3 -14 3 -32q1 -21 4 -37t21 -16q17 0 20.5 14t2.5 34z" />
    <glyph glyph-name="W" unicode="W" horiz-adv-x="1088" 
d="M695 -43q-29 0 -46 21.5t-27.5 53.5t-17 70t-14 70t-19 53.5t-31.5 21.5t-30.5 -21.5t-17.5 -53.5t-13 -70t-16 -70t-27 -53.5t-45 -21.5q-36 0 -59.5 18.5t-39.5 49t-26 70t-19 80.5t-19.5 81t-26.5 72q-21 41 -54 81.5t-63.5 81t-53 81.5t-22.5 83q0 28 12 52
t32.5 41.5t47 27.5t55.5 10q39 0 72.5 -22t50.5 -60q5 -11 12.5 -44t16.5 -77t20 -92t23 -88t24.5 -66t25.5 -26q17 0 17 22q0 9 -4 20t-4 22q0 9 3 17q12 33 21 75t19 86t23 86t33 75t49 53t71 20q21 0 46 -7.5t46.5 -21.5t36.5 -34.5t15 -45.5q0 -34 -20.5 -62.5
t-45 -57.5t-45 -61t-20.5 -72q0 -10 4 -29.5t11 -38.5t17 -33.5t23 -14.5q14 0 18.5 7.5t4.5 18.5t-2.5 21t-2.5 21t4.5 21t7.5 20q10 34 19 75t20 82t24.5 79t33 67.5t46.5 47.5t63 18q26 0 52.5 -9.5t47.5 -27t34.5 -41.5t13.5 -53q0 -42 -22.5 -82.5t-53.5 -81
t-63.5 -80.5t-52.5 -80q-16 -32 -26.5 -72.5t-20 -82t-20 -81.5t-26.5 -70.5t-40 -49.5t-60 -19z" />
    <glyph glyph-name="X" unicode="X" horiz-adv-x="676" 
d="M330 562q6 0 9.5 8t7 21t7 30t9.5 36q7 22 17 44.5t25 40.5t34.5 29t45.5 11q23 0 49 -9.5t47.5 -27t36 -40.5t14.5 -50q0 -20 -8 -37t-20.5 -33.5t-29 -31.5t-33.5 -30q-34 -29 -61.5 -60t-27.5 -66q0 -21 9.5 -40.5t24.5 -37.5t34 -35.5t39 -34.5q19 -17 38 -34.5
t34 -36t24.5 -39t9.5 -42.5q0 -26 -13 -49.5t-34 -41t-47.5 -28t-53.5 -10.5t-46 13t-32 34.5t-22 48t-16 53.5q-6 21 -12 41.5t-14 36.5t-18 26t-24 10q-8 0 -10 -11.5t-4 -18.5q-8 -30 -22.5 -69t-36 -74.5t-49.5 -59.5t-62 -24q-24 0 -49.5 9.5t-47.5 26.5t-36 40.5
t-14 50.5q0 22 9 42t23 38t32.5 34.5t37.5 33.5q18 16 36 33t32 35t22.5 36.5t8.5 39.5q0 18 -8 35t-21 33t-29 31l-32 30t-32 30.5t-28.5 32t-20.5 34t-8 36.5q0 25 13 48t34 40.5t47 28t52 10.5q24 0 40 -11.5t27 -29.5t18 -40.5t13 -44.5q5 -18 10.5 -35t12.5 -30
t16.5 -21t22.5 -8z" />
    <glyph glyph-name="Y" unicode="Y" horiz-adv-x="743" 
d="M365 -33q-55 0 -92.5 31t-37.5 91q0 24 4 48.5t9 49.5t5 45v41q0 52 -34.5 95t-83.5 84q-24 21 -47 43t-40.5 46t-28.5 49.5t-11 52.5q0 26 13 51.5t34.5 45t48.5 31.5t55 12q30 0 52.5 -16.5t36.5 -46.5q12 -25 19 -53.5t13 -56.5q6 -29 12.5 -57t16 -50.5t23 -36.5
t33.5 -14q21 0 35.5 14t25 36t18 49.5t14.5 55.5q7 26 14 54t19 52q14 28 36.5 50t57.5 22q27 0 53.5 -12t48 -31.5t35 -45.5t13.5 -54t-11.5 -53.5t-30.5 -49.5t-43 -46.5t-49 -43.5t-47.5 -41.5t-40 -42.5t-27.5 -45.5t-10 -49.5v-41.5t5 -43.5q5 -25 10 -49t5 -48
q0 -57 -37 -89t-94 -32z" />
    <glyph glyph-name="Yacute" unicode="&#xdd;" horiz-adv-x="743" 
d="M365 -33q-55 0 -92.5 31t-37.5 91q0 24 4 48.5t9 49.5t5 45v41q0 52 -34.5 95t-83.5 84q-24 21 -47 43t-40.5 46t-28.5 49.5t-11 52.5q0 26 13 51.5t34.5 45t48.5 31.5t55 12q30 0 52.5 -16.5t36.5 -46.5q12 -25 19 -53.5t13 -56.5q6 -29 12.5 -57t16 -50.5t23 -36.5
t33.5 -14q21 0 35.5 14t25 36t18 49.5t14.5 55.5q7 26 14 54t19 52q14 28 36.5 50t57.5 22q27 0 53.5 -12t48 -31.5t35 -45.5t13.5 -54t-11.5 -53.5t-30.5 -49.5t-43 -46.5t-49 -43.5t-47.5 -41.5t-40 -42.5t-27.5 -45.5t-10 -49.5v-41.5t5 -43.5q5 -25 10 -49t5 -48
q0 -57 -37 -89t-94 -32zM331 790q-11 0 -22 5.5t-20.5 14t-15.5 19t-6 21.5q0 13 13 21.5t23 18.5q12 13 21 31t19.5 34.5t23 28.5t30.5 12q13 0 26.5 -7t24.5 -18t18 -24.5t7 -26.5q0 -18 -12 -31t-29 -24.5t-35.5 -21.5t-31.5 -22q-8 -8 -15.5 -19.5t-18.5 -11.5z" />
    <glyph glyph-name="Ydieresis" unicode="&#x178;" horiz-adv-x="743" 
d="M365 -33q-55 0 -92.5 31t-37.5 91q0 24 4 48.5t9 49.5t5 45v41q0 52 -34.5 95t-83.5 84q-24 21 -47 43t-40.5 46t-28.5 49.5t-11 52.5q0 26 13 51.5t34.5 45t48.5 31.5t55 12q30 0 52.5 -16.5t36.5 -46.5q12 -25 19 -53.5t13 -56.5q6 -29 12.5 -57t16 -50.5t23 -36.5
t33.5 -14q21 0 35.5 14t25 36t18 49.5t14.5 55.5q7 26 14 54t19 52q14 28 36.5 50t57.5 22q27 0 53.5 -12t48 -31.5t35 -45.5t13.5 -54t-11.5 -53.5t-30.5 -49.5t-43 -46.5t-49 -43.5t-47.5 -41.5t-40 -42.5t-27.5 -45.5t-10 -49.5v-41.5t5 -43.5q5 -25 10 -49t5 -48
q0 -57 -37 -89t-94 -32zM509 823q-9 -11 -23 -16t-29 -5t-29 5t-23 16q-7 7 -7 21q0 6 0.5 12.5t0.5 12.5q0 17 -5 28t-5 22t10 21q21 21 58 21t58 -21q10 -10 10 -21t-5 -22.5t-5 -28.5q0 -6 0.5 -12t0.5 -12q0 -14 -7 -21zM335 823q-9 -11 -23 -16t-29 -5t-29 5t-23 16
q-7 7 -7 20q0 6 0.5 12.5t0.5 12.5q0 16 -5 28t-5 23t10 21q21 21 58 21t58 -21q10 -10 10 -21t-5 -22.5t-5 -28.5q0 -6 0.5 -12t0.5 -12q0 -14 -7 -21z" />
    <glyph glyph-name="Z" unicode="Z" horiz-adv-x="745" 
d="M21 -1q-13 25 -13 49q0 38 17.5 80.5t47.5 84.5t70.5 81t87.5 71q16 11 45 31.5t57.5 46t49 53t20.5 52.5q0 16 -4.5 24.5t-12.5 12.5t-19 4.5t-24 0.5q-23 0 -50 -8t-56 -18t-57 -18t-52 -8q-17 0 -30.5 4.5t-24.5 15.5q-15 15 -23 38t-8 49q0 25 8 48t23 39
q32 33 76.5 43t96.5 10q45 0 87.5 -4t91.5 -4q48 0 91.5 5.5t81.5 5.5q24 0 47.5 -6t42.5 -18.5t30.5 -32.5t11.5 -48q0 -45 -26 -90t-69.5 -90.5t-100.5 -91.5t-118 -92q-14 -11 -32 -29.5t-33.5 -39.5t-26 -42.5t-10.5 -36.5q0 -12 14 -18t31 -8.5t33 -2.5h21
q24 0 52.5 8.5t58.5 18t60 18t56 8.5q36 0 59 -21q16 -16 23.5 -39t7.5 -49q0 -25 -7.5 -48t-23.5 -39q-25 -25 -58 -34t-71 -9q-30 0 -62 3.5t-64.5 8t-65 8t-65.5 3.5q-29 0 -57.5 -4t-54.5 -9.5t-50 -9.5t-45 -4q-27 0 -48.5 10t-36.5 37z" />
    <glyph glyph-name="Zcaron" unicode="&#x17d;" horiz-adv-x="745" 
d="M277 977q15 0 24 -13t17 -29t17 -29t24 -13t24 13t17.5 29t17.5 29t24 13q18 0 34.5 -17t16.5 -35q0 -17 -16.5 -40t-39 -44t-45 -36t-33.5 -15q-13 0 -35.5 15t-44 36t-37.5 44t-16 40q0 18 16.5 35t34.5 17zM21 -1q-13 25 -13 49q0 38 17.5 80.5t47.5 84.5t70.5 81
t87.5 71q16 11 45 31.5t57.5 46t49 53t20.5 52.5q0 16 -4.5 24.5t-12.5 12.5t-19 4.5t-24 0.5q-23 0 -50 -8t-56 -18t-57 -18t-52 -8q-17 0 -30.5 4.5t-24.5 15.5q-15 15 -23 38t-8 49q0 25 8 48t23 39q32 33 76.5 43t96.5 10q45 0 87.5 -4t91.5 -4q48 0 91.5 5.5t81.5 5.5
q24 0 47.5 -6t42.5 -18.5t30.5 -32.5t11.5 -48q0 -45 -26 -90t-69.5 -90.5t-100.5 -91.5t-118 -92q-14 -11 -32 -29.5t-33.5 -39.5t-26 -42.5t-10.5 -36.5q0 -12 14 -18t31 -8.5t33 -2.5h21q24 0 52.5 8.5t58.5 18t60 18t56 8.5q36 0 59 -21q16 -16 23.5 -39t7.5 -49
q0 -25 -7.5 -48t-23.5 -39q-25 -25 -58 -34t-71 -9q-30 0 -62 3.5t-64.5 8t-65 8t-65.5 3.5q-29 0 -57.5 -4t-54.5 -9.5t-50 -9.5t-45 -4q-27 0 -48.5 10t-36.5 37z" />
    <glyph glyph-name="a" unicode="a" horiz-adv-x="722" 
d="M276 152q12 -5 27.5 -6.5t30.5 -1.5q10 0 30.5 1.5t40.5 7t35.5 16t15.5 27.5q0 10 -6 16.5t-15 10.5t-19 6t-18 2q-14 0 -30.5 -2.5t-32 -6t-30 -9t-24.5 -11.5q-9 -5 -15 -12.5t-6 -16.5q0 -14 16 -21zM322 -29q-47 0 -99.5 7.5t-96.5 28.5t-72.5 59t-28.5 100
q0 46 24.5 79.5t63.5 58.5q14 9 28 15.5t25 11.5t18 10t7 10q0 20 -17 32.5t-37.5 23.5t-37.5 23.5t-17 32.5q0 15 8.5 28.5t21.5 25t28.5 20t29.5 14.5q38 16 79.5 23.5t84.5 7.5q89 0 163 -31q24 -10 49.5 -24.5t46.5 -33t34.5 -41t13.5 -47.5q0 -38 -6.5 -77.5
t-6.5 -77.5q0 -19 2.5 -38t10.5 -36q6 -12 18.5 -20t25.5 -15t23 -15.5t10 -21.5q0 -22 -11 -44t-29 -39.5t-40.5 -28.5t-44.5 -11q-11 0 -17.5 9.5t-12.5 21.5t-12.5 21.5t-17.5 9.5q-8 0 -16 -11q-10 -13 -23 -23q-16 -12 -38 -19.5t-46 -11.5t-47 -5.5t-41 -1.5zM256 394
q-11 -5 -24.5 -14.5t-13.5 -22.5q0 -7 8 -9.5t20 -2.5q40 0 61.5 -2t35.5 -4.5t27 -4.5t36 -2t42 3t19 19q0 14 -13.5 24.5t-26.5 15.5q-35 16 -84 16q-52 0 -87 -16z" />
    <glyph glyph-name="aacute" unicode="&#xe1;" horiz-adv-x="722" 
d="M276 152q12 -5 27.5 -6.5t30.5 -1.5q10 0 30.5 1.5t40.5 7t35.5 16t15.5 27.5q0 10 -6 16.5t-15 10.5t-19 6t-18 2q-14 0 -30.5 -2.5t-32 -6t-30 -9t-24.5 -11.5q-9 -5 -15 -12.5t-6 -16.5q0 -14 16 -21zM322 -29q-47 0 -99.5 7.5t-96.5 28.5t-72.5 59t-28.5 100
q0 46 24.5 79.5t63.5 58.5q14 9 28 15.5t25 11.5t18 10t7 10q0 20 -17 32.5t-37.5 23.5t-37.5 23.5t-17 32.5q0 15 8.5 28.5t21.5 25t28.5 20t29.5 14.5q38 16 79.5 23.5t84.5 7.5q89 0 163 -31q24 -10 49.5 -24.5t46.5 -33t34.5 -41t13.5 -47.5q0 -38 -6.5 -77.5
t-6.5 -77.5q0 -19 2.5 -38t10.5 -36q6 -12 18.5 -20t25.5 -15t23 -15.5t10 -21.5q0 -22 -11 -44t-29 -39.5t-40.5 -28.5t-44.5 -11q-11 0 -17.5 9.5t-12.5 21.5t-12.5 21.5t-17.5 9.5q-8 0 -16 -11q-10 -13 -23 -23q-16 -12 -38 -19.5t-46 -11.5t-47 -5.5t-41 -1.5zM256 394
q-11 -5 -24.5 -14.5t-13.5 -22.5q0 -7 8 -9.5t20 -2.5q40 0 61.5 -2t35.5 -4.5t27 -4.5t36 -2t42 3t19 19q0 14 -13.5 24.5t-26.5 15.5q-35 16 -84 16q-52 0 -87 -16zM308 597q-11 0 -22 5.5t-20.5 14t-15.5 19t-6 21.5q0 13 13 21.5t23 18.5q12 13 21 31t19.5 34.5t23 28.5
t30.5 12q13 0 26.5 -7t24.5 -18t18 -24.5t7 -26.5q0 -18 -12 -31t-29 -24.5t-35.5 -21.5t-31.5 -22q-8 -8 -15.5 -19.5t-18.5 -11.5z" />
    <glyph glyph-name="acircumflex" unicode="&#xe2;" horiz-adv-x="722" 
d="M276 152q12 -5 27.5 -6.5t30.5 -1.5q10 0 30.5 1.5t40.5 7t35.5 16t15.5 27.5q0 10 -6 16.5t-15 10.5t-19 6t-18 2q-14 0 -30.5 -2.5t-32 -6t-30 -9t-24.5 -11.5q-9 -5 -15 -12.5t-6 -16.5q0 -14 16 -21zM322 -29q-47 0 -99.5 7.5t-96.5 28.5t-72.5 59t-28.5 100
q0 46 24.5 79.5t63.5 58.5q14 9 28 15.5t25 11.5t18 10t7 10q0 20 -17 32.5t-37.5 23.5t-37.5 23.5t-17 32.5q0 15 8.5 28.5t21.5 25t28.5 20t29.5 14.5q38 16 79.5 23.5t84.5 7.5q89 0 163 -31q24 -10 49.5 -24.5t46.5 -33t34.5 -41t13.5 -47.5q0 -38 -6.5 -77.5
t-6.5 -77.5q0 -19 2.5 -38t10.5 -36q6 -12 18.5 -20t25.5 -15t23 -15.5t10 -21.5q0 -22 -11 -44t-29 -39.5t-40.5 -28.5t-44.5 -11q-11 0 -17.5 9.5t-12.5 21.5t-12.5 21.5t-17.5 9.5q-8 0 -16 -11q-10 -13 -23 -23q-16 -12 -38 -19.5t-46 -11.5t-47 -5.5t-41 -1.5zM256 394
q-11 -5 -24.5 -14.5t-13.5 -22.5q0 -7 8 -9.5t20 -2.5q40 0 61.5 -2t35.5 -4.5t27 -4.5t36 -2t42 3t19 19q0 14 -13.5 24.5t-26.5 15.5q-35 16 -84 16q-52 0 -87 -16zM434 594q-15 0 -24 13t-17.5 29t-17.5 29t-24 13t-24 -13t-17 -29t-17 -29t-24 -13q-18 0 -34.5 17
t-16.5 35t16.5 41t38 44t44 35.5t34.5 14.5t34.5 -14.5t44.5 -35.5t38.5 -44t16.5 -41t-16.5 -35t-34.5 -17z" />
    <glyph glyph-name="acute" unicode="&#xb4;" horiz-adv-x="0" 
d="M202 594q-11 0 -22 5.5t-20.5 14t-15.5 19t-6 21.5q0 13 13 21.5t23 18.5q12 13 21 31t19.5 34.5t23 28.5t30.5 12q13 0 26.5 -7t24.5 -18t18 -24.5t7 -26.5q0 -18 -12 -31t-29 -24.5t-35.5 -21.5t-31.5 -22q-8 -8 -15.5 -19.5t-18.5 -11.5z" />
    <glyph glyph-name="adieresis" unicode="&#xe4;" horiz-adv-x="722" 
d="M276 152q12 -5 27.5 -6.5t30.5 -1.5q10 0 30.5 1.5t40.5 7t35.5 16t15.5 27.5q0 10 -6 16.5t-15 10.5t-19 6t-18 2q-14 0 -30.5 -2.5t-32 -6t-30 -9t-24.5 -11.5q-9 -5 -15 -12.5t-6 -16.5q0 -14 16 -21zM322 -29q-47 0 -99.5 7.5t-96.5 28.5t-72.5 59t-28.5 100
q0 46 24.5 79.5t63.5 58.5q14 9 28 15.5t25 11.5t18 10t7 10q0 20 -17 32.5t-37.5 23.5t-37.5 23.5t-17 32.5q0 15 8.5 28.5t21.5 25t28.5 20t29.5 14.5q38 16 79.5 23.5t84.5 7.5q89 0 163 -31q24 -10 49.5 -24.5t46.5 -33t34.5 -41t13.5 -47.5q0 -38 -6.5 -77.5
t-6.5 -77.5q0 -19 2.5 -38t10.5 -36q6 -12 18.5 -20t25.5 -15t23 -15.5t10 -21.5q0 -22 -11 -44t-29 -39.5t-40.5 -28.5t-44.5 -11q-11 0 -17.5 9.5t-12.5 21.5t-12.5 21.5t-17.5 9.5q-8 0 -16 -11q-10 -13 -23 -23q-16 -12 -38 -19.5t-46 -11.5t-47 -5.5t-41 -1.5zM256 394
q-11 -5 -24.5 -14.5t-13.5 -22.5q0 -7 8 -9.5t20 -2.5q40 0 61.5 -2t35.5 -4.5t27 -4.5t36 -2t42 3t19 19q0 14 -13.5 24.5t-26.5 15.5q-35 16 -84 16q-52 0 -87 -16zM483 627q-9 -11 -23 -16t-29 -5t-29 5t-23 16q-7 7 -7 21q0 6 0.5 12.5t0.5 12.5q0 17 -5 28t-5 22t10 21
q21 21 58 21t58 -21q10 -10 10 -21t-5 -22.5t-5 -28.5q0 -6 0.5 -12t0.5 -12q0 -14 -7 -21zM309 627q-9 -11 -23 -16t-29 -5t-29 5t-23 16q-7 7 -7 20q0 6 0.5 12.5t0.5 12.5q0 16 -5 28t-5 23t10 21q21 21 58 21t58 -21q10 -10 10 -21t-5 -22.5t-5 -28.5q0 -6 0.5 -12
t0.5 -12q0 -14 -7 -21z" />
    <glyph glyph-name="ae" unicode="&#xe6;" horiz-adv-x="1004" 
d="M280 394q-7 -3 -17.5 -9t-19 -12t-12 -11.5t4.5 -7.5q26 -8 59 -11.5t66 -3.5q22 0 42 1.5t35 3.5t24 4.5t9 5.5q0 16 -8 26.5t-21.5 17t-31 9t-35.5 2.5q-29 0 -56.5 -5t-38.5 -10zM280 158q23 -10 54 -10t51 10q7 3 15.5 7.5t15 10.5t10 12.5t0.5 13.5q-6 14 -19 19.5
t-30 5.5q-24 0 -51 -8.5t-47 -16.5q-7 -3 -14.5 -8.5t-7.5 -13.5t7.5 -13.5t15.5 -8.5zM623 395q-6 -2 -16 -8.5t-17.5 -13t-10.5 -12.5t4 -7q17 -3 35 -5t35 -2q19 0 35.5 2t29.5 5q8 2 16 8t8 14q0 6 -5.5 11t-11.5 7q-21 10 -53 10q-25 0 -49 -9zM188 559q28 11 58 15
t62 4q36 0 72 -6.5t68 -20.5q10 -4 16.5 -14t12.5 -20t12.5 -18t17.5 -8q10 0 17.5 8t13.5 18t12.5 20t16.5 14q27 11 57 16.5t61 5.5q67 0 118 -22q29 -12 61 -29.5t58.5 -40.5t44 -50.5t17.5 -59.5q0 -30 -16 -55.5t-41 -46.5t-55 -38t-57 -29q-7 -3 -15 -4t-16 -1
q-19 0 -39.5 5t-41 10.5t-40.5 10.5t-36 5q-15 0 -26.5 -6t-17.5 -20q-3 -8 0.5 -14.5t10 -12t15 -10t15.5 -7.5q24 -8 40 -8q19 0 40 4.5t41.5 10t40.5 10t38 4.5q34 0 55 -21q14 -14 21 -35t7 -44t-7 -44t-21 -35q-20 -20 -44 -27.5t-52 -7.5t-58 5.5t-60.5 12t-60.5 12
t-58 5.5q-9 0 -15.5 8t-11.5 18t-11.5 18t-15.5 8t-14.5 -7t-10.5 -16t-10.5 -17.5t-13.5 -11.5q-28 -11 -57 -17.5t-61 -6.5q-66 0 -121 24q-29 12 -61 30t-58 40.5t-43 50t-17 59.5q0 45 27 78.5t72 57.5q16 9 31.5 15t28 11.5t20.5 10t8 9.5q0 19 -19 31.5t-42.5 23.5
t-42.5 23t-19 32q0 15 9.5 28.5t24.5 24.5t32.5 19.5t32.5 14.5z" />
    <glyph glyph-name="agrave" unicode="&#xe0;" horiz-adv-x="722" 
d="M276 152q12 -5 27.5 -6.5t30.5 -1.5q10 0 30.5 1.5t40.5 7t35.5 16t15.5 27.5q0 10 -6 16.5t-15 10.5t-19 6t-18 2q-14 0 -30.5 -2.5t-32 -6t-30 -9t-24.5 -11.5q-9 -5 -15 -12.5t-6 -16.5q0 -14 16 -21zM322 -29q-47 0 -99.5 7.5t-96.5 28.5t-72.5 59t-28.5 100
q0 46 24.5 79.5t63.5 58.5q14 9 28 15.5t25 11.5t18 10t7 10q0 20 -17 32.5t-37.5 23.5t-37.5 23.5t-17 32.5q0 15 8.5 28.5t21.5 25t28.5 20t29.5 14.5q38 16 79.5 23.5t84.5 7.5q89 0 163 -31q24 -10 49.5 -24.5t46.5 -33t34.5 -41t13.5 -47.5q0 -38 -6.5 -77.5
t-6.5 -77.5q0 -19 2.5 -38t10.5 -36q6 -12 18.5 -20t25.5 -15t23 -15.5t10 -21.5q0 -22 -11 -44t-29 -39.5t-40.5 -28.5t-44.5 -11q-11 0 -17.5 9.5t-12.5 21.5t-12.5 21.5t-17.5 9.5q-8 0 -16 -11q-10 -13 -23 -23q-16 -12 -38 -19.5t-46 -11.5t-47 -5.5t-41 -1.5zM256 394
q-11 -5 -24.5 -14.5t-13.5 -22.5q0 -7 8 -9.5t20 -2.5q40 0 61.5 -2t35.5 -4.5t27 -4.5t36 -2t42 3t19 19q0 14 -13.5 24.5t-26.5 15.5q-35 16 -84 16q-52 0 -87 -16zM426 654q-1 -22 -21.5 -40.5t-42.5 -19.5q-9 0 -15.5 5t-12 11.5t-11 14.5t-11.5 14q-11 10 -26.5 18.5
t-29.5 17.5t-24 20t-10 26q0 13 7 26.5t18 24.5t24.5 18t26.5 7q15 0 26 -10t20 -24.5t17.5 -30.5t18.5 -27q6 -6 13.5 -11.5t15 -11.5t12.5 -12.5t5 -15.5z" />
    <glyph glyph-name="ampersand" unicode="&#x26;" horiz-adv-x="688" 
d="M307 180q10 5 19 13t9 19q0 10 -5.5 21t-14 19t-19.5 13.5t-21 5.5q-12 0 -19.5 -10.5t-12.5 -21.5q-6 -14 -8.5 -31t8.5 -28t30.5 -9t33.5 9zM543 7q-15 0 -24 13t-17 29t-17 29t-24 13t-24.5 -10t-20 -24.5t-25 -32t-39 -32t-62 -24.5t-94.5 -10q-34 0 -63.5 9
t-52.5 32q-24 24 -34 56t-10 68q0 48 9 83t22 59.5t29 41.5t29 30t22 24t9 25q0 9 -7.5 16t-17.5 13t-19 12.5t-13 15.5q-8 22 -8 48q0 41 7.5 88t27.5 86.5t55 66t90 26.5q43 0 87.5 -20.5t80 -53.5t58 -75.5t22.5 -86.5q0 -23 -20 -37.5t-43.5 -27.5t-43.5 -28t-20 -37
q0 -10 5.5 -20.5t13.5 -18.5t18.5 -13.5t20.5 -5.5q14 0 23 12.5t17 28t17 28t23 12.5q21 0 43 -11t40 -28t29.5 -39t11.5 -43q0 -14 -12.5 -23.5t-27 -18t-27 -18t-12.5 -23.5q0 -15 13.5 -24t29.5 -17t29.5 -17t13.5 -24q0 -21 -10.5 -43t-27.5 -39.5t-38 -28.5t-42 -11z
M239 521q0 -12 10 -22t22 -10t22 10t10 22t-10 22t-22 10t-22 -10t-10 -22z" />
    <glyph glyph-name="aring" unicode="&#xe5;" horiz-adv-x="722" 
d="M344 774q-16 0 -27.5 -13t-11.5 -30q0 -16 11.5 -27t31.5 -11q14 0 27 10t13 27q0 16 -12 30t-32 14zM345 599q-26 0 -50 10.5t-42.5 28.5t-29.5 42.5t-11 51.5q0 26 10 50t28.5 42.5t43.5 29.5t55 11q26 0 49.5 -10.5t41.5 -29t28.5 -42.5t10.5 -51q0 -26 -10.5 -50
t-29 -42.5t-43 -29.5t-51.5 -11zM276 152q12 -5 27.5 -6.5t30.5 -1.5q10 0 30.5 1.5t40.5 7t35.5 16t15.5 27.5q0 10 -6 16.5t-15 10.5t-19 6t-18 2q-14 0 -30.5 -2.5t-32 -6t-30 -9t-24.5 -11.5q-9 -5 -15 -12.5t-6 -16.5q0 -14 16 -21zM322 -29q-47 0 -99.5 7.5
t-96.5 28.5t-72.5 59t-28.5 100q0 46 24.5 79.5t63.5 58.5q14 9 28 15.5t25 11.5t18 10t7 10q0 20 -17 32.5t-37.5 23.5t-37.5 23.5t-17 32.5q0 15 8.5 28.5t21.5 25t28.5 20t29.5 14.5q38 16 79.5 23.5t84.5 7.5q89 0 163 -31q24 -10 49.5 -24.5t46.5 -33t34.5 -41
t13.5 -47.5q0 -38 -6.5 -77.5t-6.5 -77.5q0 -19 2.5 -38t10.5 -36q6 -12 18.5 -20t25.5 -15t23 -15.5t10 -21.5q0 -22 -11 -44t-29 -39.5t-40.5 -28.5t-44.5 -11q-11 0 -17.5 9.5t-12.5 21.5t-12.5 21.5t-17.5 9.5q-8 0 -16 -11q-10 -13 -23 -23q-16 -12 -38 -19.5
t-46 -11.5t-47 -5.5t-41 -1.5zM256 394q-11 -5 -24.5 -14.5t-13.5 -22.5q0 -7 8 -9.5t20 -2.5q40 0 61.5 -2t35.5 -4.5t27 -4.5t36 -2t42 3t19 19q0 14 -13.5 24.5t-26.5 15.5q-35 16 -84 16q-52 0 -87 -16z" />
    <glyph glyph-name="asciicircum" unicode="^" horiz-adv-x="757" 
d="M704 549q0 -20 -10 -40t-26.5 -36t-36.5 -26t-40 -10q-25 0 -43.5 16t-34 40t-29 52t-29 52t-34 40t-43.5 16q-26 0 -44.5 -16t-34 -40t-29 -51.5t-29 -51.5t-34.5 -40t-44 -16q-20 0 -39.5 10t-35 26t-25.5 35.5t-10 39.5q0 57 29.5 115t76 104t104.5 75t115 29
t115.5 -29t105 -75t76 -104t29.5 -115z" />
    <glyph glyph-name="asciitilde" unicode="~" horiz-adv-x="630" 
d="M380 310q23 0 38 21t28.5 45.5t28.5 45.5t38 21q15 0 29.5 -7.5t26 -19.5t19 -26.5t7.5 -29.5q0 -38 -19.5 -77t-50 -70t-69 -50.5t-76.5 -19.5q-24 0 -38.5 21t-27.5 46.5t-27.5 46.5t-38.5 21t-38.5 -21t-27.5 -46.5t-27.5 -46.5t-38.5 -21q-15 0 -29.5 8t-26 20
t-18.5 27t-7 30q0 38 19 76.5t49.5 69t68.5 50t76 19.5q15 0 26.5 -10t21 -24.5t18 -32t18 -32t21 -24.5t27.5 -10z" />
    <glyph glyph-name="asterisk" unicode="*" horiz-adv-x="479" 
d="M302 429q-10 -12 -26.5 -17.5t-34.5 -5.5t-35 5.5t-27 17.5q-8 9 -2.5 23.5t13 29.5t11.5 28t-6 19q-11 6 -19.5 -4t-16.5 -24t-17.5 -25.5t-21.5 -9.5q-15 3 -30 15t-25 28.5t-14 35t2 33.5q4 12 19 14t31 1.5t28.5 1.5t12.5 14t-13 14.5t-29 3t-30.5 2.5t-18.5 13
q-5 16 -1.5 34t13 34t24 28t31.5 15q12 2 21 -10t17.5 -26.5t17 -24.5t19.5 -4q10 6 6 19t-11.5 28t-13 29.5t2.5 23.5q10 11 27 17t35 6t34.5 -6t26.5 -17q7 -9 1.5 -23.5t-13.5 -29t-12.5 -27.5t6.5 -19q10 -6 18.5 4t17 24t18 26t21.5 10q15 -3 30 -15t25 -28.5t14 -35
t-2 -33.5q-4 -12 -19 -14t-31 -2t-29 -2t-13 -14t12 -14.5t28 -2.5t31 -1.5t21 -12.5q6 -16 2.5 -34.5t-13.5 -35t-25 -28.5t-31 -15q-12 -2 -21.5 10t-18 26.5t-17 24.5t-19.5 4t-6.5 -19t13 -28t14.5 -29.5t-2 -24.5z" />
    <glyph glyph-name="at" unicode="@" horiz-adv-x="753" 
d="M605 276q0 -5 4 -8t9 -5t9 -5t4 -8q0 -14 -7 -28t-18 -25t-25 -18t-28 -7q-12 0 -20.5 10.5t-15.5 23.5t-15.5 23.5t-20.5 10.5q-6 0 -9.5 -8t-9.5 -10q-36 -15 -78 -15q-20 0 -42.5 4.5t-43 14.5t-35.5 26.5t-21 39.5q-5 20 -6.5 38.5t-1.5 36.5q0 33 14.5 69t40 66.5
t61 50.5t77.5 20q38 0 72.5 -16t51.5 -54q7 -14 7 -38q0 -20 -3.5 -39.5t-3.5 -39.5q0 -6 5 -2.5t11 11t12 17t9 16.5q20 49 0 104q-22 60 -73 86t-114 26q-56 0 -102.5 -18t-79.5 -52t-51.5 -81.5t-18.5 -106.5q0 -35 8 -69.5t24.5 -64.5t41.5 -54t59 -38q14 -6 37 -12
t49.5 -11t53 -8t47.5 -3q8 0 25.5 4t39.5 10t46 12t45 10t37 4t22 -6q22 -22 22 -62q0 -18 -5.5 -34.5t-16.5 -27.5q-35 -35 -81.5 -44t-100.5 -9q-69 0 -139.5 13.5t-130.5 39.5q-29 12 -58.5 30.5t-55 41.5t-45.5 50t-30 57q-19 58 -21 112.5t0 112.5q1 36 16.5 80t43 86
t65.5 77.5t85 54.5q38 16 79.5 23.5t84.5 7.5q89 0 163 -31q72 -29 117 -91t48 -145q1 -31 -3 -61.5t-12 -55.5q-6 -19 -23 -31.5t-35 -23.5t-32 -23t-14 -31zM377 326q9 0 22 3t25 9t20.5 15t8.5 21q0 9 2.5 19.5t4 21t1 19.5t-7.5 16q-9 9 -24.5 7t-26.5 -7
q-9 -4 -19.5 -13t-19.5 -20.5t-15.5 -24.5t-7.5 -26q-2 -17 8.5 -28.5t28.5 -11.5z" />
    <glyph glyph-name="atilde" unicode="&#xe3;" horiz-adv-x="722" 
d="M276 152q12 -5 27.5 -6.5t30.5 -1.5q10 0 30.5 1.5t40.5 7t35.5 16t15.5 27.5q0 10 -6 16.5t-15 10.5t-19 6t-18 2q-14 0 -30.5 -2.5t-32 -6t-30 -9t-24.5 -11.5q-9 -5 -15 -12.5t-6 -16.5q0 -14 16 -21zM322 -29q-47 0 -99.5 7.5t-96.5 28.5t-72.5 59t-28.5 100
q0 46 24.5 79.5t63.5 58.5q14 9 28 15.5t25 11.5t18 10t7 10q0 20 -17 32.5t-37.5 23.5t-37.5 23.5t-17 32.5q0 15 8.5 28.5t21.5 25t28.5 20t29.5 14.5q38 16 79.5 23.5t84.5 7.5q89 0 163 -31q24 -10 49.5 -24.5t46.5 -33t34.5 -41t13.5 -47.5q0 -38 -6.5 -77.5
t-6.5 -77.5q0 -19 2.5 -38t10.5 -36q6 -12 18.5 -20t25.5 -15t23 -15.5t10 -21.5q0 -22 -11 -44t-29 -39.5t-40.5 -28.5t-44.5 -11q-11 0 -17.5 9.5t-12.5 21.5t-12.5 21.5t-17.5 9.5q-8 0 -16 -11q-10 -13 -23 -23q-16 -12 -38 -19.5t-46 -11.5t-47 -5.5t-41 -1.5zM256 394
q-11 -5 -24.5 -14.5t-13.5 -22.5q0 -7 8 -9.5t20 -2.5q40 0 61.5 -2t35.5 -4.5t27 -4.5t36 -2t42 3t19 19q0 14 -13.5 24.5t-26.5 15.5q-35 16 -84 16q-52 0 -87 -16zM376 697q15 0 24 13t17 29t17 29t24 13q18 0 34.5 -17t16.5 -35q0 -24 -12 -48t-31 -43.5t-42.5 -31.5
t-47.5 -12q-15 0 -24 13t-17.5 29t-17.5 29t-24 13t-24 -13t-17.5 -29t-17.5 -29t-24 -13q-18 0 -34.5 17t-16.5 35q0 24 12 48t31 43.5t43 31.5t48 12q15 0 24 -13t17.5 -29t17.5 -29t24 -13z" />
    <glyph glyph-name="b" unicode="b" horiz-adv-x="664" 
d="M64 315q14 31 14 72q0 34 -8 71t-17.5 73.5t-17.5 72.5t-8 68q0 28 8.5 53t28.5 45q15 15 38 23t49 8q25 0 48.5 -8t39.5 -23q17 -17 17 -48q0 -22 -7 -47t-15.5 -50t-15.5 -49t-7 -43q0 -7 2 -15t6.5 -15.5t11 -12.5t15.5 -5q8 0 15 14t12 21q19 26 48.5 37.5t64.5 11.5
q28 0 56 -5t50 -14q42 -17 70.5 -52t45.5 -77q29 -73 29 -151q0 -76 -29 -149q-28 -69 -78.5 -106.5t-128.5 -37.5q-29 0 -61 7.5t-53 34.5q-12 15 -20.5 31t-20.5 16q-13 0 -13 -12q0 -6 2.5 -13.5l5 -15t2.5 -14.5t-4 -11q-16 -16 -39.5 -23.5t-48.5 -7.5q-26 0 -49 7.5
t-38 23.5q-11 11 -15.5 24t-4.5 28q0 17 4 35.5t9.5 38t9.5 39t4 37.5q0 23 -7 37q-3 6 -9.5 10.5t-13 8.5t-11.5 9t-5 11t5 10.5t12 8.5t13 8t9 10zM434 342q-4 9 -11 19.5t-16 19.5t-20 14.5t-23 5.5q-18 0 -41.5 -13t-45.5 -32.5t-37 -42t-15 -41.5q0 -18 14.5 -40.5
t35.5 -42t45 -32.5t44 -13q21 0 41 17t29 39q7 16 10 34t3 37q0 42 -13 71z" />
    <glyph glyph-name="backslash" unicode="\" horiz-adv-x="647" 
d="M506 -29q-36 7 -62 29t-46.5 52.5t-36.5 67.5t-31.5 75t-31.5 74.5t-36 66.5t-48 59t-57.5 57.5t-57.5 57.5t-48.5 59.5t-29.5 63t-2 68.5q4 18 17 35t31.5 29.5t39 18.5t39.5 2q35 -7 61.5 -28t46.5 -51.5t36 -67t31 -74.5t31 -75t36 -67q20 -31 48.5 -60.5t58.5 -58
t58 -57.5t48.5 -59.5t30 -63.5t1.5 -69q-4 -18 -17.5 -35t-31.5 -29t-39 -18t-39 -2z" />
    <glyph glyph-name="bar" unicode="|" horiz-adv-x="276" 
d="M223 -219q-15 -15 -38 -22.5t-47 -7.5q-25 0 -47.5 7.5t-37.5 22.5q-29 29 -40.5 66t-11.5 79t8 87.5t18 91.5t18 91t8 87q0 41 -8 85t-17.5 88.5t-17.5 88.5t-8 85q0 42 11 77.5t40 64.5q15 15 37.5 22.5t47.5 7.5q24 0 47 -7.5t38 -22.5q29 -29 40 -64.5t11 -77.5
q0 -41 -8 -85t-17.5 -88.5t-17.5 -88.5t-8 -85q0 -42 8 -87t18 -91t18 -91.5t8 -87.5t-11.5 -79t-40.5 -66z" />
    <glyph glyph-name="braceleft" unicode="{" horiz-adv-x="538" 
d="M374 595q-5 -2 -10.5 -1t-11 2.5t-10.5 1.5t-8 -3q-13 -13 -17.5 -28t-4.5 -32q0 -20 5 -42t10.5 -44.5t10.5 -45t5 -43.5q0 -24 -9 -45q-3 -6 -10 -10t-14.5 -8t-13 -8t-5.5 -11t5.5 -11.5t13 -8.5t14.5 -8.5t10 -11.5q9 -21 9 -45q0 -21 -5 -44t-11 -45.5t-11 -44.5
t-5 -42q0 -17 5 -32.5t18 -28.5q3 -3 8 -3t10.5 1.5t11 2.5t10.5 -1q27 -12 59.5 -31t58 -42t38.5 -49.5t1 -53.5q-11 -25 -34.5 -34.5t-53.5 -9.5q-21 0 -44.5 4t-47 10t-45 14t-39.5 16q-23 10 -43 26t-35 37t-24 45.5t-9 51.5q0 42 10.5 84t10.5 84q0 15 -2.5 30t-8.5 29
q-8 19 -27 31t-38 23t-33.5 24t-14.5 33q0 19 14.5 32t34 24t38 23t26.5 30q11 27 11 58q0 42 -10.5 83.5t-10.5 83.5q0 25 8 49t23 45.5t35.5 38.5t44.5 27q18 7 39.5 15t45 14.5t47 10.5t44.5 4q30 0 53.5 -9.5t34.5 -34.5q12 -27 -1 -54t-38.5 -50.5t-58 -42.5t-59.5 -30
z" />
    <glyph glyph-name="braceright" unicode="}" horiz-adv-x="538" 
d="M204 595q-3 3 -8 3t-10.5 -1.5t-11.5 -2.5t-10 1q-27 12 -59.5 31t-58 42.5t-38.5 50t-1 53.5q11 25 34.5 34.5t53.5 9.5q21 0 44.5 -4t47 -10.5t45 -14.5t39.5 -15q16 -7 34 -17t32.5 -23.5t24 -29t9.5 -33.5q0 -48 -8 -96t-8 -96q0 -23 3.5 -45.5t12.5 -44.5
q8 -18 26.5 -30t38 -23t34.5 -24t15 -32q0 -20 -15 -33t-34.5 -24t-38 -23.5t-26.5 -30.5q-9 -22 -12.5 -45t-3.5 -47q0 -48 8 -96t8 -96q0 -18 -9.5 -33.5t-24 -28.5t-32.5 -23.5t-34 -17.5q-18 -8 -39.5 -16t-45 -14t-47 -10t-44.5 -4q-30 0 -53.5 9.5t-34.5 34.5
q-12 27 1 53.5t38.5 49.5t58 42t59.5 31q4 2 10 1t11.5 -2.5t10.5 -1.5t8 3q13 13 17.5 28t4.5 32q0 20 -5 42.5t-10.5 45t-10.5 45.5t-5 44q0 25 9 46q3 7 10 11t14.5 7.5t13.5 8t6 12.5q0 7 -6 11.5t-13.5 8t-14.5 7.5t-10 11q-9 21 -9 45q0 21 5 43.5t10.5 45t10.5 44
t5 41.5q0 17 -4.5 32t-17.5 28z" />
    <glyph glyph-name="bracketleft" unicode="[" horiz-adv-x="438" 
d="M458 781q0 -14 -3.5 -32.5t-11 -34.5t-20.5 -27t-32 -11q-15 0 -31 4t-33 9.5t-33 9.5t-31 4q-18 0 -31 -10t-21.5 -25.5t-13 -34t-4.5 -35.5q-1 -28 4.5 -58.5t12 -61.5t12.5 -61.5t6 -58.5t-5.5 -58.5t-12.5 -62t-12.5 -62t-5.5 -58.5q0 -15 3.5 -34.5t12 -36.5t22 -29
t33.5 -12q14 0 30 4t32.5 9t33 9.5t30.5 4.5q19 0 32.5 -11t21.5 -27.5t11.5 -35.5t3.5 -36q-1 -42 -22.5 -72.5t-54.5 -49t-74 -27t-80 -6.5q-49 1 -91 15.5t-72.5 42t-47.5 67.5t-17 93q0 43 8.5 90t18.5 94.5t18.5 94t8.5 89.5t-8.5 90.5t-19 95t-19 94.5t-8.5 91
t12 82.5t43 69.5q32 32 79.5 48t98.5 18q37 1 77.5 -7t73.5 -27t54.5 -50.5t21.5 -76.5z" />
    <glyph glyph-name="bracketright" unicode="]" horiz-adv-x="438" 
d="M246 598q0 15 -2.5 38.5t-10.5 45.5t-22 38t-37 16q-14 0 -30 -4.5t-32.5 -9.5t-32.5 -9.5t-30 -4.5q-18 0 -31 10t-21.5 25.5t-12 34t-3.5 34.5q0 34 23 58.5t57 40.5t71 23.5t66 7.5q50 0 93.5 -13.5t76 -40.5t51.5 -67.5t19 -94.5q0 -44 -8.5 -90.5t-18.5 -94
t-18.5 -94t-8.5 -89.5q0 -44 8.5 -91.5t19 -95.5t19 -95t8.5 -91q0 -53 -17.5 -93.5t-49.5 -68t-76.5 -42t-97.5 -14.5q-25 0 -62 7.5t-71.5 23t-59 39.5t-24.5 57q0 14 3.5 32t11.5 34t21 27t32 11q14 0 30 -4.5t32.5 -9.5t32.5 -9.5t30 -4.5q24 0 38 15.5t21.5 37.5
t10 46.5t2.5 42.5q0 29 -5.5 60t-12.5 62.5t-12.5 62.5t-5.5 60q0 28 5.5 58.5t12.5 62t12.5 62t5.5 58.5z" />
    <glyph glyph-name="brokenbar" unicode="&#xa6;" horiz-adv-x="270" 
d="M220 -215q-15 -15 -38 -22.5t-47 -7.5q-25 0 -47.5 7.5t-37.5 22.5q-17 17 -23 37t-6 43t4.5 48t10 50.5t10 50.5t4.5 48q0 22 -6.5 46t-6.5 45q0 11 2.5 20t10.5 17q15 15 37.5 22.5t47.5 7.5q24 0 47 -7.5t38 -22.5q8 -8 10.5 -17t2.5 -20q0 -21 -6.5 -44.5t-6.5 -44.5
q0 -23 4.5 -48.5t10 -51t10 -50.5t4.5 -48t-6 -43.5t-23 -37.5zM220 363q-15 -15 -38 -22.5t-47 -7.5q-25 0 -47.5 7.5t-37.5 22.5q-12 12 -12 34q0 20 6 42.5t6 42.5q0 24 -5 50.5t-10.5 53t-10.5 52.5t-5 50t7 45.5t24 38.5q15 15 37.5 22.5t47.5 7.5q24 0 47 -7.5
t38 -22.5q17 -17 23.5 -38.5t6.5 -45.5t-4.5 -50t-10.5 -52.5t-10.5 -52.5t-4.5 -50q0 -20 6 -42.5t6 -42.5q0 -10 -2.5 -19t-9.5 -16z" />
    <glyph glyph-name="bullet" unicode="&#x2022;" horiz-adv-x="493" 
d="M246 135q-34 0 -68.5 17t-62 44.5t-45 61.5t-17.5 69q0 34 17.5 68.5t45 62.5t62 45.5t68.5 17.5t68.5 -17.5t62 -45.5t45 -62.5t17.5 -68.5q0 -35 -17.5 -69t-45 -61.5t-62 -44.5t-68.5 -17z" />
    <glyph glyph-name="c" unicode="c" horiz-adv-x="583" 
d="M372 371q-26 8 -45 8q-21 0 -40.5 -7.5t-34.5 -20.5t-24 -32t-9 -41q0 -20 7 -38.5t19.5 -33t30.5 -23t40 -8.5q18 0 38 4t39.5 9.5t38.5 9.5t37 4q15 0 29 -4.5t25 -15.5q16 -17 24 -41t8 -50t-8 -50.5t-24 -40.5q-24 -24 -56.5 -34t-69.5 -10q-48 0 -98.5 13.5
t-92.5 30.5q-51 21 -93 63t-63 93q-23 58 -23 118q0 62 23 118q21 52 64 94.5t95 64.5q53 22 115 22q30 0 59.5 -5.5t56.5 -16.5q21 -9 43 -21.5t40 -28.5t30 -34.5t12 -40.5t-11.5 -44t-29.5 -39t-40.5 -28t-44.5 -11q-12 0 -19.5 9t-14.5 20.5t-14.5 22.5t-18.5 15z" />
    <glyph glyph-name="ccedilla" unicode="&#xe7;" horiz-adv-x="583" 
d="M372 371q-26 8 -45 8q-21 0 -40.5 -7.5t-34.5 -20.5t-24 -32t-9 -41q0 -20 7 -38.5t19.5 -33t30.5 -23t40 -8.5q18 0 38 4t39.5 9.5t38.5 9.5t37 4q15 0 29 -4.5t25 -15.5q16 -17 24 -41t8 -50t-8 -50.5t-24 -40.5q-24 -24 -56.5 -34t-69.5 -10q-48 0 -98.5 13.5
t-92.5 30.5q-51 21 -93 63t-63 93q-23 58 -23 118q0 62 23 118q21 52 64 94.5t95 64.5q53 22 115 22q30 0 59.5 -5.5t56.5 -16.5q21 -9 43 -21.5t40 -28.5t30 -34.5t12 -40.5t-11.5 -44t-29.5 -39t-40.5 -28t-44.5 -11q-12 0 -19.5 9t-14.5 20.5t-14.5 22.5t-18.5 15zM346 3
q0 -9 -2 -18.5t2 -17.5q3 -8 9.5 -13.5t14 -10t14 -10t9.5 -13.5q18 -48 0 -95q-9 -22 -27 -39t-40 -26q-23 -10 -51.5 -10t-51.5 10q-15 6 -31.5 15t-30 21t-22.5 26t-9 31q0 13 6.5 25.5t17 23t23 17t25.5 6.5q14 0 21.5 -10.5t14 -23t14.5 -23t23 -10.5q7 0 12.5 2.5
t5.5 8.5q0 14 -6 21t-14 11.5t-15.5 9t-10.5 12.5q-8 19 -4 39.5t4 40.5h99z" />
    <glyph glyph-name="cedilla" unicode="&#xb8;" horiz-adv-x="0" 
d="M315 3q0 -9 -2 -18.5t2 -17.5q3 -8 9.5 -13.5t14 -10t14 -10t9.5 -13.5q18 -48 0 -95q-9 -22 -27 -39t-40 -26q-23 -10 -51.5 -10t-51.5 10q-15 6 -31.5 15t-30 21t-22.5 26t-9 31q0 13 6.5 25.5t17 23t23 17t25.5 6.5q14 0 21.5 -10.5t14 -23t14.5 -23t23 -10.5
q7 0 12.5 2.5t5.5 8.5q0 14 -6 21t-14 11.5t-15.5 9t-10.5 12.5q-8 19 -4 39.5t4 40.5h99z" />
    <glyph glyph-name="cent" unicode="&#xa2;" horiz-adv-x="613" 
d="M264 820q15 14 37 21t45 7t44.5 -7t34.5 -21q6 -6 4 -15.5t-5.5 -19.5t-5.5 -19.5t4 -15.5q8 -8 19.5 -8t25 3.5t27 8t25.5 4.5q15 0 24.5 -11t14.5 -26.5t6.5 -32t1.5 -28.5t-3.5 -28.5t-10.5 -32t-18.5 -26.5t-27.5 -11q-17 0 -36.5 7.5t-36.5 8.5q-15 0 -25 -9.5
t-15.5 -24t-8 -30.5t-2.5 -29q0 -6 0.5 -20.5t3.5 -29.5t8.5 -27t16.5 -12q13 0 21 9t15 20t15 20t20 9q19 0 39.5 -9t36.5 -24t26 -34.5t9 -39.5q-1 -22 -13.5 -41t-32 -34.5t-42 -28t-43.5 -21.5q-6 -2 -12.5 -1.5t-13 2.5t-13.5 3.5t-13 1.5q-10 0 -15.5 -8.5t-5.5 -18.5
q0 -14 5.5 -31.5t5.5 -31.5q0 -15 -9.5 -24.5t-24 -15.5t-30 -8.5t-27.5 -2.5q-9 0 -23.5 2.5t-28 7.5t-23 14t-9.5 23q0 17 8.5 36t8.5 35q0 5 -3 12.5t-11 7.5q-5 0 -11.5 -2t-11.5 -2q-17 0 -40.5 18t-47 42.5t-43 51.5t-26.5 45q-19 50 -16 108q1 29 8 56t19 52
q24 51 67.5 92t97.5 64q4 2 9 1l10 -2t10 -1.5t8 2.5q6 6 5 15.5t-3.5 19.5t-3.5 19.5t5 15.5zM255 552q-9 0 -16 -7.5t-12 -18t-7.5 -22t-3.5 -19.5q0 -6 2 -16.5t6 -21.5t10 -19t14 -8q4 0 8.5 3t8.5 7q8 10 11 24.5t4 31.5q1 16 -0.5 30.5t-8.5 24.5q-2 3 -6.5 7t-9.5 4z
" />
    <glyph glyph-name="circumflex" unicode="&#x2c6;" horiz-adv-x="0" 
d="M311 594q-15 0 -24 13t-17.5 29t-17.5 29t-24 13t-24 -13t-17 -29t-17 -29t-24 -13q-18 0 -34.5 17t-16.5 35t16.5 41t38 44t44 35.5t34.5 14.5t34.5 -14.5t44.5 -35.5t38.5 -44t16.5 -41t-16.5 -35t-34.5 -17z" />
    <glyph glyph-name="colon" unicode=":" horiz-adv-x="376" 
d="M188 282q-24 0 -48 12t-43.5 31.5t-31.5 43.5t-12 48t12 48t31.5 43t43.5 31t48 12t48 -12t43.5 -31t31.5 -43t12 -48t-12 -48t-31.5 -43.5t-43.5 -31.5t-48 -12zM188 -52q-24 0 -48 12t-43.5 31.5t-31.5 43.5t-12 48t12 48t31.5 43.5t43.5 31.5t48 12t48 -12t43.5 -31.5
t31.5 -43.5t12 -48t-12 -48t-31.5 -43.5t-43.5 -31.5t-48 -12z" />
    <glyph glyph-name="comma" unicode="," horiz-adv-x="350" 
d="M124 3q-2 12 -13.5 20t-24 14.5t-23 14.5t-10.5 20q0 22 10.5 44t28 39.5t39 28.5t44.5 11q21 0 42 -11t38 -28.5t28 -39.5t13 -43q2 -30 -8.5 -62t-30.5 -60t-46.5 -48.5t-56.5 -27.5q-11 -3 -24 -0.5t-25 8t-21 14.5t-12 20q-3 12 5.5 22.5t19.5 20.5t20 20.5t7 22.5z
" />
    <glyph glyph-name="copyright" unicode="&#xa9;" horiz-adv-x="662" 
d="M371 561q-18 6 -39 6q-19 0 -34 -6q-20 -8 -28 -28q-5 -11 -7.5 -24t-2.5 -26q0 -30 10 -49q4 -10 12.5 -19t18.5 -12q11 -4 20.5 -5t18.5 -1q29 0 49 8.5t37 10.5q15 2 27 -13t5.5 -38.5t-21.5 -35.5q-14 -12 -32 -17t-38 -5q-25 0 -50 6.5t-46 15.5q-27 11 -48 33
t-32 50q-13 29 -13 72q0 18 3 36t10 34q11 28 33 50t50 33q15 7 41 7q15 0 41 -1.5t51 -8.5t43.5 -20.5t18.5 -37.5q0 -10 -6 -18.5t-15.5 -14.5t-20.5 -9.5t-21 -3.5q-6 0 -10.5 4t-8 9.5t-7.5 10.5t-9 7zM123 475q0 -45 16.5 -84t45 -67.5t66.5 -45t80 -16.5
q43 0 80.5 16.5t66 45t45 67.5t16.5 84t-16.5 84t-45 68t-66 45.5t-80.5 16.5q-42 0 -80 -16.5t-66.5 -45.5t-45 -68t-16.5 -84zM40 475q0 62 23.5 116.5t63 95t92.5 63.5t112 23q60 0 112.5 -23t92.5 -63.5t63 -95t23 -116.5q0 -63 -23 -117t-63 -93.5t-92.5 -62.5
t-112.5 -23q-59 0 -112 23t-92.5 62.5t-63 93.5t-23.5 117z" />
    <glyph glyph-name="currency" unicode="&#xa4;" horiz-adv-x="833" 
d="M771 461q12 0 20.5 -10t13.5 -23.5t7 -28.5t2 -24q0 -8 -2.5 -22.5t-7.5 -28.5t-13 -24.5t-19 -10.5q-12 0 -26 5t-26 5q-10 0 -14 -4t-6 -10.5t-3 -14t-4 -14.5q-8 -18 -18 -36t-22 -34q-13 -17 -27 -31.5t-28 -25.5q-32 -25 -68 -42q-5 -2 -12.5 -2.5t-14.5 -2
t-11.5 -5.5t-4.5 -14q0 -11 4.5 -24.5t4.5 -24.5q0 -12 -9 -20t-21.5 -12.5t-26 -6.5t-23.5 -2q-8 0 -21.5 2t-26.5 6.5t-22.5 12.5t-9.5 20t5 26t5 26q0 9 -4 13.5t-10 6t-13 2.5t-13 4q-36 17 -68 42q-16 13 -30 26.5t-27 29.5t-24 32.5t-19 35.5q-2 5 -2.5 12.5t-2 14
t-5.5 11t-14 4.5q-12 0 -26 -5.5t-26 -5.5t-20.5 10t-13.5 23.5t-7 28t-2 24.5q0 8 2 22.5t7.5 28.5t13.5 24.5t20 10.5q11 0 25 -5.5t26 -4.5q10 0 14 4t5.5 10.5t2 14t3.5 14.5q8 18 17.5 36t21.5 34t25.5 30.5t29.5 26.5t33 22.5t36 17.5q6 2 14 2.5t15 2t12 5.5t5 14
q0 12 -5 26t-5 25t9 18.5t22 12t26 6.5t22 2q6 0 19.5 -2t27 -7t24 -12.5t10.5 -17.5q0 -12 -5 -27t-5 -28q0 -9 4 -13.5t10 -6t13.5 -2.5t13.5 -4q36 -17 68 -42q31 -24 55 -55q12 -15 23 -31.5t19 -34.5q3 -6 3.5 -13t2 -13t6 -10.5t14.5 -4.5q12 0 26 5t26 5zM272 372
q0 -30 11 -55.5t30 -44t45.5 -29.5t58.5 -11q30 0 56 10t46 28.5t31.5 44t11.5 57.5q0 29 -11 54.5t-30.5 44t-46 29.5t-57.5 11q-29 0 -55.5 -10t-46.5 -28t-31.5 -44t-11.5 -57z" />
    <glyph glyph-name="d" unicode="d" horiz-adv-x="664" 
d="M601 770q20 -20 28.5 -45t8.5 -53q0 -32 -8 -68t-17.5 -72.5t-17.5 -73.5t-8 -71q0 -41 14 -72q3 -6 9 -10t12.5 -8t11.5 -8.5t5 -10.5t-5 -11t-11 -9t-12.5 -8.5t-9.5 -10.5q-7 -14 -7 -37q0 -18 4 -37.5t9.5 -39t9.5 -38t4 -35.5q0 -15 -4.5 -28t-15.5 -24
q-16 -16 -39.5 -23.5t-48.5 -7.5q-8 0 -23.5 2.5t-30.5 7.5t-26.5 13t-11.5 20q0 10 5.5 22t5.5 20q0 12 -15 12q-10 0 -18 -17q-21 -41 -48 -59t-79 -18q-21 0 -41.5 4t-39.5 12q-45 19 -81 53.5t-54 79.5q-15 35 -22 73t-7 77t7 77t22 73q18 43 52 79.5t79 50.5
q21 7 47 12t52 5q42 0 76 -17q15 -8 24.5 -19.5t15.5 -22l10 -17.5t9 -7q7 0 14 8t11 15q5 10 5 27q0 19 -6.5 43t-14.5 49t-14.5 49.5t-6.5 45.5q0 14 3.5 26t13.5 22q15 15 38 23t49 8q25 0 48.5 -8t39.5 -23zM439 272q0 11 -8.5 28t-22.5 35t-32 34t-37 25q-17 9 -34 9
q-23 0 -44 -19.5t-30 -41.5q-14 -37 -14 -71q0 -35 14 -71q3 -9 9.5 -18.5t15.5 -17.5t19.5 -13.5t22.5 -5.5q16 0 36 9q18 8 37 22t34 30.5t24.5 33.5t9.5 32z" />
    <glyph glyph-name="dagger" unicode="&#x2020;" horiz-adv-x="529" 
d="M264 -238q-20 23 -37.5 37t-30.5 29t-20 35.5t-7 56.5q0 41 8 87.5t17.5 93.5t17.5 92t8 84q0 35 -8.5 63.5t-31.5 46.5q-12 9 -30 4t-37 -12.5t-36.5 -11.5t-29.5 8q-32 32 -32 65q0 34 32 66q12 12 32.5 8t43 -11.5t43 -13t30.5 3.5q13 13 13 42q0 18 -7 38.5t-15.5 42
t-15.5 42.5t-7 40q0 31 16 47q15 15 37.5 22.5t46.5 7.5t46.5 -7.5t37.5 -22.5q16 -16 16 -47q0 -19 -7 -40t-15.5 -42.5t-15.5 -42t-7 -38.5q0 -13 2.5 -23.5t10.5 -18.5q10 -9 30.5 -3.5t43 13.5t43.5 11.5t33 -8.5q32 -33 32 -67t-32 -66q-12 -12 -30 -8t-37 12t-37 13
t-30 -4q-23 -18 -32 -47t-9 -65q0 -39 8 -84.5t17.5 -93t17.5 -94t8 -86.5q0 -35 -6.5 -54.5t-18.5 -33.5t-29.5 -28t-39.5 -38z" />
    <glyph glyph-name="daggerdbl" unicode="&#x2021;" horiz-adv-x="530" 
d="M264 -236q-22 20 -47 38.5t-37 45.5q-9 22 -9 50q0 27 6.5 57t15 60t15 58.5t6.5 53.5q0 36 -18 59q-8 9 -22.5 8.5t-31.5 -4t-35 -8.5t-33 -5q-18 0 -27 9q-15 14 -22 33.5t-7 39.5t7 39t22 34q9 9 27 9q15 0 33 -5t35 -8.5t31.5 -4t22.5 8.5q7 8 7 25.5t-7 25.5
q-8 9 -22.5 8.5t-31.5 -4t-35 -8.5t-33 -5q-18 0 -27 9q-30 30 -30 73t30 73q9 9 27 9q15 0 33 -5t35 -8.5t31.5 -4t22.5 8.5q9 12 9 29q0 16 -6 35.5t-13 39.5t-13 40t-6 37q0 22 13 35q15 15 37.5 22.5t46.5 7.5t46.5 -7.5t37.5 -22.5q13 -13 13 -35q0 -17 -6 -37t-13 -40
t-13 -39.5t-6 -35.5q0 -17 9 -29q8 -9 23 -9t32 4t35.5 9t33.5 5q18 0 27 -9q15 -15 22.5 -34.5t7.5 -39.5t-7.5 -39.5t-22.5 -34.5q-9 -9 -27 -9q-15 0 -33.5 5t-35.5 9t-32 4t-23 -9q-7 -8 -7 -24.5t7 -24.5q8 -9 23 -9t32 4t35.5 9t33.5 5q18 0 27 -9q29 -32 29 -74
q0 -20 -7.5 -39.5t-21.5 -33.5q-9 -9 -27 -9q-15 0 -33.5 5t-35.5 9t-32 4t-23 -9q-18 -23 -18 -59q0 -25 6.5 -53.5t15 -58.5t15 -60t6.5 -57t-9 -49q-6 -14 -16 -25t-21.5 -20.5t-24 -19t-22.5 -19.5z" />
    <glyph glyph-name="degree" unicode="&#xb0;" horiz-adv-x="453" 
d="M167 587q0 -26 17 -43t43 -17q25 0 42 17t17 43t-17 42.5t-42 16.5q-26 0 -43 -16.5t-17 -42.5zM40 587q0 39 14.5 72.5t40 59t59.5 40t73 14.5t72.5 -14.5t59 -40t40 -59t14.5 -72.5q0 -38 -14.5 -72t-40 -59.5t-59 -40.5t-72.5 -15t-73 15t-59.5 40.5t-40 59.5
t-14.5 72z" />
    <glyph glyph-name="dieresis" unicode="&#xa8;" horiz-adv-x="0" 
d="M368 627q-9 -11 -23 -16t-29 -5t-29 5t-23 16q-7 7 -7 21q0 6 0.5 12.5t0.5 12.5q0 17 -5 28t-5 22t10 21q21 21 58 21t58 -21q10 -10 10 -21t-5 -22.5t-5 -28.5q0 -6 0.5 -12t0.5 -12q0 -14 -7 -21zM194 627q-9 -11 -23 -16t-29 -5t-29 5t-23 16q-7 7 -7 20
q0 6 0.5 12.5t0.5 12.5q0 16 -5 28t-5 23t10 21q21 21 58 21t58 -21q10 -10 10 -21t-5 -22.5t-5 -28.5q0 -6 0.5 -12t0.5 -12q0 -14 -7 -21z" />
    <glyph glyph-name="divide" unicode="&#xf7;" horiz-adv-x="623" 
d="M312 470q-21 0 -41.5 10.5t-37 27.5t-27 37.5t-10.5 41.5q0 20 10.5 40.5t27 37t37.5 27t41 10.5t40.5 -10.5t37 -27t27 -37t10.5 -40.5t-10.5 -41t-27 -38t-37 -27.5t-40.5 -10.5zM312 95q-21 0 -41.5 10.5t-37 27t-27 37t-10.5 41.5q0 20 10.5 40.5t27 37t37.5 27
t41 10.5t40.5 -10.5t37 -27t27 -37t10.5 -40.5t-10.5 -41t-27 -37.5t-37 -27t-40.5 -10.5zM65 343q-9 9 -14 23t-5 29t5 29t14 23q22 22 51.5 24.5t62 -3t66.5 -13.5t65 -8t65 8t66.5 13.5t62 3t51.5 -24.5q9 -9 14 -23t5 -29t-5 -29t-14 -23q-22 -22 -51.5 -24.5t-63 3
t-67.5 13.5t-65 8q-30 0 -64 -8t-66.5 -13.5t-62 -2.5t-50.5 24z" />
    <glyph glyph-name="dollar" unicode="$" horiz-adv-x="758" 
d="M449 -24q-16 -15 -39 -22.5t-48 -7.5q-24 0 -46 7.5t-37 22.5q-6 6 -6 15q0 14 8 29.5t8 29.5t-14 21.5t-28 7.5t-29.5 -4t-32 -9.5t-32 -9.5t-29.5 -4q-11 0 -19 2.5t-16 10.5q-17 17 -25.5 42.5t-8.5 52.5t8.5 52.5t25.5 42.5q16 16 35 22t40 6q25 0 52 -6t55 -13.5
t56 -13.5t54 -6q15 0 29 2.5t27 8.5q6 3 12 8t6 12q0 6 -6 11.5t-12 7.5q-14 7 -38 7q-27 0 -55.5 -7t-55.5 -7q-24 0 -38 7q-33 14 -69 34.5t-66 46.5t-49 57t-19 67q0 26 10 50t27.5 45t40 39.5t47.5 33.5q7 4 19 11.5t25.5 14.5t26.5 12.5t22 5.5q8 0 15.5 -2.5
t15.5 -2.5q16 0 16 19q0 10 -3.5 21t-3.5 21q0 9 5 14q15 15 38 22.5t47 7.5q7 0 21.5 -2.5t29.5 -7.5t26 -13t11 -19t-6.5 -23.5t-6.5 -23.5q0 -12 12 -18t23 -6q12 0 25.5 3.5t27.5 8t27.5 8t25.5 3.5q19 0 30 -11q17 -17 25 -42t8 -52t-8 -51.5t-25 -41.5
q-19 -19 -42 -26t-49 -7t-54.5 5t-57.5 11.5t-57.5 11.5t-54.5 5q-8 0 -17 -6.5t-9 -14.5q0 -9 8.5 -16t17.5 -7q30 0 60.5 5t60.5 5q15 0 29.5 -2t28.5 -8q34 -14 70.5 -34t67 -46.5t50 -58t19.5 -68.5q0 -46 -28 -85.5t-70 -68.5q-14 -10 -31.5 -20t-34 -17.5t-30 -12.5
t-20.5 -5q-8 0 -16.5 3t-16.5 3t-13 -6.5t-5 -16.5q0 -12 4.5 -26t4.5 -26q0 -11 -7 -18z" />
    <glyph glyph-name="dotlessi" unicode="&#x131;" horiz-adv-x="289" 
d="M228 0q-15 -15 -37.5 -22.5t-46.5 -7.5t-46 7.5t-37 22.5q-17 17 -24 39t-7 47t5 52t10.5 54t10.5 54t5 52q0 21 -4 44t-9 46t-9 46t-4 44t5.5 39.5t20.5 33.5t37 22.5t46 7.5t46.5 -7.5t37.5 -22.5t20.5 -33.5t5.5 -39.5t-4 -44t-9 -46t-9 -46t-4 -44q0 -25 5 -52
t10.5 -54t10.5 -54t5 -52t-7 -47t-24 -39z" />
    <glyph glyph-name="e" unicode="e" 
d="M284 402q-14 -5 -30 -14.5t-16 -22.5q0 -14 13 -22t28 -8q24 0 54 10t57 10q12 0 26 4.5t14 21.5q0 6 -6.5 11.5t-12.5 7.5q-30 12 -64 12q-17 0 -33 -2t-30 -8zM653 372q0 -35 -15.5 -63.5t-41.5 -49.5t-60.5 -32.5t-71.5 -11.5q-21 0 -44 2.5t-46 5.5t-45 5.5t-40 2.5
q-7 0 -16 -2.5t-17.5 -8t-14 -14t-5.5 -19.5q0 -7 4.5 -13t11.5 -10.5t14.5 -8t12.5 -5.5q12 -5 23 -6.5t21 -1.5q21 0 44 6t46.5 13.5t46 13.5t42.5 6q17 0 32.5 -5t28.5 -18q14 -14 20 -27t6 -36q0 -34 -24.5 -58t-59.5 -39t-74 -22t-67 -7q-50 0 -94.5 7t-85.5 24
q-43 18 -78.5 53.5t-53.5 78.5q-13 30 -19 63t-6 67t6 67t19 63q18 44 49 78.5t70 58t84.5 36t93.5 12.5q25 0 57 -6.5t66 -18.5t66.5 -29.5t58 -40.5t41 -50.5t15.5 -59.5z" />
    <glyph glyph-name="eacute" unicode="&#xe9;" 
d="M284 402q-14 -5 -30 -14.5t-16 -22.5q0 -14 13 -22t28 -8q24 0 54 10t57 10q12 0 26 4.5t14 21.5q0 6 -6.5 11.5t-12.5 7.5q-30 12 -64 12q-17 0 -33 -2t-30 -8zM653 372q0 -35 -15.5 -63.5t-41.5 -49.5t-60.5 -32.5t-71.5 -11.5q-21 0 -44 2.5t-46 5.5t-45 5.5t-40 2.5
q-7 0 -16 -2.5t-17.5 -8t-14 -14t-5.5 -19.5q0 -7 4.5 -13t11.5 -10.5t14.5 -8t12.5 -5.5q12 -5 23 -6.5t21 -1.5q21 0 44 6t46.5 13.5t46 13.5t42.5 6q17 0 32.5 -5t28.5 -18q14 -14 20 -27t6 -36q0 -34 -24.5 -58t-59.5 -39t-74 -22t-67 -7q-50 0 -94.5 7t-85.5 24
q-43 18 -78.5 53.5t-53.5 78.5q-13 30 -19 63t-6 67t6 67t19 63q18 44 49 78.5t70 58t84.5 36t93.5 12.5q25 0 57 -6.5t66 -18.5t66.5 -29.5t58 -40.5t41 -50.5t15.5 -59.5zM326 595q-11 0 -22 5.5t-20.5 14t-15.5 19t-6 21.5q0 13 13 21.5t23 18.5q12 13 21 31t19.5 34.5
t23 28.5t30.5 12q13 0 26.5 -7t24.5 -18t18 -24.5t7 -26.5q0 -18 -12 -31t-29 -24.5t-35.5 -21.5t-31.5 -22q-8 -8 -15.5 -19.5t-18.5 -11.5z" />
    <glyph glyph-name="ecircumflex" unicode="&#xea;" 
d="M284 402q-14 -5 -30 -14.5t-16 -22.5q0 -14 13 -22t28 -8q24 0 54 10t57 10q12 0 26 4.5t14 21.5q0 6 -6.5 11.5t-12.5 7.5q-30 12 -64 12q-17 0 -33 -2t-30 -8zM653 372q0 -35 -15.5 -63.5t-41.5 -49.5t-60.5 -32.5t-71.5 -11.5q-21 0 -44 2.5t-46 5.5t-45 5.5t-40 2.5
q-7 0 -16 -2.5t-17.5 -8t-14 -14t-5.5 -19.5q0 -7 4.5 -13t11.5 -10.5t14.5 -8t12.5 -5.5q12 -5 23 -6.5t21 -1.5q21 0 44 6t46.5 13.5t46 13.5t42.5 6q17 0 32.5 -5t28.5 -18q14 -14 20 -27t6 -36q0 -34 -24.5 -58t-59.5 -39t-74 -22t-67 -7q-50 0 -94.5 7t-85.5 24
q-43 18 -78.5 53.5t-53.5 78.5q-13 30 -19 63t-6 67t6 67t19 63q18 44 49 78.5t70 58t84.5 36t93.5 12.5q25 0 57 -6.5t66 -18.5t66.5 -29.5t58 -40.5t41 -50.5t15.5 -59.5zM437 594q-15 0 -24 13t-17.5 29t-17.5 29t-24 13t-24 -13t-17 -29t-17 -29t-24 -13q-18 0 -34.5 17
t-16.5 35t16.5 41t38 44t44 35.5t34.5 14.5t34.5 -14.5t44.5 -35.5t38.5 -44t16.5 -41t-16.5 -35t-34.5 -17z" />
    <glyph glyph-name="edieresis" unicode="&#xeb;" 
d="M284 402q-14 -5 -30 -14.5t-16 -22.5q0 -14 13 -22t28 -8q24 0 54 10t57 10q12 0 26 4.5t14 21.5q0 6 -6.5 11.5t-12.5 7.5q-30 12 -64 12q-17 0 -33 -2t-30 -8zM653 372q0 -35 -15.5 -63.5t-41.5 -49.5t-60.5 -32.5t-71.5 -11.5q-21 0 -44 2.5t-46 5.5t-45 5.5t-40 2.5
q-7 0 -16 -2.5t-17.5 -8t-14 -14t-5.5 -19.5q0 -7 4.5 -13t11.5 -10.5t14.5 -8t12.5 -5.5q12 -5 23 -6.5t21 -1.5q21 0 44 6t46.5 13.5t46 13.5t42.5 6q17 0 32.5 -5t28.5 -18q14 -14 20 -27t6 -36q0 -34 -24.5 -58t-59.5 -39t-74 -22t-67 -7q-50 0 -94.5 7t-85.5 24
q-43 18 -78.5 53.5t-53.5 78.5q-13 30 -19 63t-6 67t6 67t19 63q18 44 49 78.5t70 58t84.5 36t93.5 12.5q25 0 57 -6.5t66 -18.5t66.5 -29.5t58 -40.5t41 -50.5t15.5 -59.5zM480 627q-9 -11 -23 -16t-29 -5t-29 5t-23 16q-7 7 -7 21q0 6 0.5 12.5t0.5 12.5q0 17 -5 28t-5 22
t10 21q21 21 58 21t58 -21q10 -10 10 -21t-5 -22.5t-5 -28.5q0 -6 0.5 -12t0.5 -12q0 -14 -7 -21zM306 627q-9 -11 -23 -16t-29 -5t-29 5t-23 16q-7 7 -7 20q0 6 0.5 12.5t0.5 12.5q0 16 -5 28t-5 23t10 21q21 21 58 21t58 -21q10 -10 10 -21t-5 -22.5t-5 -28.5
q0 -6 0.5 -12t0.5 -12q0 -14 -7 -21z" />
    <glyph glyph-name="egrave" unicode="&#xe8;" 
d="M284 402q-14 -5 -30 -14.5t-16 -22.5q0 -14 13 -22t28 -8q24 0 54 10t57 10q12 0 26 4.5t14 21.5q0 6 -6.5 11.5t-12.5 7.5q-30 12 -64 12q-17 0 -33 -2t-30 -8zM653 372q0 -35 -15.5 -63.5t-41.5 -49.5t-60.5 -32.5t-71.5 -11.5q-21 0 -44 2.5t-46 5.5t-45 5.5t-40 2.5
q-7 0 -16 -2.5t-17.5 -8t-14 -14t-5.5 -19.5q0 -7 4.5 -13t11.5 -10.5t14.5 -8t12.5 -5.5q12 -5 23 -6.5t21 -1.5q21 0 44 6t46.5 13.5t46 13.5t42.5 6q17 0 32.5 -5t28.5 -18q14 -14 20 -27t6 -36q0 -34 -24.5 -58t-59.5 -39t-74 -22t-67 -7q-50 0 -94.5 7t-85.5 24
q-43 18 -78.5 53.5t-53.5 78.5q-13 30 -19 63t-6 67t6 67t19 63q18 44 49 78.5t70 58t84.5 36t93.5 12.5q25 0 57 -6.5t66 -18.5t66.5 -29.5t58 -40.5t41 -50.5t15.5 -59.5zM432 658q-1 -22 -21.5 -40.5t-42.5 -19.5q-9 0 -15.5 5t-12 11.5t-11 14.5t-11.5 14
q-11 10 -26.5 18.5t-29.5 17.5t-24 20t-10 26q0 13 7 26.5t18 24.5t24.5 18t26.5 7q15 0 26 -10t20 -24.5t17.5 -30.5t18.5 -27q6 -6 13.5 -11.5t15 -11.5t12.5 -12.5t5 -15.5z" />
    <glyph glyph-name="eight" unicode="8" horiz-adv-x="643" 
d="M236 514q0 -14 9 -24.5t22.5 -18t29 -11.5t28.5 -4q11 0 25.5 3.5t27 11t21.5 18t9 24.5q0 15 -8 26.5t-21 20t-28 13t-28 4.5q-12 0 -27 -4t-28.5 -12.5t-22.5 -20t-9 -26.5zM427 748q51 -20 93 -63t63 -94q15 -36 15 -77q0 -24 -11.5 -43t-26 -35t-26 -30t-11.5 -28
t8.5 -22t20.5 -15t24.5 -15.5t19.5 -21.5q17 -34 17 -73q0 -37 -11.5 -72t-32.5 -65.5t-50 -54.5t-65 -39q-66 -26 -133 -26q-68 0 -132 26q-33 14 -61.5 37t-50.5 52.5t-34.5 64.5t-12.5 73q0 21 4 41.5t12 39.5q5 12 17.5 19.5t25.5 14.5t23 15.5t10 21.5q0 12 -12 25.5
t-26.5 29t-26.5 35t-12 43.5q0 43 15 79q21 51 63 93.5t93 63.5q52 20 105 20q56 0 106 -20zM323 169q12 0 28.5 4t31.5 11.5t25.5 19t10.5 27.5q0 15 -10 27t-24.5 20t-31.5 12.5t-30 4.5q-12 0 -29.5 -4t-33 -11.5t-26.5 -20t-11 -28.5q0 -15 10.5 -27t26 -19.5
t32.5 -11.5t31 -4z" />
    <glyph glyph-name="ellipsis" unicode="&#x2026;" horiz-adv-x="889" 
d="M742 -27q-20 0 -39 9.5t-34.5 25t-25 34.5t-9.5 39q0 19 9.5 38.5t25 35t34.5 25.5t39 10q19 0 38 -10t34.5 -25.5t25 -35t9.5 -38.5q0 -20 -9.5 -39t-25 -34.5t-34.5 -25t-38 -9.5zM446 -27q-20 0 -39 9.5t-34.5 25t-25 34.5t-9.5 39q0 19 9.5 38.5t25 35t34.5 25.5
t39 10q19 0 38.5 -10t35 -25.5t25 -35t9.5 -38.5q0 -20 -9.5 -39t-25 -34.5t-35 -25t-38.5 -9.5zM148 -25q-20 0 -39 9.5t-34.5 25t-25 34.5t-9.5 39q0 19 9.5 38.5t25 35t34.5 25t39 9.5q19 0 38.5 -9.5t35 -25t25 -35t9.5 -38.5q0 -20 -9.5 -39t-25 -34.5t-35 -25
t-38.5 -9.5z" />
    <glyph glyph-name="emdash" unicode="&#x2014;" horiz-adv-x="789" 
d="M31 268q-12 11 -17.5 29t-5.5 37t5.5 36.5t17.5 29.5q21 21 47.5 29.5t56.5 8.5t62.5 -6t65.5 -13t65.5 -13t62.5 -6q31 0 64 6t67 13t67 13t63 6q31 0 57.5 -8t48.5 -30q11 -12 17 -29.5t6 -36.5t-6 -37t-17 -29q-21 -21 -48 -29.5t-57 -8.5t-62.5 6t-65.5 13t-66 13
t-63 6t-63 -6t-66.5 -13t-66.5 -13t-63 -6q-31 0 -57.5 8t-48.5 30z" />
    <glyph glyph-name="endash" unicode="&#x2013;" horiz-adv-x="522" 
d="M31 268q-12 11 -17.5 29t-5.5 37t5.5 36.5t17.5 29.5q13 13 28.5 17.5t33.5 4.5t37 -3.5t38.5 -7.5t38.5 -7.5t37 -3.5q21 0 43 4t44.5 9t44.5 9t43 4q20 0 39 -6t33 -20q11 -12 17 -29.5t6 -36.5t-6 -37t-17 -29q-14 -14 -33 -20t-39 -6q-21 0 -43 4t-44.5 9t-44.5 9
t-43 4q-18 0 -37 -3.5t-38.5 -7.5t-38.5 -7.5t-37 -3.5t-33.5 4.5t-28.5 17.5z" />
    <glyph glyph-name="equal" unicode="=" horiz-adv-x="533" 
d="M53 433q-10 9 -14.5 23.5t-4.5 30.5t4.5 30.5t14.5 24.5q11 11 23.5 15t27.5 4q29 0 63 -9.5t63 -9.5q21 0 43.5 4t45 9t45 9t43.5 4t39 -5.5t33 -20.5q19 -19 19 -55q0 -16 -5 -30.5t-14 -23.5q-13 -13 -29 -18t-35 -5t-39 3.5t-40.5 8t-41 8t-38.5 3.5q-34 0 -72 -10.5
t-72 -10.5q-17 0 -32 4.5t-27 16.5zM53 240q-10 10 -15 24.5t-5 30.5t5 30.5t15 24.5q12 12 27 16.5t32 4.5q36 0 73.5 -10.5t72.5 -10.5q18 0 38 3.5t40.5 8t40.5 8t38 3.5q19 0 35 -5t29 -18q10 -10 14.5 -24.5t4.5 -30.5t-4.5 -30.5t-14.5 -24.5q-11 -11 -24.5 -15.5
t-29.5 -4.5q-31 0 -66 10t-66 10q-20 0 -41.5 -4t-43.5 -8.5t-43.5 -8.5t-41.5 -4t-38 5.5t-32 19.5z" />
    <glyph glyph-name="eth" unicode="&#xf0;" horiz-adv-x="680" 
d="M675 247q0 -44 -20 -84t-53 -72.5t-75 -56t-85 -34.5q-31 -8 -63 -13t-65 -5q-26 0 -52 4t-52 14q-51 19 -93 59.5t-64 91.5q-21 49 -21 109q0 57 21 107q10 24 37.5 41.5t56.5 33t51.5 30.5t22.5 33q0 8 -12.5 17t-27 19t-27 21t-12.5 23t13 18.5t28 12t28 12t13 18.5
q0 9 -7.5 15t-17 12t-17 12t-7.5 15q0 18 11.5 33t28.5 26.5t37 18t38 6.5q9 0 14.5 -9t10 -19.5t10 -19t14.5 -8.5q10 0 18 7.5t15.5 17t15.5 17t18 7.5q16 0 31.5 -9.5t27.5 -24t19 -32.5t7 -34q0 -10 -10 -15t-22 -8.5t-22 -8.5t-10 -15q0 -16 8.5 -28.5t20.5 -23t26 -21
t25 -22.5q27 -28 56.5 -61.5t54.5 -70.5t41 -76.5t16 -79.5zM306 554q-6 0 -14 -3.5t-15.5 -9.5t-12.5 -13t-5 -14q0 -3 5 -4.5t12 -2t14 -0.5h12q14 0 24 4t10 15q0 10 -10 19t-20 9zM466 254q0 18 -9 40t-23.5 41t-33.5 31.5t-39 12.5q-15 0 -30 -1.5t-24 -3.5
q-27 -8 -46.5 -30t-32.5 -48q-7 -13 -7 -35q0 -21 7 -35q5 -11 15 -22t22.5 -20t26.5 -14.5t28 -5.5q15 0 40 3t48.5 12.5t40.5 27t17 47.5z" />
    <glyph glyph-name="exclam" unicode="!" horiz-adv-x="340" 
d="M79 424q0 31 -6 62t-13.5 61t-13.5 58.5t-6 55.5t8.5 52t30.5 47q16 16 40.5 24t50.5 8t50 -7.5t41 -24.5q23 -21 31 -46t8 -52t-6 -55.5t-13.5 -58t-13.5 -60.5t-6 -62q0 -24 7.5 -52.5t7.5 -54.5q0 -28 -15 -43q-17 -17 -41 -24.5t-50 -7.5t-50.5 7.5t-40.5 24.5
q-15 15 -15 43q0 25 7.5 53.5t7.5 51.5zM175 -15q-20 0 -40 10t-36 26t-26 36t-10 40t10 40t26 36t36 26t40 10t40 -10t36 -26t26 -36t10 -40t-10 -40t-26 -36t-36 -26t-40 -10z" />
    <glyph glyph-name="exclamdown" unicode="&#xa1;" horiz-adv-x="342" 
d="M262 141q0 -31 6 -62t13.5 -61t13.5 -58.5t6 -55.5t-8.5 -52t-30.5 -47q-17 -17 -41 -24.5t-50 -7.5t-50 7.5t-41 24.5q-21 23 -30 47t-9 51t6 55.5t13.5 58t13.5 60t6 62.5q0 25 -7.5 53t-7.5 54q0 28 15 43q16 16 40.5 24t50.5 8t50 -8t41 -24q8 -8 11 -18.5t3 -23.5
q0 -25 -7 -54t-7 -52zM166 580q20 0 40 -10t36 -26t26 -36t10 -40t-10 -40t-26 -36t-36 -26t-40 -10t-40 10t-36 26t-26 36t-10 40t10 40t26 36t36 26t40 10z" />
    <glyph glyph-name="f" unicode="f" horiz-adv-x="412" 
d="M254 769q23 0 46.5 -12t42 -30.5t30.5 -42t12 -46.5q0 -26 -20.5 -42t-44.5 -29q-18 -9 -35 -20.5t-23 -25.5q-9 -20 -9 -42q0 -10 4 -19.5t17 -9.5q15 0 34.5 8t37.5 8q15 0 26 -9.5t18 -24t10 -30.5t3 -29q0 -12 -3 -27.5t-9.5 -30t-17 -24.5t-26.5 -10q-19 0 -37.5 9
t-37.5 7q-8 0 -13.5 -5.5t-8.5 -13.5t-4.5 -16.5t-1.5 -15.5q0 -19 5.5 -42t13.5 -47t13.5 -47.5t5.5 -46.5q0 -17 -4.5 -32.5t-17.5 -27.5q-17 -17 -41.5 -25t-49.5 -8q-28 0 -51.5 8t-39.5 25q-12 12 -17 27.5t-5 32.5q0 23 5.5 46.5t13.5 47.5t13.5 47t5.5 42
q0 13 -4 29.5t-12 16.5q-7 0 -14 -3t-15 -3q-14 0 -23 9.5t-14 23.5t-7.5 28.5t-2.5 25.5q0 7 2.5 21.5t8 29.5t14 26t19.5 11q8 0 14 -3.5t14 -3.5t10.5 9.5t2.5 16.5q0 9 -2.5 20.5t-5.5 22.5q-4 12 -6.5 24.5t-2.5 24.5q0 26 16.5 54t31.5 50q26 38 59.5 65.5t76.5 27.5z
" />
    <glyph glyph-name="five" unicode="5" horiz-adv-x="661" 
d="M151 280q18 0 29.5 -13t22 -30l21 -34t27.5 -24q29 -13 66 -13q19 0 41 5t41 16t31.5 28t12.5 41q0 20 -9.5 36.5t-24.5 28t-34.5 17.5t-38.5 6q-24 0 -49 -5.5t-50 -12t-49.5 -12t-46.5 -5.5q-36 0 -62.5 21.5t-26.5 62.5q0 33 10.5 70t10.5 70q0 35 -8 75.5t-8 75.5
q0 40 26 64t69 24q21 0 42.5 -4t43.5 -9t43 -9t42 -4q22 0 46 3.5t48 7.5t47.5 7.5t45.5 3.5q47 0 77 -30.5t30 -79.5q0 -20 -5.5 -40t-17 -36t-29 -25.5t-41.5 -9.5t-51.5 7t-55.5 16t-55.5 16t-51.5 7q-11 0 -24 -3t-24 -9t-18 -16t-7 -25q0 -22 17 -34t39 -12
q15 0 30.5 3.5t31.5 8t32.5 8t32.5 3.5q31 0 61 -14.5t56 -38t46 -52t31 -56.5q19 -47 19 -99q0 -55 -19 -99q-21 -52 -63.5 -94t-93.5 -64q-32 -14 -67 -20t-70 -6q-36 0 -70.5 6t-66.5 20q-26 10 -53.5 25.5t-50 35t-37.5 43.5t-15 52q0 22 11 44t29 40t40 29t44 11z" />
    <glyph glyph-name="florin" unicode="&#x192;" horiz-adv-x="450" 
d="M454 383q0 -12 -3 -28t-9.5 -30.5t-17.5 -24.5t-27 -10q-9 0 -19 3l-20 6q-9 3 -17.5 6t-15.5 3q-11 0 -19.5 -9.5t-13.5 -23t-7.5 -28t-2.5 -24.5q0 -26 4.5 -55.5t10.5 -61.5t11.5 -65t5.5 -65q0 -17 -2.5 -33.5t-9.5 -32.5q-15 -38 -47.5 -68.5t-69.5 -47.5
q-23 -11 -52 -18.5t-56 -7.5q-22 0 -41 6t-34 21q-15 16 -22.5 37.5t-7.5 44.5q0 24 7.5 45.5t22.5 36.5q12 13 29 10.5t35 -8.5q8 -2 15.5 -4.5t14.5 -2.5q9 0 14 5q15 14 24 26t13.5 26t5.5 31.5t1 42.5q0 23 -3.5 54.5t-9.5 62t-13 56.5t-14 38q-2 2 -4 5t-7 3
q-14 0 -26 -6t-26 -6q-11 0 -20 10q-30 30 -30 81q0 23 7.5 45t22.5 37q7 9 20 9q5 0 13.5 -2.5t17.5 -5t17 -3.5t11 2q6 6 8 12.5t2 14.5q0 5 -1.5 12l-3 14t-3 12.5t-1.5 6.5q-6 20 -8.5 41t5.5 40q10 23 25 45.5t33.5 41.5t40 33.5t45.5 22.5q26 9 57.5 13.5t60.5 4.5
q34 0 54 -21q15 -16 22 -37t7 -44q0 -24 -6.5 -44.5t-22.5 -36.5q-11 -11 -25 -11q-16 0 -31.5 5t-32.5 5q-13 0 -25 -15q-13 -14 -18 -35t-5 -41q0 -6 1 -13.5t4 -14.5t8.5 -12t13.5 -5q10 -1 20 2t20 6.5t20 6.5t21 3q17 0 29 -12q16 -15 23 -37t7 -45z" />
    <glyph glyph-name="four" unicode="4" horiz-adv-x="665" 
d="M420 782q16 0 36.5 -11t38.5 -27.5t30.5 -36t12.5 -37.5q0 -16 -13 -30t-29 -27.5t-29 -26.5t-13 -27q0 -8 4.5 -14t13.5 -6q12 0 28.5 7t30.5 7q16 0 23.5 -16.5t7.5 -31.5q0 -17 -4.5 -35.5t-10.5 -38t-10.5 -38.5t-4.5 -35q0 -6 1.5 -14t5 -15.5t9 -12.5t14.5 -5
q12 0 25.5 5.5t24.5 5.5q12 0 20.5 -11.5t14 -27t8 -31.5t2.5 -25q0 -8 -2.5 -24t-7.5 -31.5t-14 -27.5t-21 -12q-12 -1 -26 5.5t-26 6.5q-11 0 -17 -10.5t-6 -21.5q0 -10 3 -21.5t6.5 -23t6 -22.5t2.5 -21q0 -15 -10.5 -26t-25.5 -17.5t-31.5 -9.5t-29.5 -3
q-12 0 -28.5 2.5t-32 9.5t-26 18t-10.5 28q1 20 9.5 43t8.5 43q0 13 -7 22.5t-18 15.5t-24 9t-25 3q-29 0 -57.5 -9t-57 -19.5t-56 -19t-53.5 -8.5q-29 0 -47 10.5t-18 42.5q0 31 9 61t21.5 57.5t27.5 52t28 45.5q15 24 38.5 63.5t52 84.5t59.5 91t61.5 83.5t58 61
t48.5 23.5zM268 315q0 -4 5 -7t12 -4.5t15 -2.5t13 -1q12 0 29 3t25 11q7 6 8 15.5t0 20t-3 21t-1 20.5q1 7 5 16.5t7.5 17t4.5 13t-5 5.5q-9 0 -16.5 -6t-13.5 -14t-11.5 -17.5t-11.5 -15.5q-9 -9 -19.5 -18t-20 -18.5t-16 -19t-6.5 -19.5z" />
    <glyph glyph-name="g" unicode="g" horiz-adv-x="670" 
d="M602 314q3 -6 9.5 -10l13 -8t11.5 -8.5t5 -11.5t-5 -11.5t-11.5 -8.5l-13 -8t-9.5 -10q-6 -14 -8.5 -29.5t-2.5 -31.5q0 -31 5.5 -62t5.5 -62q0 -56 -21 -107.5t-57.5 -91t-86.5 -63t-107 -23.5q-28 0 -64 11t-68.5 31t-55 49t-22.5 64q0 13 13 26.5t30.5 26t35 22.5
t26.5 17q7 6 7 9q0 4 -9 4q-8 0 -14.5 -1t-14.5 -1q-15 0 -30 3.5t-30 12.5q-28 17 -48 46.5t-33 59.5q-14 32 -20 66.5t-6 69.5q0 69 25 133t85 106q71 49 160 49q14 0 30 -1.5t31.5 -6t29.5 -13.5t24 -23q5 -8 9 -14t10 -6t9 5t3 11q0 8 -2 17t-2 16q0 8 6 13.5t14 8.5
q13 5 27 8.5t30 3.5q20 0 40.5 -5t37.5 -16q12 -8 22 -19t10 -28q0 -20 -10 -42.5t-14 -42.5t-5.5 -41.5t-1.5 -42.5q0 -25 7 -40zM274 26q-10 0 -10 -4q0 -5 10 -14.5t24.5 -18.5t29.5 -15.5t26 -6.5q20 0 38 11.5t18 31.5q0 14 -7.5 22t-25.5 8q-22 0 -51.5 -7t-51.5 -7z
M442 275q0 30 -20 59.5t-49 46.5q-14 8 -32 13.5t-38 5.5q-26 0 -45 -11.5t-30 -38.5q-14 -34 -14 -66q0 -30 14 -61q11 -23 35.5 -37t52.5 -14q14 0 29 3.5t28 11.5q27 17 48 39t21 49z" />
    <glyph glyph-name="germandbls" unicode="&#xdf;" horiz-adv-x="571" 
d="M75 256q0 3 -0.5 10t-3 14.5t-6 13t-9.5 5.5q-4 0 -8.5 -2t-9.5 -2q-7 0 -12 7t-8.5 16t-5 19t-1.5 16q0 4 0.5 13.5t2.5 19.5t5.5 18t9.5 8q4 0 9 -2t10 -2q8 0 10 9.5t1 15.5q-1 11 -2.5 30t-1.5 30q0 26 4 51t14 49q13 32 33 63.5t46 56.5t56.5 40.5t65.5 15.5
q48 0 97.5 -22.5t89 -59t65 -84t25.5 -97.5q0 -21 -18 -34.5t-39.5 -25t-39.5 -24.5t-18 -33q0 -18 16 -24.5t36 -9.5t38 -7.5t23 -19.5q11 -33 11 -71q0 -43 -13.5 -86.5t-37.5 -83t-56 -73t-68 -56.5q-6 -4 -14.5 -8t-17.5 -4q-12 0 -24 9t-24 19.5t-23.5 19.5t-22.5 9
q-2 0 -8 -1.5t-6 -5.5q0 -3 2 -7t2 -8q0 -8 -11.5 -15t-27 -11.5t-30 -7t-20.5 -2.5q-25 0 -48.5 7.5t-38.5 23.5q-18 18 -25 40.5t-7 48.5q0 24 5.5 48t11.5 47.5t11.5 47t5.5 48.5zM271 290q-17 0 -26 -15.5t-9 -32.5q0 -14 3.5 -29.5t7 -32t7 -32t3.5 -29.5q0 -11 5 -11
q6 0 17 14.5t21.5 35t18 43.5t7.5 40q0 20 -17 34.5t-38 14.5zM247 518q-6 -15 -6 -33q0 -17 3 -35t3 -35q0 -9 6 -9q7 0 18.5 9.5t22.5 23.5t18.5 29t7.5 26q0 17 -16 32.5t-33 15.5q-8 0 -14.5 -8t-9.5 -16z" />
    <glyph glyph-name="grave" unicode="`" horiz-adv-x="0" 
d="M319 654q-1 -22 -21.5 -40.5t-42.5 -19.5q-9 0 -15.5 5t-12 11.5t-11 14.5t-11.5 14q-11 10 -26.5 18.5t-29.5 17.5t-24 20t-10 26q0 13 7 26.5t18 24.5t24.5 18t26.5 7q15 0 26 -10t20 -24.5t17.5 -30.5t18.5 -27q6 -6 13.5 -11.5t15 -11.5t12.5 -12.5t5 -15.5z" />
    <glyph glyph-name="greater" unicode="&#x3e;" horiz-adv-x="395" 
d="M104 52q-14 0 -27.5 7t-24.5 18t-18 24.5t-7 27.5q0 24 15.5 42t38.5 33t49.5 28t49.5 28t38.5 33t15.5 42q0 25 -15.5 43t-38 32.5t-49.5 28t-49.5 28t-38 32.5t-15.5 43q0 13 7 27t18 25t24.5 18t27.5 7q24 0 41 -14.5t31.5 -34.5t28 -43t30.5 -39q19 -18 45 -34.5
t50 -33.5t40.5 -37.5t16.5 -47.5q0 -23 -14 -40t-34 -31.5t-42.5 -28t-38.5 -29.5q-20 -19 -36 -45.5t-33.5 -50.5t-37.5 -41t-48 -17z" />
    <glyph glyph-name="guillemotleft" unicode="&#xab;" horiz-adv-x="752" 
d="M427 96q0 -17 -8.5 -34t-22.5 -31t-31 -22.5t-34 -8.5q-50 0 -99.5 25t-89 65t-64.5 89.5t-25 99.5q0 49 25 99t64.5 90t89 65t99.5 25q17 0 34 -8.5t31 -22.5t22.5 -31t8.5 -34q0 -22 -13.5 -38t-34.5 -29t-44.5 -24.5t-44.5 -24.5t-34.5 -29t-13.5 -38t13.5 -38
t34.5 -29t44.5 -24.5t44.5 -24.5t34.5 -29t13.5 -38zM698 96q0 -17 -8.5 -34t-22 -31t-30.5 -22.5t-34 -8.5q-26 0 -45 16t-35.5 38.5t-32 48t-33.5 43.5q-17 16 -40 30.5t-43.5 29.5t-35 32.5t-14.5 40.5q0 24 15 42t36 33t44 29t40 31q18 18 33 42.5t31 47t35 38.5t45 16
q17 0 34 -8.5t30.5 -22.5t22 -31t8.5 -34q0 -22 -13.5 -38t-34 -29t-44 -25t-44 -25t-34 -29t-13.5 -37q0 -22 13.5 -38t34 -29t44 -25t44 -25t34 -29t13.5 -37z" />
    <glyph glyph-name="guillemotright" unicode="&#xbb;" horiz-adv-x="752" 
d="M421 1q-17 0 -34 8.5t-31 22.5t-23 31t-9 34q0 22 14 38t34.5 29t44.5 24.5t44.5 24.5t34.5 29t14 38t-14 38t-34.5 29t-44.5 24.5t-44.5 24.5t-34.5 29t-14 38q0 17 9 34t23 31t31 22.5t34 8.5q49 0 98.5 -25t89 -65t64.5 -90t25 -99q0 -50 -25 -99.5t-64.5 -89.5
t-89 -65t-98.5 -25zM148 1q-17 0 -34 8.5t-30.5 22.5t-22 31t-8.5 34q0 21 13.5 37t34 29t44 25t44 25t34 29t13.5 38q0 21 -13.5 37t-34 29.5t-44 25t-44 25t-34 29.5t-13.5 37q0 17 8.5 34t22 31t30.5 22.5t34 8.5q24 0 42 -15t33.5 -36.5t30 -45t31.5 -40.5
q18 -18 42 -33t46.5 -31t38 -34.5t15.5 -43.5q0 -24 -15 -42t-36 -33t-44.5 -29.5t-40.5 -31.5q-18 -18 -33 -42.5t-31 -47t-35 -38t-44 -15.5z" />
    <glyph glyph-name="guilsinglleft" unicode="&#x2039;" horiz-adv-x="481" 
d="M427 100q0 -17 -8.5 -34t-22 -31t-30.5 -22.5t-34 -8.5q-50 0 -99.5 25t-89.5 65t-65 89.5t-25 99.5q0 49 25 99t65 90t89.5 65t99.5 25q17 0 34 -8.5t30.5 -22.5t22 -31t8.5 -34q0 -22 -13.5 -38t-34 -29t-44 -25t-44 -25t-34 -29t-13.5 -37q0 -22 13.5 -38t34 -29
t44 -25t44 -25t34 -29t13.5 -37z" />
    <glyph glyph-name="guilsinglright" unicode="&#x203a;" horiz-adv-x="481" 
d="M148 5q-17 0 -34 8.5t-30.5 22.5t-22 31t-8.5 34q0 21 13.5 37t34 29t44 25t44 25t34 29t13.5 38q0 21 -13.5 37t-34 29t-44 25t-44 25t-34 29t-13.5 38q0 17 8.5 34t22 31t30.5 22.5t34 8.5q49 0 99 -25t90 -65t65 -90t25 -99q0 -50 -25 -99.5t-65 -89.5t-90 -65
t-99 -25z" />
    <glyph glyph-name="h" unicode="h" horiz-adv-x="668" 
d="M248 770q10 -10 14 -23t4 -28q0 -23 -7.5 -50t-16 -54t-16 -52.5t-7.5 -46.5q0 -16 9.5 -33.5t31.5 -17.5q11 0 19.5 8t17 19.5t17.5 23.5t21 21q24 17 47 21.5t46 4.5q61 0 101 -31.5t66 -92.5q24 -58 38.5 -126.5t14.5 -135.5q0 -51 -9.5 -97t-43.5 -80
q-16 -16 -38 -24t-47 -8q-26 0 -49 8t-39 24q-22 22 -30 48.5t-8 56.5q0 28 6 58.5t13 61.5t13 62t6 62q0 25 -25 25q-23 0 -46.5 -15t-43.5 -37t-35.5 -46.5t-23.5 -43.5q-4 -8 -5 -17t-1 -19q0 -18 4 -36.5t8.5 -37t8.5 -37t4 -34.5q0 -14 -4 -27t-15 -24
q-16 -16 -39.5 -23.5t-48.5 -7.5q-26 0 -49 7.5t-38 23.5q-27 27 -37.5 60t-10.5 71q0 37 7.5 77.5t16.5 82t16.5 82.5t7.5 79q0 27 -5 55.5t-11.5 57.5t-11.5 57.5t-5 55.5q0 26 7 49.5t26 42.5q15 15 38 23t49 8q25 0 48.5 -8t39.5 -23z" />
    <glyph glyph-name="hyphen" unicode="-" horiz-adv-x="498" 
d="M53 268q-12 12 -17.5 29.5t-5.5 36.5t5.5 36.5t17.5 29.5q17 17 39.5 19t48 -2t51.5 -10.5t50 -6.5q25 0 53.5 6.5t55.5 11t51.5 2.5t42.5 -20q12 -12 17.5 -29.5t5.5 -36.5t-5.5 -36.5t-17.5 -29.5q-18 -18 -42.5 -20.5t-51.5 2t-55.5 11.5t-53.5 7q-24 0 -50 -6.5
t-51.5 -10.5t-48 -2t-39.5 19z" />
    <glyph glyph-name="i" unicode="i" horiz-adv-x="295" 
d="M239 0q-17 -16 -43 -23.5t-49 -7.5q-24 0 -49.5 7.5t-41.5 23.5q-15 14 -20.5 32t-5.5 38t5 42t11 44.5t11 44.5t5 42q0 26 -4.5 53t-9.5 54.5t-9.5 54.5t-4.5 53t6.5 48.5t23.5 40.5q14 15 36.5 23t46.5 8q23 0 46 -8t38 -23q17 -18 23.5 -40.5t6.5 -48.5t-4.5 -53
t-9.5 -54.5t-9.5 -54.5t-4.5 -53q0 -20 5 -42t11 -44.5t11 -44.5t5 -42t-5.5 -38t-20.5 -32zM148 601q-17 0 -35.5 7.5t-33.5 20t-25 29t-10 33.5t10 33.5t25 29t33.5 20.5t35.5 8t35.5 -8t34 -20.5t25.5 -29t10 -33.5t-10 -33.5t-25.5 -29t-34 -20t-35.5 -7.5z" />
    <glyph glyph-name="iacute" unicode="&#xed;" horiz-adv-x="289" 
d="M228 0q-15 -15 -37.5 -22.5t-46.5 -7.5t-46 7.5t-37 22.5q-17 17 -24 39t-7 47t5 52t10.5 54t10.5 54t5 52q0 21 -4 44t-9 46t-9 46t-4 44t5.5 39.5t20.5 33.5t37 22.5t46 7.5t46.5 -7.5t37.5 -22.5t20.5 -33.5t5.5 -39.5t-4 -44t-9 -46t-9 -46t-4 -44q0 -25 5 -52
t10.5 -54t10.5 -54t5 -52t-7 -47t-24 -39zM119 607q-11 0 -22 5.5t-20.5 14t-15.5 19t-6 21.5q0 13 13 21.5t23 18.5q12 13 21 31t19.5 34.5t23 28.5t30.5 12q13 0 26.5 -7t24.5 -18t18 -24.5t7 -26.5q0 -18 -12 -31t-29 -24.5t-35.5 -21.5t-31.5 -22q-8 -8 -15.5 -19.5
t-18.5 -11.5z" />
    <glyph glyph-name="icircumflex" unicode="&#xee;" horiz-adv-x="289" 
d="M228 0q-15 -15 -37.5 -22.5t-46.5 -7.5t-46 7.5t-37 22.5q-17 17 -24 39t-7 47t5 52t10.5 54t10.5 54t5 52q0 21 -4 44t-9 46t-9 46t-4 44t5.5 39.5t20.5 33.5t37 22.5t46 7.5t46.5 -7.5t37.5 -22.5t20.5 -33.5t5.5 -39.5t-4 -44t-9 -46t-9 -46t-4 -44q0 -25 5 -52
t10.5 -54t10.5 -54t5 -52t-7 -47t-24 -39zM228 606q-15 0 -24 13t-17.5 29t-17.5 29t-24 13t-24 -13t-17 -29t-17 -29t-24 -13q-18 0 -34.5 17t-16.5 35t16.5 41t38 44t44 35.5t34.5 14.5t34.5 -14.5t44.5 -35.5t38.5 -44t16.5 -41t-16.5 -35t-34.5 -17z" />
    <glyph glyph-name="idieresis" unicode="&#xef;" horiz-adv-x="289" 
d="M228 0q-15 -15 -37.5 -22.5t-46.5 -7.5t-46 7.5t-37 22.5q-17 17 -24 39t-7 47t5 52t10.5 54t10.5 54t5 52q0 21 -4 44t-9 46t-9 46t-4 44t5.5 39.5t20.5 33.5t37 22.5t46 7.5t46.5 -7.5t37.5 -22.5t20.5 -33.5t5.5 -39.5t-4 -44t-9 -46t-9 -46t-4 -44q0 -25 5 -52
t10.5 -54t10.5 -54t5 -52t-7 -47t-24 -39zM286 627q-9 -11 -23 -16t-29 -5t-29 5t-23 16q-7 7 -7 21q0 6 0.5 12.5t0.5 12.5q0 17 -5 28t-5 22t10 21q21 21 58 21t58 -21q10 -10 10 -21t-5 -22.5t-5 -28.5q0 -6 0.5 -12t0.5 -12q0 -14 -7 -21zM112 627q-9 -11 -23 -16
t-29 -5t-29 5t-23 16q-7 7 -7 20q0 6 0.5 12.5t0.5 12.5q0 16 -5 28t-5 23t10 21q21 21 58 21t58 -21q10 -10 10 -21t-5 -22.5t-5 -28.5q0 -6 0.5 -12t0.5 -12q0 -14 -7 -21z" />
    <glyph glyph-name="igrave" unicode="&#xec;" horiz-adv-x="289" 
d="M228 0q-15 -15 -37.5 -22.5t-46.5 -7.5t-46 7.5t-37 22.5q-17 17 -24 39t-7 47t5 52t10.5 54t10.5 54t5 52q0 21 -4 44t-9 46t-9 46t-4 44t5.5 39.5t20.5 33.5t37 22.5t46 7.5t46.5 -7.5t37.5 -22.5t20.5 -33.5t5.5 -39.5t-4 -44t-9 -46t-9 -46t-4 -44q0 -25 5 -52
t10.5 -54t10.5 -54t5 -52t-7 -47t-24 -39zM242 664q-1 -22 -21.5 -40.5t-42.5 -19.5q-9 0 -15.5 5t-12 11.5t-11 14.5t-11.5 14q-11 10 -26.5 18.5t-29.5 17.5t-24 20t-10 26q0 13 7 26.5t18 24.5t24.5 18t26.5 7q15 0 26 -10t20 -24.5t17.5 -30.5t18.5 -27q6 -6 13.5 -11.5
t15 -11.5t12.5 -12.5t5 -15.5z" />
    <glyph glyph-name="j" unicode="j" horiz-adv-x="308" 
d="M247 547q18 -18 24.5 -40t6.5 -47t-5 -52.5t-10.5 -55t-10.5 -55.5t-5 -53q0 -39 4 -70t8 -61q3 -26 3 -49q0 -42 -10.5 -81t-35.5 -82q-15 -26 -33 -49.5t-39 -41.5t-44.5 -29t-50.5 -11q-22 0 -43.5 11.5t-39 29t-28 39.5t-10.5 43q0 25 18.5 41.5t43 31.5t48 30.5
t33.5 38.5q11 24 15 50.5t4 53.5q0 38 -6 73.5t-13 70.5q-8 40 -20 86t-12 88q0 26 7 49t25 41q16 16 39 23.5t49 7.5q25 0 48.5 -7.5t39.5 -23.5zM159 602q-17 0 -35.5 7.5t-33.5 20.5t-25 29.5t-10 33.5t10 33t25 29t33.5 20.5t35.5 7.5t35.5 -7.5t34 -20t25.5 -29
t10 -33.5q0 -18 -10 -34t-25.5 -29t-34 -20.5t-35.5 -7.5z" />
    <glyph glyph-name="k" unicode="k" horiz-adv-x="617" 
d="M270 202q-6 3 -15 3q-11 0 -16 -15t-5 -25q0 -15 4.5 -31t9.5 -33t9.5 -33t4.5 -31q0 -23 -14 -37q-16 -16 -39.5 -23.5t-48.5 -7.5q-26 0 -49 7.5t-38 23.5q-23 23 -32.5 52.5t-9.5 62.5t6.5 69t14.5 72.5t14.5 72.5t6.5 69q0 31 -6 64.5t-13.5 67.5t-13.5 67.5t-6 64.5
t8.5 58.5t30.5 49.5q15 15 38 23t49 8q25 0 48.5 -8t39.5 -23q16 -16 22 -35t6 -41q0 -30 -9 -64t-19.5 -68.5t-19 -68t-8.5 -63.5q0 -8 2 -21.5t7 -27t13 -23t20 -9.5q11 0 21 5q23 9 40.5 28t32.5 42t29 47.5t30 44.5t34.5 33t43.5 13q21 0 41.5 -10.5t37.5 -27t27.5 -37
t10.5 -41.5q0 -20 -12.5 -34.5t-32 -26.5t-41.5 -23t-41.5 -23t-32 -26.5t-12.5 -34.5t12.5 -34.5t32 -26.5t41.5 -22.5t41.5 -22.5t32 -26.5t12.5 -34.5q0 -23 -11.5 -46t-29.5 -41t-41 -29.5t-46 -11.5q-25 0 -44 13t-35 33.5t-30.5 45.5t-29.5 49.5t-33 45t-40 32.5z" />
    <glyph glyph-name="l" unicode="l" horiz-adv-x="353" 
d="M240 770q35 -35 48.5 -78.5t13.5 -92.5t-9.5 -102t-21.5 -106.5t-21.5 -106.5t-9.5 -102q0 -15 13.5 -25t29 -18.5t29 -18.5t13.5 -25q0 -23 -11.5 -45.5t-30 -40.5t-41.5 -29t-45 -11q-24 0 -44.5 12.5t-37 32t-30 43.5t-22.5 46q-11 25 -14.5 50.5t-3.5 52.5
q0 54 9 108.5t9 108.5q0 29 -5.5 60t-12.5 63t-12.5 63t-5.5 60t8 55t28 46q16 16 39 23.5t49 7.5t49.5 -7.5t39.5 -23.5z" />
    <glyph glyph-name="less" unicode="&#x3c;" horiz-adv-x="395" 
d="M368 129q0 -14 -7 -27.5t-18 -24.5t-25 -18t-27 -7q-27 0 -47 16.5t-36.5 40.5t-33 50t-35.5 45q-17 16 -39.5 30t-43 28.5t-35 32t-14.5 40.5q0 24 15 42.5t36.5 34t45.5 30.5t41 32q18 18 33 43t31.5 47.5t35.5 38.5t45 16q13 0 27 -7t25 -18t18 -25t7 -27
q0 -24 -15 -42t-38 -33t-49.5 -28.5t-49.5 -28.5t-38 -33t-15 -42t15.5 -42t38 -33t49.5 -28t49.5 -28t38 -33t15.5 -42z" />
    <glyph glyph-name="logicalnot" unicode="&#xac;" horiz-adv-x="615" 
d="M562 530q32 -32 48 -80t16 -100t-16 -100t-48 -80q-14 -14 -35 -21t-43 -7q-14 0 -29.5 3.5t-29 11t-22.5 19.5t-9 30q0 14 4.5 29.5t10 31.5t10.5 31.5t6 29.5q3 45 -18 63.5t-68 18.5q-26 0 -54.5 -7.5t-58 -16.5t-58 -16.5t-53.5 -7.5q-47 0 -69 26t-22 59
q0 24 8 40.5t23 31.5q45 45 113 67.5t141 22.5t140.5 -17t112.5 -62z" />
    <glyph glyph-name="lslash" unicode="&#x142;" horiz-adv-x="315" 
d="M243 794q13 -13 18 -29.5t5 -34.5t-3.5 -38t-8 -39.5t-8 -39.5t-3.5 -38l7 6q14 12 30 1.5t29 -31.5t21 -46.5t5 -43.5q-2 -14 -15 -21t-29 -12.5t-30 -12t-18 -19.5q-14 -44 -14 -93t14 -97q4 -14 18 -24t29 -19t26.5 -19t11.5 -25q0 -23 -11.5 -45.5t-30 -40.5
t-41.5 -29t-45 -11q-24 0 -46 12t-40 31.5t-30.5 43.5t-16.5 47q-3 18 -3 37q0 29 1 53.5t1 49.5q0 18 -15 31.5t-32.5 26.5t-30.5 28.5t-9 37.5q2 13 13.5 20t25.5 12.5t28 11.5t21 18q5 8 6.5 19t1.5 22q0 23 -6 50t-12.5 55.5t-12.5 57.5t-6 56q0 24 6.5 44.5t22.5 36.5
t39 23.5t49 7.5q25 0 48.5 -7.5t39.5 -23.5z" />
    <glyph glyph-name="m" unicode="m" horiz-adv-x="915" 
d="M228 557q4 -4 3.5 -12t-2 -16t-1.5 -14.5t5 -8.5q7 -3 12 2.5t9.5 14t10 17t13.5 11.5q36 15 78 15t78 -15q10 -4 16.5 -14t12.5 -20t13 -18t18 -8q10 0 16.5 7.5t11.5 17.5t11 20t16 14q20 8 43.5 12.5t45.5 4.5q46 0 84 -16t68 -45.5t46 -67.5q24 -58 38 -130t14 -139
q0 -51 -9.5 -93.5t-42.5 -75.5q-16 -16 -39.5 -23.5t-48.5 -7.5q-26 0 -49 7.5t-38 23.5q-17 17 -23 36.5t-6 42.5q0 25 6 53.5t13.5 57.5t13.5 58t6 56q0 7 -0.5 19t-3.5 23t-9.5 19t-18.5 8q-33 0 -58 -16t-39 -51q-9 -23 -9 -48q0 -23 5.5 -47.5t11.5 -49.5t11.5 -49
t5.5 -46q0 -19 -5.5 -35.5t-19.5 -30.5q-16 -16 -39.5 -23.5t-48.5 -7.5q-26 0 -49 7.5t-38 23.5q-14 14 -19.5 31t-5.5 37q0 27 8 57t17 60.5t17 60.5t8 57q0 38 -13.5 53t-48.5 15q-14 0 -26.5 -7t-23 -18t-18.5 -24t-14 -26q-9 -23 -9 -47q0 -23 5 -46.5t11.5 -47.5
t11.5 -47t5 -44q0 -18 -5 -34t-19 -30q-16 -16 -39.5 -23.5t-48.5 -7.5q-26 0 -49 7.5t-38 23.5q-25 25 -34.5 55.5t-9.5 65.5t7 72.5t15 76t15 76t7 72.5q0 23 -9 48.5t-9 48.5q0 20 12 34q14 16 37 24t48 8q21 0 41.5 -5.5t34.5 -18.5z" />
    <glyph glyph-name="macron" unicode="&#xaf;" horiz-adv-x="0" 
d="M403 678q14 -14 14 -37.5t-14 -37.5q-16 -16 -37.5 -18t-45.5 2t-49 10t-48 6q-21 0 -45 -5.5t-46.5 -9.5t-43 -2t-35.5 17q-14 14 -14 37.5t14 37.5q15 15 35.5 17t43 -2t46.5 -9.5t45 -5.5q23 0 48 6t49 10t45.5 2t37.5 -18z" />
    <glyph glyph-name="minus" unicode="&#x2212;" horiz-adv-x="638" 
d="M53 339q-10 10 -15 24.5t-5 30.5t5 30.5t15 24.5q16 16 35 22t42 6q22 0 46 -4.5t48.5 -9.5t48.5 -9.5t46 -4.5t46 4.5t48.5 9.5t48.5 9.5t46 4.5q23 0 42 -6t35 -22q10 -10 14.5 -24.5t4.5 -30.5t-4.5 -30.5t-14.5 -24.5q-16 -16 -35.5 -22t-42.5 -6t-47.5 4.5t-49 9.5
t-49 9.5t-46.5 4.5t-45.5 -4.5t-47.5 -9.5t-47.5 -9.5t-45.5 -4.5t-41 6t-35 22z" />
    <glyph glyph-name="mu" unicode="&#xb5;" horiz-adv-x="732" 
d="M259 40q-17 0 -24.5 -16t-7.5 -30q0 -18 5.5 -40.5t12 -46.5t12 -47.5t5.5 -44.5q0 -15 -4 -28t-14 -22q-14 -14 -34.5 -20.5t-43.5 -6.5q-26 0 -51 9t-41 26q-19 20 -26 44.5t-7 52.5q0 31 7.5 65.5t16 69t16 69t7.5 66.5q0 34 -6.5 71t-14 75t-14 75t-6.5 71
q0 35 10 65t34 54q15 15 38 23t49 8q25 0 48.5 -8t39.5 -23q14 -14 18.5 -30t4.5 -34q0 -21 -5 -43.5t-11.5 -46t-11.5 -47.5t-5 -46q0 -12 1.5 -23.5t6.5 -22.5q6 -15 18.5 -32.5t28.5 -33.5t35 -26.5t37 -10.5q23 0 44.5 17t30.5 40q5 12 7 25t2 27q0 26 -5.5 53.5
t-12.5 55t-12.5 54t-5.5 50.5q0 21 6.5 39.5t22.5 34.5t39 23.5t49 7.5q25 0 48.5 -7.5t39.5 -23.5q32 -32 44.5 -74t12.5 -90q-1 -63 -19 -129t-41 -120q-22 -51 -64 -93t-94 -62q-43 -17 -89 -17q-43 0 -85 17q-8 3 -13 12.5t-9 19.5t-8.5 17.5t-11.5 7.5z" />
    <glyph glyph-name="multiply" unicode="&#xd7;" horiz-adv-x="493" 
d="M98 158q-15 0 -30 7.5t-27 20t-19.5 27.5t-7.5 30q0 30 22.5 46.5t50.5 31.5q25 14 46.5 28t21.5 38q0 23 -21 37t-46 28q-28 15 -50.5 31.5t-22.5 46.5q0 15 7.5 30t19.5 27.5t27.5 20t30.5 7.5q28 0 46 -23t32 -50q14 -25 28 -45.5t37 -20.5t37.5 20t27.5 46
q15 29 32 51.5t46 22.5q15 0 30.5 -7.5t27.5 -19.5t19.5 -27t7.5 -30q0 -29 -23 -46.5t-50 -32.5q-12 -7 -24 -13.5t-22 -14.5t-16 -17t-6 -21t6 -21t15.5 -16.5t22 -14.5t24.5 -14q13 -8 26.5 -15.5t24 -16.5t17 -20t6.5 -26t-7.5 -30t-19.5 -27.5t-27 -20t-30 -7.5
q-29 0 -47 23t-32 52q-13 24 -28 45t-38 21q-11 0 -20.5 -6t-18 -16t-15 -21.5t-12.5 -23.5q-14 -28 -32 -51t-47 -23z" />
    <glyph glyph-name="n" unicode="n" horiz-adv-x="674" 
d="M246 465q14 -5 24 5.5t19 26.5t18.5 32t23.5 22q34 15 75 15t76 -15q38 -17 68 -46t46 -66q25 -57 38 -126t13 -136q0 -51 -10.5 -97t-44.5 -80q-32 -32 -84 -32q-54 0 -86 32q-16 16 -22.5 35.5t-6.5 41.5q0 26 6.5 54t14.5 57t14.5 58t6.5 56q0 9 -1 21t-4.5 23t-11 19
t-19.5 8q-51 0 -90 -30.5t-61 -78.5q-9 -20 -9 -43q0 -20 4.5 -41t10.5 -42.5t10.5 -42t4.5 -39.5q0 -16 -4.5 -30t-16.5 -26q-16 -16 -39.5 -24t-48.5 -8q-26 0 -49 8t-39 24q-21 21 -29.5 47.5t-8.5 56.5t6 62.5t13 65t13 65t6 62.5q0 16 -3.5 34t-8 36t-8 35.5t-3.5 34.5
q0 15 3.5 28t14.5 24q15 16 38.5 24t48.5 8q24 0 47 -7t39 -22q8 -8 6 -21t-5.5 -27t-4.5 -25.5t10 -15.5z" />
    <glyph glyph-name="nine" unicode="9" horiz-adv-x="700" 
d="M220 511q0 -26 15.5 -42.5t39 -26.5t51 -14t50.5 -4q12 0 28 2.5t30.5 9t25 17t10.5 27.5q0 22 -6.5 38t-16.5 26.5t-22 17t-22 11.5q-15 7 -30.5 8.5t-32.5 1.5q-14 0 -34 -4.5t-39.5 -13.5t-33 -22.5t-13.5 -31.5zM137 89q0 15 3.5 33t11.5 33.5t21 26.5t33 11
q24 0 52.5 -9.5t54.5 -9.5q15 0 35.5 7.5t39.5 19.5t32.5 27t13.5 31q0 18 -13.5 28.5t-31.5 10.5q-16 0 -35.5 -5t-40 -11t-41.5 -11t-40 -5q-43 0 -80 23t-64 59t-42.5 79.5t-15.5 84.5q0 37 13 73t35.5 67.5t54 56t67.5 39.5q64 26 138 26q73 0 138 -26q52 -20 94 -63
t64 -94q18 -43 27 -90t9 -95q0 -100 -36 -187q-30 -72 -89 -130t-131 -89q-32 -14 -71 -24t-77 -10q-28 0 -53 7.5t-44 26.5q-16 16 -24 39.5t-8 49.5z" />
    <glyph glyph-name="ntilde" unicode="&#xf1;" horiz-adv-x="674" 
d="M246 465q14 -5 24 5.5t19 26.5t18.5 32t23.5 22q34 15 75 15t76 -15q38 -17 68 -46t46 -66q25 -57 38 -126t13 -136q0 -51 -10.5 -97t-44.5 -80q-32 -32 -84 -32q-54 0 -86 32q-16 16 -22.5 35.5t-6.5 41.5q0 26 6.5 54t14.5 57t14.5 58t6.5 56q0 9 -1 21t-4.5 23t-11 19
t-19.5 8q-51 0 -90 -30.5t-61 -78.5q-9 -20 -9 -43q0 -20 4.5 -41t10.5 -42.5t10.5 -42t4.5 -39.5q0 -16 -4.5 -30t-16.5 -26q-16 -16 -39.5 -24t-48.5 -8q-26 0 -49 8t-39 24q-21 21 -29.5 47.5t-8.5 56.5t6 62.5t13 65t13 65t6 62.5q0 16 -3.5 34t-8 36t-8 35.5t-3.5 34.5
q0 15 3.5 28t14.5 24q15 16 38.5 24t48.5 8q24 0 47 -7t39 -22q8 -8 6 -21t-5.5 -27t-4.5 -25.5t10 -15.5zM374 707q15 0 24 13t17 29t17 29t24 13q18 0 34.5 -17t16.5 -35q0 -24 -12 -48t-31 -43.5t-42.5 -31.5t-47.5 -12q-15 0 -24 13t-17.5 29t-17.5 29t-24 13t-24 -13
t-17.5 -29t-17.5 -29t-24 -13q-18 0 -34.5 17t-16.5 35q0 24 12 48t31 43.5t43 31.5t48 12q15 0 24 -13t17.5 -29t17.5 -29t24 -13z" />
    <glyph glyph-name="numbersign" unicode="#" horiz-adv-x="802" 
d="M372 429q-12 -11 -18 -27.5t-6 -33.5q0 -24 13 -40q9 -11 28 -11t32 10q12 11 19 28.5t7 34.5q0 23 -13 38q-11 12 -29 12q-9 0 -17.5 -2.5t-15.5 -8.5zM323 -1q-17 -15 -40.5 -22.5t-49.5 -7.5q-25 0 -45.5 6.5t-32.5 22.5q-8 10 -8 21q0 14 5.5 28.5t12.5 28.5
q8 17 14.5 32t6.5 28q0 14 -8 26t-25 12t-33.5 -8t-35.5 -8q-8 0 -15 6q-12 11 -17 28t-5 37q0 30 11.5 59.5t31.5 46.5q6 6 17 6q17 0 34 -7t37 -7q22 0 33 20t11 40q0 16 -8 29.5t-27 13.5t-36 -8t-37 -8q-8 0 -15 6q-12 11 -16 28t-4 36q0 11 3.5 30t11 37.5t19 32
t26.5 13.5q17 0 33 -7t36 -7q21 0 31 16t10 38q0 19 -4 37.5t-4 40.5q0 19 9.5 32t24.5 21t33.5 11t35.5 3q10 0 25 -2t28 -7.5t22.5 -15t9.5 -24.5q0 -11 -5.5 -26t-12.5 -31q-7 -15 -12.5 -29.5t-5.5 -28.5t8 -24.5t24 -10.5q21 0 31 15t10 37q0 10 -1 20t-3 20
q-4 20 -4 39t10 32t25 20.5t33.5 10.5t35.5 3q10 0 24.5 -2.5t28.5 -8t24 -15t10 -23.5q0 -11 -5.5 -25.5t-12.5 -29.5t-12.5 -29.5t-5.5 -28.5q0 -13 7.5 -24.5t24.5 -11.5q18 0 34 8t35 8q11 0 18.5 -7.5t11.5 -18.5t5.5 -23t1.5 -22t-4 -29t-11.5 -37.5t-18.5 -32
t-26 -13.5q-17 0 -33.5 7t-35.5 7q-22 0 -33.5 -19.5t-11.5 -40.5q0 -23 11 -34q9 -9 24 -9q18 0 35 8t36 8q10 0 17 -7.5t11 -18.5t5.5 -23t1.5 -21q0 -30 -11.5 -60t-31.5 -47q-6 -6 -17 -6q-17 0 -33.5 7t-35.5 7q-21 0 -31 -16.5t-10 -37.5q0 -11 1 -22t3 -21
q2 -11 4 -21t2 -18q0 -25 -14 -38q-17 -16 -41 -23.5t-50 -7.5q-10 0 -25 2.5t-29 8.5t-24 15.5t-10 24.5q0 14 5.5 28.5t12.5 28.5q8 17 14.5 32t6.5 28q0 14 -7.5 25.5t-24.5 11.5q-22 0 -33 -16.5t-11 -38.5q0 -10 1 -21t3 -21q2 -11 3.5 -20.5t1.5 -17.5q0 -25 -14 -39z
" />
    <glyph glyph-name="o" unicode="o" 
d="M287 149q26 -12 51 -10q13 1 26.5 2.5t25.5 6.5q32 13 49 42t17 61q0 35 -16 67.5t-49 48.5q-12 5 -25 8.5t-26 3.5q-26 0 -51 -11q-33 -14 -50 -46t-19 -67q-2 -33 16 -62t51 -44zM203 -9q-52 18 -95.5 53.5t-64.5 89.5q-11 28 -14.5 57t-2.5 58q1 34 8 66t20 63
q24 57 65.5 102t98.5 71q29 14 60.5 19.5t63.5 5.5q69 0 125 -25q57 -24 97.5 -69.5t60.5 -103.5q11 -32 17 -64t6 -65q0 -29 -4 -58.5t-15 -56.5q-22 -52 -65.5 -88t-94.5 -55q-32 -12 -65.5 -16.5t-66.5 -4.5q-34 0 -68 5t-66 16z" />
    <glyph glyph-name="oacute" unicode="&#xf3;" 
d="M287 149q26 -12 51 -10q13 1 26.5 2.5t25.5 6.5q32 13 49 42t17 61q0 35 -16 67.5t-49 48.5q-12 5 -25 8.5t-26 3.5q-26 0 -51 -11q-33 -14 -50 -46t-19 -67q-2 -33 16 -62t51 -44zM203 -9q-52 18 -95.5 53.5t-64.5 89.5q-11 28 -14.5 57t-2.5 58q1 34 8 66t20 63
q24 57 65.5 102t98.5 71q29 14 60.5 19.5t63.5 5.5q69 0 125 -25q57 -24 97.5 -69.5t60.5 -103.5q11 -32 17 -64t6 -65q0 -29 -4 -58.5t-15 -56.5q-22 -52 -65.5 -88t-94.5 -55q-32 -12 -65.5 -16.5t-66.5 -4.5q-34 0 -68 5t-66 16zM324 605q-11 0 -22 5.5t-20.5 14
t-15.5 19t-6 21.5q0 13 13 21.5t23 18.5q12 13 21 31t19.5 34.5t23 28.5t30.5 12q13 0 26.5 -7t24.5 -18t18 -24.5t7 -26.5q0 -18 -12 -31t-29 -24.5t-35.5 -21.5t-31.5 -22q-8 -8 -15.5 -19.5t-18.5 -11.5z" />
    <glyph glyph-name="ocircumflex" unicode="&#xf4;" 
d="M287 149q26 -12 51 -10q13 1 26.5 2.5t25.5 6.5q32 13 49 42t17 61q0 35 -16 67.5t-49 48.5q-12 5 -25 8.5t-26 3.5q-26 0 -51 -11q-33 -14 -50 -46t-19 -67q-2 -33 16 -62t51 -44zM203 -9q-52 18 -95.5 53.5t-64.5 89.5q-11 28 -14.5 57t-2.5 58q1 34 8 66t20 63
q24 57 65.5 102t98.5 71q29 14 60.5 19.5t63.5 5.5q69 0 125 -25q57 -24 97.5 -69.5t60.5 -103.5q11 -32 17 -64t6 -65q0 -29 -4 -58.5t-15 -56.5q-22 -52 -65.5 -88t-94.5 -55q-32 -12 -65.5 -16.5t-66.5 -4.5q-34 0 -68 5t-66 16zM425 605q-15 0 -24 13t-17.5 29t-17.5 29
t-24 13t-24 -13t-17 -29t-17 -29t-24 -13q-18 0 -34.5 17t-16.5 35t16.5 41t38 44t44 35.5t34.5 14.5t34.5 -14.5t44.5 -35.5t38.5 -44t16.5 -41t-16.5 -35t-34.5 -17z" />
    <glyph glyph-name="odieresis" unicode="&#xf6;" 
d="M287 149q26 -12 51 -10q13 1 26.5 2.5t25.5 6.5q32 13 49 42t17 61q0 35 -16 67.5t-49 48.5q-12 5 -25 8.5t-26 3.5q-26 0 -51 -11q-33 -14 -50 -46t-19 -67q-2 -33 16 -62t51 -44zM203 -9q-52 18 -95.5 53.5t-64.5 89.5q-11 28 -14.5 57t-2.5 58q1 34 8 66t20 63
q24 57 65.5 102t98.5 71q29 14 60.5 19.5t63.5 5.5q69 0 125 -25q57 -24 97.5 -69.5t60.5 -103.5q11 -32 17 -64t6 -65q0 -29 -4 -58.5t-15 -56.5q-22 -52 -65.5 -88t-94.5 -55q-32 -12 -65.5 -16.5t-66.5 -4.5q-34 0 -68 5t-66 16zM482 627q-9 -11 -23 -16t-29 -5t-29 5
t-23 16q-7 7 -7 21q0 6 0.5 12.5t0.5 12.5q0 17 -5 28t-5 22t10 21q21 21 58 21t58 -21q10 -10 10 -21t-5 -22.5t-5 -28.5q0 -6 0.5 -12t0.5 -12q0 -14 -7 -21zM308 627q-9 -11 -23 -16t-29 -5t-29 5t-23 16q-7 7 -7 20q0 6 0.5 12.5t0.5 12.5q0 16 -5 28t-5 23t10 21
q21 21 58 21t58 -21q10 -10 10 -21t-5 -22.5t-5 -28.5q0 -6 0.5 -12t0.5 -12q0 -14 -7 -21z" />
    <glyph glyph-name="oe" unicode="&#x153;" horiz-adv-x="896" 
d="M208 0q-26 0 -50 13.5t-44 34t-36 46t-26 49.5q-27 61 -27 133q0 71 27 133q10 24 26 49t36 46t44 34t50 13q40 0 81 4t82.5 9.5t82.5 9.5t82 4q42 0 80 -6t76 -21q30 -12 62.5 -29.5t59.5 -40t44.5 -50.5t17.5 -60t-17 -59.5t-43.5 -50t-58.5 -40t-61 -29.5
q-14 -6 -30 -4.5t-33 5t-33.5 8t-31.5 4.5q-10 0 -18.5 -2.5t-16.5 -10.5q-6 -6 -6 -17t6 -17q9 -9 20.5 -12.5t24.5 -3.5q18 0 37.5 5t39.5 11t39.5 11t37.5 5q13 0 24.5 -3.5t20.5 -12.5q14 -14 21 -35t7 -44t-7 -44t-21 -35q-34 -34 -75.5 -47t-89.5 -13q-47 0 -98.5 9.5
t-103.5 20.5t-103 20.5t-99 9.5zM283 158q9 0 19 -2.5t20 -4t19 -0.5t15 7q21 21 31.5 52.5t10.5 65.5t-10.5 65.5t-31.5 52.5q-6 6 -15 7t-19 -0.5t-20 -4t-19 -2.5q-19 0 -33.5 -17t-22.5 -34q-14 -31 -14 -67q0 -35 14 -66q8 -17 22.5 -34.5t33.5 -17.5zM533 395
q-8 -8 -8 -23.5t8 -23.5q12 -12 35 -12q14 0 28.5 3.5t26.5 8.5q8 3 16 9t8 14t-8.5 14.5t-16.5 9.5q-12 5 -26 8.5t-28 3.5q-10 0 -19 -2.5t-16 -9.5z" />
    <glyph glyph-name="ograve" unicode="&#xf2;" 
d="M287 149q26 -12 51 -10q13 1 26.5 2.5t25.5 6.5q32 13 49 42t17 61q0 35 -16 67.5t-49 48.5q-12 5 -25 8.5t-26 3.5q-26 0 -51 -11q-33 -14 -50 -46t-19 -67q-2 -33 16 -62t51 -44zM203 -9q-52 18 -95.5 53.5t-64.5 89.5q-11 28 -14.5 57t-2.5 58q1 34 8 66t20 63
q24 57 65.5 102t98.5 71q29 14 60.5 19.5t63.5 5.5q69 0 125 -25q57 -24 97.5 -69.5t60.5 -103.5q11 -32 17 -64t6 -65q0 -29 -4 -58.5t-15 -56.5q-22 -52 -65.5 -88t-94.5 -55q-32 -12 -65.5 -16.5t-66.5 -4.5q-34 0 -68 5t-66 16zM405 664q-1 -22 -21.5 -40.5t-42.5 -19.5
q-9 0 -15.5 5t-12 11.5t-11 14.5t-11.5 14q-11 10 -26.5 18.5t-29.5 17.5t-24 20t-10 26q0 13 7 26.5t18 24.5t24.5 18t26.5 7q15 0 26 -10t20 -24.5t17.5 -30.5t18.5 -27q6 -6 13.5 -11.5t15 -11.5t12.5 -12.5t5 -15.5z" />
    <glyph glyph-name="one" unicode="1" horiz-adv-x="472" 
d="M336 746q22 -22 31 -49t9 -59q0 -43 -6 -92t-13.5 -99t-14.5 -99.5t-10 -92.5q-1 -16 -2 -29t0.5 -25t6.5 -23t16 -22q8 -8 17.5 -5t19 7.5t19 7.5t17.5 -5q14 -14 20 -38t6 -46q0 -49 -28 -77q-11 -11 -26 -15.5t-32 -4.5q-26 0 -53 6t-53 6q-29 0 -62 -7t-63 -7
q-18 0 -34 4.5t-29 17.5q-28 28 -28 77q0 22 8 46t22 38q8 8 16.5 6.5t17 -5.5t17 -5.5t16.5 6.5q15 15 15 32v38q0 43 2 88.5t2 88.5q0 5 3 11.5t5 12.5t2.5 10.5t-4.5 6.5q-4 1 -6 -3t-3.5 -9.5t-3.5 -10.5t-6 -5q-23 0 -45.5 11.5t-41 29.5t-29.5 40.5t-10 45.5
q1 22 16 38t35.5 29t43 25t39.5 27q22 20 41 42t45 35q11 5 26 9.5t30 4.5q25 0 39 -14z" />
    <glyph glyph-name="onehalf" unicode="&#xbd;" horiz-adv-x="948" 
d="M797 120q17 0 35.5 5.5t35.5 5.5q18 0 28 -10q11 -11 17.5 -30t6.5 -38q0 -17 -5.5 -30.5t-18.5 -18.5q-28 -11 -70 -17t-87 -6t-86.5 5.5t-69.5 17.5q-16 7 -16 30q0 15 5.5 32t10.5 30q12 29 37.5 49t54 38.5t53.5 38.5t36 50q4 12 -2 26q-11 20 -38 20q-6 0 -12.5 -1
t-11.5 -3q-9 -4 -15.5 -14t-12.5 -21t-13 -19.5t-17 -8.5q-15 0 -30 7.5t-26.5 19.5t-19 27t-7.5 30q0 16 9 30.5t23 27t30.5 22t32.5 15.5q37 14 72 14q34 0 70 -14q32 -14 58.5 -40.5t37.5 -61.5q7 -22 7.5 -44t-7.5 -46q-6 -18 -17.5 -32t-25.5 -26.5t-29.5 -24
t-29.5 -23.5q-7 -6 -20.5 -10.5t-13.5 -11.5q0 -6 6 -6q7 0 17 8t18 8zM73 449q3 3 9 3q9 0 20 -4t17 -4q4 0 4 3q0 2 -0.5 6t-1.5 9q-2 13 -4.5 30t-2.5 36q0 26 6 50q1 3 2.5 7t1.5 9q0 10 -13 14.5t-29 9t-29 10.5t-13 18q0 25 16 49.5t40 43.5t53.5 31t56.5 12
q26 0 42 -10q29 -17 29 -55q0 -23 -7.5 -49.5t-17 -55t-17 -56.5t-7.5 -52q0 -17 4 -30t15 -24q4 -4 10 -4q8 0 16 3.5t16 3.5q5 0 9 -4q11 -11 17.5 -29.5t6.5 -37.5q0 -17 -5.5 -31t-18.5 -21q-19 -9 -47.5 -11.5t-59.5 -2.5q-34 0 -65.5 3t-52.5 11q-13 5 -18.5 18.5
t-5.5 30.5q0 20 6.5 39.5t17.5 30.5zM262 -39q-45 0 -76 23.5t-31 69.5q0 42 23 79.5t55.5 73t67.5 71t58 73.5q22 35 42 80.5t39.5 93t40 93t42 81t46.5 57t53 21.5q23 0 43.5 -5.5t35.5 -17t24 -30t9 -44.5q0 -45 -27.5 -88.5t-65.5 -86t-79 -85t-68 -85.5
q-19 -31 -37.5 -71t-36.5 -81.5t-36 -81.5t-37.5 -71t-40.5 -50t-44 -19z" />
    <glyph glyph-name="onequarter" unicode="&#xbc;" horiz-adv-x="872" 
d="M262 -39q-45 0 -76 23.5t-31 69.5q0 42 23 79.5t55.5 73.5t67.5 71t58 73q22 36 42 81.5t39.5 92.5t39.5 92.5t42 81t46.5 57t53.5 21.5q23 0 43.5 -5.5t35.5 -17t24 -30t9 -44.5q0 -45 -27.5 -88.5t-65.5 -86t-79 -85t-68 -85.5q-19 -31 -37.5 -71t-36.5 -81.5
t-36 -81.5t-37.5 -71t-40.5 -50t-44 -19zM681 444q10 0 24 -5t26 -13.5t20.5 -20.5t8.5 -25q0 -8 -6.5 -15t-14 -13.5t-14 -13t-6.5 -13.5q0 -12 13 -12q8 0 18.5 4.5t19.5 4.5q11 0 15.5 -10.5t4.5 -20.5q0 -21 -10 -47t-10 -47q0 -8 4.5 -19.5t15.5 -11.5q8 0 16.5 3.5
t16.5 3.5q6 0 9 -3q12 -11 16.5 -26.5t4.5 -32.5q0 -6 -1.5 -16.5t-5 -21t-9.5 -18t-14 -7.5t-18 3.5t-18 3.5q-4 0 -7.5 -3.5t-3.5 -8.5q0 -8 3.5 -17t3.5 -17q0 -9 -8 -15t-19 -10t-22.5 -5.5t-18.5 -1.5q-5 0 -16 1.5t-22.5 5.5t-20.5 10t-9 14t4 18t4 19q0 14 -16 19.5
t-30 5.5q-20 0 -44 -6t-47 -12.5t-43 -12.5t-33 -6q-18 0 -18 13q0 23 12.5 48.5t21.5 47.5q21 50 48.5 103.5t57.5 97.5t60.5 72.5t56.5 28.5zM615 173q0 -5 4.5 -7.5t10.5 -2.5t15.5 3.5t9.5 11.5q0 5 -1.5 11.5t-0.5 12.5q1 3 5.5 13t4.5 18q0 7 -7 7q-4 0 -6 -4.5
t-3.5 -10.5l-3 -12t-4.5 -10q-5 -7 -14.5 -13.5t-9.5 -16.5zM73 449q4 4 13 2.5t18 -4.5t14.5 -3.5t4.5 5.5q-2 7 -5 27t-3 47q0 16 1.5 32.5t6.5 33.5q3 12 -9.5 18t-29 10.5t-30.5 10.5t-14 18q0 25 16 49.5t40 43.5t53.5 31t56.5 12q26 0 42 -10q29 -17 29 -55
q0 -23 -7.5 -49.5t-17 -55t-17 -56.5t-7.5 -52q0 -32 20 -55q4 -5 10.5 -4t14 3t14 3.5t11.5 -2.5q13 -11 18.5 -30.5t5.5 -39.5q0 -17 -5.5 -30.5t-18.5 -18.5q-20 -8 -49 -11.5t-61 -3.5q-33 0 -64 3.5t-51 11.5q-14 5 -19.5 18t-5.5 30q0 20 7 40t18 31z" />
    <glyph glyph-name="onesuperior" unicode="&#xb9;" horiz-adv-x="338" 
d="M73 449q4 4 13 2.5t17.5 -4.5t14.5 -3.5t5 5.5q-4 20 -5 39.5t-1 36.5q0 43 6 64q3 12 -9.5 18t-29 10.5t-30.5 10.5t-14 18q0 25 16 49.5t40 43.5t53.5 31t56.5 12q26 0 42 -10q29 -17 29 -55q0 -23 -7.5 -49.5t-17 -55t-17 -56.5t-7.5 -52q0 -32 20 -55q4 -5 10.5 -4
t14 3.5t14 3.5t11.5 -3q12 -11 18 -30.5t6 -39.5q0 -17 -5.5 -30.5t-18.5 -18.5q-20 -8 -48.5 -11.5t-58.5 -3.5q-35 0 -67.5 4t-50.5 11q-13 5 -18.5 18.5t-5.5 30.5q0 20 6.5 39.5t17.5 30.5z" />
    <glyph glyph-name="ordfeminine" unicode="&#xaa;" horiz-adv-x="358" 
d="M134 573q15 -6 33 -6t33 6q8 3 16.5 8.5t8.5 13.5t-7.5 11.5t-15.5 3.5q-15 0 -33.5 -6t-32.5 -6q-5 0 -9.5 -4t-4.5 -9t4 -7.5t8 -4.5zM96 493q-15 6 -31.5 15t-30 20.5t-22 25.5t-8.5 31q0 29 20.5 46.5t58.5 34.5q2 1 6.5 3t4.5 5q0 4 -9.5 9.5t-21 12t-21 15
t-9.5 17.5q0 16 14.5 27t29.5 17q35 16 84 16q21 0 42 -4t40 -12q12 -5 25 -12.5t23.5 -17t17.5 -21t7 -24.5q0 -19 -3.5 -38.5t-3.5 -39.5q0 -23 7 -37q3 -6 9.5 -10t12.5 -8t11 -8.5t5 -10.5q0 -12 -5.5 -23t-14.5 -19.5t-20.5 -14t-22.5 -5.5q-6 0 -9.5 5t-6.5 11t-6 11
t-9 5q-8 0 -10.5 -9.5t-9.5 -12.5q-37 -14 -72 -14t-72 14zM127 692q-5 -2 -14.5 -8.5t-9.5 -10.5q0 -2 11 -2q21 0 43.5 -9.5t42.5 -9.5q8 0 19 4.5t11 16.5q0 5 -7.5 10.5t-12.5 8.5q-12 5 -27 5h-28t-28 -5zM43 316q-8 8 -11.5 19t-3.5 23t3.5 23t11.5 19t17 10.5t20 2.5
q22 0 46.5 -6.5t46.5 -6.5q23 0 50 7.5t51 7.5q26 0 41 -15q8 -8 11.5 -19t3.5 -23t-3.5 -23t-11.5 -19q-15 -15 -41 -15q-24 0 -51 7.5t-50 7.5q-22 0 -46.5 -6.5t-46.5 -6.5q-11 0 -20 2.5t-17 10.5z" />
    <glyph glyph-name="ordmasculine" unicode="&#xba;" horiz-adv-x="371" 
d="M163 583q23 -11 46 0q16 7 24 24q10 24 0 49q-7 19 -24 25q-23 11 -46 0q-18 -7 -25 -25q-10 -25 0 -49q6 -17 25 -24zM123 492q-28 11 -50 33.5t-33 50.5q-11 30 -11 56t11 56q11 27 33.5 49t49.5 33q27 12 59 12q30 0 65 -12q28 -10 50.5 -32.5t33.5 -49.5
q5 -13 7.5 -27.5t2.5 -28.5q0 -35 -10 -56q-11 -28 -33.5 -50.5t-50.5 -33.5q-29 -12 -61 -12q-35 0 -63 12zM49 316q-8 8 -11.5 19t-3.5 23t3.5 23t11.5 19q14 14 38 14q22 0 47 -7t47 -7q23 0 49.5 7.5t49.5 7.5q26 0 41 -15q8 -8 11.5 -19t3.5 -23t-3.5 -23t-11.5 -19
q-15 -15 -41 -15q-23 0 -49.5 7.5t-49.5 7.5q-22 0 -47 -7t-47 -7q-24 0 -38 14z" />
    <glyph glyph-name="oslash" unicode="&#xf8;" horiz-adv-x="669" 
d="M614 465q0 -6 -5.5 -10t-12 -7.5t-12 -7.5t-5.5 -10t5 -10t11 -7.5t12 -7.5t8 -10q11 -29 17 -59t6 -61q0 -59 -23 -119q-21 -51 -63.5 -93t-93.5 -63q-59 -24 -124 -24q-67 0 -124 24q-5 2 -8.5 6.5t-6.5 9.5t-7 9t-9 4t-8.5 -4.5t-6 -10t-6 -10t-8.5 -4.5q-16 0 -32 8
t-29 20.5t-21.5 28.5t-8.5 32q0 5 4.5 8.5t10.5 7t10.5 7t4.5 8.5q0 6 -5 10.5t-11 8t-12 7.5t-8 10q-11 29 -17 58.5t-6 60.5t5.5 61.5t17.5 58.5q21 51 63.5 93t93.5 63q59 25 126 25q32 0 63 -6t59 -19q5 -2 8.5 -7.5t6.5 -11t6.5 -9.5t9.5 -4t10 5.5t7 12t7 12t10 5.5
q16 0 32 -8t29 -20.5t21.5 -28.5t8.5 -32zM228 338q-11 -25 -11 -49q0 -23 11 -39q4 -6 18.5 1t33.5 21.5t39 33.5t34.5 37t20.5 31.5t-3 17.5q-21 9 -40 9q-11 0 -21 -2.5t-19 -6.5q-19 -9 -36.5 -22t-26.5 -32zM376 159q15 6 29.5 18.5t25.5 28.5t17 34.5t5 36.5
q0 19 -14 23t-37 -11t-45.5 -38t-39.5 -48.5t-18 -43.5q-1 -10 7.5 -12.5t21 -1t26 5.5t22.5 8z" />
    <glyph glyph-name="otilde" unicode="&#xf5;" 
d="M287 149q26 -12 51 -10q13 1 26.5 2.5t25.5 6.5q32 13 49 42t17 61q0 35 -16 67.5t-49 48.5q-12 5 -25 8.5t-26 3.5q-26 0 -51 -11q-33 -14 -50 -46t-19 -67q-2 -33 16 -62t51 -44zM203 -9q-52 18 -95.5 53.5t-64.5 89.5q-11 28 -14.5 57t-2.5 58q1 34 8 66t20 63
q24 57 65.5 102t98.5 71q29 14 60.5 19.5t63.5 5.5q69 0 125 -25q57 -24 97.5 -69.5t60.5 -103.5q11 -32 17 -64t6 -65q0 -29 -4 -58.5t-15 -56.5q-22 -52 -65.5 -88t-94.5 -55q-32 -12 -65.5 -16.5t-66.5 -4.5q-34 0 -68 5t-66 16zM384 707q15 0 24 13t17 29t17 29t24 13
q18 0 34.5 -17t16.5 -35q0 -24 -12 -48t-31 -43.5t-42.5 -31.5t-47.5 -12q-15 0 -24 13t-17.5 29t-17.5 29t-24 13t-24 -13t-17.5 -29t-17.5 -29t-24 -13q-18 0 -34.5 17t-16.5 35q0 24 12 48t31 43.5t43 31.5t48 12q15 0 24 -13t17.5 -29t17.5 -29t24 -13z" />
    <glyph glyph-name="p" unicode="p" horiz-adv-x="698" 
d="M73 243q-3 7 -10.5 12.5t-15 10t-13.5 9.5t-6 13t6 13t13.5 9.5l15 9t10.5 12.5q6 16 6 34q0 16 -4 34t-8.5 35.5t-8 34.5t-3.5 33q0 20 10 35t26 24.5t35.5 14.5t38.5 5q7 0 22 -2.5t30.5 -7.5t27 -12t11.5 -17q0 -8 -4 -17t-4 -17q0 -4 2 -7.5t8 -3.5q7 0 14.5 4.5
t12.5 9.5q35 39 63.5 54t65.5 15q26 0 49.5 -5t43.5 -13q38 -17 75.5 -52t55.5 -78q29 -73 29 -150t-29 -150q-9 -23 -23 -44t-32 -38.5t-38.5 -31t-41.5 -19.5q-19 -5 -41 -10t-45 -5q-35 0 -69.5 15t-64.5 61q-11 17 -23 17q-17 0 -26 -16.5t-9 -31.5q0 -20 7 -44.5
t16 -50.5t16 -52t7 -48q0 -21 -9.5 -36.5t-24.5 -25t-34 -14.5t-38 -5q-29 0 -52.5 9.5t-41 27t-27 41.5t-9.5 54q0 33 8 68.5t17 72.5t17 74t8 72q0 19 -2.5 36t-9.5 34zM385 414q-11 0 -18 -3t-18 -9q-19 -10 -38.5 -22.5t-35 -27.5t-25.5 -32.5t-10 -36.5q0 -21 9.5 -38
t25 -31.5t35 -26.5t38.5 -22q9 -5 16.5 -8.5t20.5 -3.5q24 0 45.5 16.5t32.5 41.5q13 27 13 70q0 39 -13 71q-8 21 -29.5 41.5t-48.5 20.5z" />
    <glyph glyph-name="paragraph" unicode="&#xb6;" horiz-adv-x="747" 
d="M468 551h-44v-766h-147v503h-140l-107 111v223l126 127h113l60 -60v57h388v-195h-102v-766h-147v766z" />
    <glyph glyph-name="parenleft" unicode="(" horiz-adv-x="449" 
d="M222 166q10 -24 30 -42.5t44.5 -34t50.5 -30t47 -31t34.5 -36t13.5 -45.5q0 -22 -11.5 -44t-29.5 -39.5t-40.5 -28.5t-44.5 -11q-47 0 -87 25t-73 63.5t-59 85t-44 89.5q-8 18 -13.5 44t-9.5 57.5t-5.5 67t-1.5 71.5t1.5 71t5.5 66.5t9.5 58t13.5 44.5q18 43 44 89.5
t59 85.5t73 64.5t87 25.5q22 0 44.5 -11t40.5 -28.5t29.5 -39.5t11.5 -44q0 -26 -13.5 -45.5t-34.5 -36t-47 -31t-50.5 -30.5t-44.5 -34.5t-30 -42.5q-4 -8 -6.5 -25t-4.5 -39t-3 -47.5t-1 -50.5q0 -26 1 -51t3 -46.5t4.5 -38t6.5 -25.5z" />
    <glyph glyph-name="parenright" unicode=")" horiz-adv-x="449" 
d="M7 -53q0 26 13.5 45.5t34.5 36t47 31t50.5 30.5t44.5 34.5t30 42.5t14.5 68t4.5 93q0 48 -4.5 92.5t-14.5 69.5q-10 24 -30 42.5t-44.5 34t-50.5 30t-47 31t-34.5 36t-13.5 45.5q0 22 11 44t29 39.5t40 28.5t45 11q46 0 86 -25.5t73.5 -64.5t59.5 -85.5t44 -89.5
q17 -43 25.5 -107t8.5 -133t-8.5 -133.5t-25.5 -106.5q-18 -43 -44 -89.5t-59 -85t-73.5 -63.5t-86.5 -25q-22 0 -44 11t-40 28.5t-29.5 39.5t-11.5 44z" />
    <glyph glyph-name="percent" unicode="%" horiz-adv-x="716" 
d="M124 442q-26 0 -43.5 17t-28.5 41.5t-15.5 52t-4.5 49.5q0 42 13 81t39 65q25 25 62 37t77 12t77.5 -12t62.5 -37q14 -14 19 -30t5 -35t-4 -39t-8.5 -41t-8 -41t-3.5 -39q0 -18 3 -18q4 0 12.5 20t20 49.5t26.5 64t33 64t39 49.5t45 20q21 0 42.5 -9t39 -24t29 -35.5
t11.5 -42.5q0 -33 -20.5 -62.5t-51 -57.5t-66 -55t-66 -53.5t-51 -53.5t-20.5 -56q0 -21 12 -39.5t36 -18.5q16 0 35 5.5t39 12t40 12t37 5.5q25 0 39 -14q26 -26 38.5 -64t12.5 -80t-12.5 -79.5t-38.5 -63.5q-25 -25 -62.5 -37.5t-77.5 -12.5q-42 0 -78.5 12.5t-61.5 37.5
q-12 12 -17 27.5t-5 32.5t3.5 36t7.5 38t7.5 38t3.5 37t-3 18q-4 0 -11.5 -19.5t-19 -48t-26 -62.5t-32.5 -62.5t-39 -48t-44 -19.5q-21 0 -42.5 8.5t-39 23.5t-28.5 35t-11 43q0 33 20.5 63.5t51.5 59t67 55.5t67 54t51.5 54.5t20.5 56.5q0 21 -12 40.5t-38 19.5
q-17 0 -36.5 -6t-40 -12.5t-40.5 -12.5t-38 -6zM223 642q-18 0 -30.5 -11t-12.5 -31q0 -19 11.5 -30.5t31.5 -11.5q18 0 30.5 11t12.5 31q0 19 -11.5 30.5t-31.5 11.5zM486 186q-19 0 -31.5 -12.5t-12.5 -32.5q0 -18 12 -31t32 -13q19 0 32 12t13 32q0 19 -12 32t-33 13z
" />
    <glyph glyph-name="period" unicode="." horiz-adv-x="351" 
d="M176 -49q-22 0 -44 11t-39.5 28.5t-28.5 39t-11 43.5t11 43.5t28.5 39t39.5 28.5t44 11t43.5 -11t39 -28.5t28.5 -39t11 -43.5t-11 -43.5t-28.5 -39t-39 -28.5t-43.5 -11z" />
    <glyph glyph-name="periodcentered" unicode="&#xb7;" horiz-adv-x="376" 
d="M188 160q-24 0 -48 12t-43.5 31.5t-31.5 43.5t-12 48t12 48t31.5 43.5t43.5 31.5t48 12t48 -12t43.5 -31.5t31.5 -43.5t12 -48t-12 -48t-31.5 -43.5t-43.5 -31.5t-48 -12z" />
    <glyph glyph-name="perthousand" unicode="&#x2030;" horiz-adv-x="1007" 
d="M953 0q-25 -25 -62.5 -37.5t-77.5 -12.5q-42 0 -78.5 12.5t-61.5 37.5q-6 6 -11.5 12.5t-10.5 14.5q-9 -15 -21 -27q-25 -25 -62.5 -37.5t-77.5 -12.5t-77 12.5t-62 37.5q-12 12 -16.5 26.5t-4.5 31.5q0 34 10.5 72t10.5 72q0 17 -5 17t-15 -15t-23 -37.5t-29 -48.5
t-33.5 -48.5t-36.5 -38t-37 -16.5q-20 -1 -41 9t-38 26t-28 36.5t-12 40.5q-2 36 22 64t60 51.5t79 45t80 43t61.5 45.5t24.5 54q0 19 -9.5 34.5t-32.5 15.5q-15 0 -34 -5.5t-38.5 -11.5t-39.5 -11.5t-37 -5.5q-25 0 -38 13q-26 26 -38.5 64t-12.5 80t12.5 80.5t38.5 64.5
q25 25 62 37t77 12t77.5 -12t62.5 -37q14 -14 19 -30.5t5 -36.5q0 -19 -4 -40t-8.5 -42t-8 -41.5t-3.5 -39.5q0 -20 6 -20t18 18t27.5 45t35 58.5t40.5 58.5t43.5 45t44.5 18q20 0 41 -10t38 -25.5t27.5 -35.5t10.5 -41q0 -37 -25 -65.5t-62 -53t-80.5 -46.5t-80.5 -44
t-62 -47t-25 -55q0 -17 9 -33t30 -16q13 0 30 5t34 10.5t34.5 10.5t32.5 5q21 0 33 -12q6 -6 11 -13t10 -15q9 15 22 28q25 25 61.5 37t78.5 12q40 0 77.5 -12t62.5 -37q26 -26 38.5 -64t12.5 -80t-12.5 -80t-38.5 -64zM780 175q-6 -6 -8.5 -14.5t-2.5 -17.5t2.5 -18
t8.5 -14q12 -12 32 -12q9 0 18 3t15 9q5 5 8 14t3 18q0 20 -11 32q-5 6 -14.5 9t-18.5 3q-20 0 -32 -12zM259 637q-6 -6 -8.5 -14.5t-2.5 -17.5t2.5 -17.5t8.5 -14.5t14.5 -8.5t17.5 -2.5t17.5 2.5t14.5 8.5q5 5 8 14t3 18t-2.5 17.5t-8.5 14.5t-14.5 8.5t-17.5 2.5t-18 -3
t-14 -8zM459 175q-6 -6 -8.5 -14.5t-2.5 -17.5t2.5 -17.5t8.5 -14.5t14.5 -8.5t17.5 -2.5t17.5 2.5t14.5 8.5q5 5 8 14t3 18t-2.5 17.5t-8.5 14.5t-14.5 8.5t-17.5 2.5t-18 -3t-14 -8z" />
    <glyph glyph-name="plus" unicode="+" horiz-adv-x="639" 
d="M96 302q-34 0 -53 24t-19 58q0 32 17.5 57.5t54.5 25.5q16 0 31.5 -4t31.5 -9t31.5 -9t32.5 -4q13 0 21.5 7.5t8.5 22.5t-4 30t-9.5 30.5t-9.5 31t-4 32.5q0 32 25 52.5t57 20.5q15 0 30 -4.5t27 -14t19.5 -23t7.5 -31.5q0 -16 -4 -31.5t-9 -30.5t-9 -30.5t-4 -31.5
q0 -13 7 -21.5t22 -8.5q16 0 31 4t30.5 9t31.5 9t33 4q34 0 53 -24t19 -59q0 -31 -18 -56.5t-54 -25.5q-16 0 -31.5 4t-31 9t-31.5 9t-32 4q-29 0 -29 -31q0 -16 4 -31t9 -30t9 -31t4 -33q0 -34 -25 -54t-59 -20q-15 0 -29.5 5t-26.5 14.5t-19 23t-7 31.5q0 16 4 31.5
t9.5 30.5t9.5 30.5t4 32.5q0 13 -6.5 22t-23.5 9q-16 0 -31 -4t-31 -9t-32 -9t-33 -4z" />
    <glyph glyph-name="plusminus" unicode="&#xb1;" horiz-adv-x="662" 
d="M53 0q-10 9 -14.5 23.5t-4.5 30.5t4.5 30.5t14.5 24.5q17 17 37.5 23t43.5 6t48.5 -4.5t51 -10t51 -10t49.5 -4.5q23 0 47.5 4.5t50 10t50 10t47.5 4.5t43 -6t37 -23q19 -19 19 -55q0 -16 -5 -30.5t-14 -23.5q-17 -17 -37 -23t-43 -6t-47.5 4.5t-50 10t-50 10t-47.5 4.5
q-24 0 -49.5 -4.5t-51 -10t-51 -10t-48.5 -4.5t-43.5 6t-37.5 23zM53 384q-10 10 -15 24.5t-5 30.5t5 30.5t15 24.5q8 8 18 11t21 3q15 0 32.5 -4.5t35 -9.5t35 -9.5t32.5 -4.5q11 0 21 3t18 11q14 14 14 38q0 15 -4.5 32t-9.5 35t-9.5 35t-4.5 32q0 24 14 38q9 9 23.5 14
t30.5 5q36 0 55 -19q14 -14 14 -38q0 -15 -4.5 -32t-9.5 -35t-9.5 -35t-4.5 -32q0 -24 14 -38t38 -14q15 0 32.5 4.5t35 9.5t35 9.5t32.5 4.5q24 0 38 -14q10 -10 14.5 -24.5t4.5 -30.5t-4.5 -30.5t-14.5 -24.5q-14 -14 -38 -14q-15 0 -32.5 4.5t-35 9.5t-35 9.5t-32.5 4.5
q-24 0 -38 -14q-8 -8 -11 -18t-3 -21q0 -15 4.5 -32.5t9.5 -34.5t9.5 -34.5t4.5 -32.5q0 -11 -3 -21t-11 -18q-10 -10 -24.5 -14.5t-30.5 -4.5t-30.5 4.5t-23.5 14.5q-8 8 -11 18t-3 21q0 15 4.5 32.5t9.5 34.5t9.5 34.5t4.5 32.5q0 11 -3 21t-11 18t-18 11t-21 3
q-15 0 -32.5 -4.5t-35 -9.5t-35 -9.5t-32.5 -4.5q-11 0 -21 3t-18 11z" />
    <glyph glyph-name="q" unicode="q" 
d="M598 334q3 -7 11 -11.5l16 -9t14 -10t6 -13.5t-6 -13.5t-14 -10t-16 -10t-11 -12.5q-14 -30 -18.5 -62.5t-3.5 -67.5q0 -12 1.5 -30t3.5 -37t5 -36.5t6 -29.5q6 -21 17 -35l22 -28t19 -31.5t8 -45.5q0 -22 -12.5 -38.5t-31 -28t-41 -17t-43.5 -5.5q-27 0 -46.5 10t-32 27
t-18.5 40.5t-6 49.5q0 41 9 78t9 77q0 14 -7.5 26.5t-19.5 16.5t-20 -4.5t-16 -20.5q-11 -15 -25.5 -27t-26.5 -20q-17 -11 -36 -15.5t-39 -4.5t-36.5 3.5t-36.5 11.5q-45 17 -78 52.5t-51 80.5q-15 35 -22 73t-7 77t7 77t22 73q18 43 53 77t77 53q40 17 87 17q22 0 41 -9
t37 -20q9 -5 16.5 -14t15 -17.5t15.5 -15t17 -6.5q11 0 11 10q0 8 -4 17.5t-4 17.5q0 7 7 12.5t14 9.5q29 17 69 17q25 0 51 -8t42 -23q10 -10 13.5 -21t3.5 -25q0 -15 -4 -32t-8.5 -34.5t-8 -35.5t-3.5 -34q0 -19 7 -35zM432 284q0 18 -13 40.5t-32.5 42t-43.5 33t-46 13.5
q-11 0 -21.5 -5.5t-19.5 -14t-16.5 -19t-11.5 -20.5q-14 -37 -14 -71q0 -35 14 -71q8 -19 27.5 -37.5t43.5 -18.5q22 0 45.5 13t43 32.5t32 42t12.5 40.5z" />
    <glyph glyph-name="question" unicode="?" horiz-adv-x="586" 
d="M337 473q8 15 8 34q0 38 -38 55q-10 4 -22.5 3t-18.5 -3q-16 -5 -24 -15.5t-14 -23.5q-8 -16 -16.5 -29.5t-28.5 -13.5q-23 0 -46 11.5t-42 30.5t-30.5 42t-11.5 46q0 25 7.5 47.5t21.5 39.5t33.5 27.5t44.5 10.5q15 0 36.5 3.5t43.5 8t43.5 8.5t36.5 4t30 -2t29 -8
q48 -20 87.5 -59.5t59.5 -87.5q18 -42 18 -92q0 -31 -13 -52t-32 -36.5t-41.5 -27t-41.5 -23.5t-32 -26t-13 -34q0 -5 2 -14.5t2 -14.5q0 -10 -13 -17t-22 -10q-28 -11 -56 -11q-26 0 -49 7.5t-38 23.5q-7 7 -9.5 16t-2.5 19q0 20 3 31t9 29q7 21 26 33t41 22t42.5 20.5
t30.5 27.5zM288 -15q-20 0 -40 10t-36 26t-26 36t-10 40t10 40t26 36t36 26t40 10t40 -10t36 -26t26 -36t10 -40t-10 -40t-26 -36t-36 -26t-40 -10z" />
    <glyph glyph-name="questiondown" unicode="&#xbf;" horiz-adv-x="586" 
d="M248 108q-8 -15 -8 -34q0 -38 38 -55q10 -4 22.5 -3t18.5 3q16 5 24 15.5t14 23.5q8 16 16.5 29.5t28.5 13.5q23 0 46 -11.5t42 -30.5t30.5 -42t11.5 -46q0 -25 -7.5 -47.5t-21.5 -40t-33.5 -27.5t-44.5 -10q-15 0 -36.5 -4t-43.5 -8.5t-43.5 -8t-36.5 -3.5t-30 2t-29 8
q-48 20 -87.5 59.5t-59.5 87.5q-18 42 -18 92q0 31 13 52t32 36.5t41.5 27t41.5 23.5t32 26t13 34q0 5 -2 14.5t-2 14.5q0 10 13 17t22 10q28 11 56 11q26 0 49 -7.5t38 -23.5q7 -7 9.5 -16t2.5 -19q0 -20 -3 -31t-9 -29q-7 -21 -26 -33.5t-41 -22.5t-42.5 -20.5
t-30.5 -26.5zM297 596q20 0 40 -10t36 -26t26 -36t10 -40t-10 -40t-26 -36t-36 -26t-40 -10t-40 10t-36 26t-26 36t-10 40t10 40t26 36t36 26t40 10z" />
    <glyph glyph-name="quotedbl" unicode="&#x22;" horiz-adv-x="667" 
d="M406 619q0 10 -8.5 16.5t-19 12t-19 12t-8.5 16.5q0 24 12 48t31.5 43t43.5 31t48 12q22 0 45 -12t41.5 -31t30 -41t11.5 -42q0 -30 -12 -70.5t-33.5 -76.5t-52 -61.5t-67.5 -25.5q-15 0 -33.5 6t-34 16t-26 24t-10.5 30q0 12 9.5 23t21 22t21 22.5t9.5 25.5zM113 617
q0 10 -9 16t-19.5 11.5t-19 11.5t-8.5 17q0 24 12 48t31.5 43.5t43.5 31.5t48 12q22 0 45 -11.5t41.5 -29.5t30 -41t11.5 -45q0 -37 -16.5 -77.5t-40 -75t-50 -57t-46.5 -22.5q-14 0 -33.5 5t-37.5 15t-31 24t-13 32q0 12 9.5 23t21 22t21 22t9.5 25z" />
    <glyph glyph-name="quotedblbase" unicode="&#x201e;" horiz-adv-x="667" 
d="M406 7q-1 10 -10 16t-19 12t-18 12t-8 16q0 24 12 48t31.5 43.5t43.5 31.5t48 12q22 0 44 -11.5t39.5 -29.5t29.5 -41t15 -45q4 -35 -6.5 -73t-32 -70.5t-51 -57t-63.5 -32.5q-16 -4 -34.5 0t-35 14t-29 24t-16.5 31q-3 14 6.5 26t22 23.5t22.5 24t9 26.5zM113 4
q-1 10 -10 16t-19 11.5t-18.5 11.5t-8.5 17q0 24 12 48t31.5 43.5t43.5 31.5t48 12q22 0 44 -11.5t40 -29.5t30 -41t14 -45q3 -34 -8 -72t-32 -71t-50.5 -57.5t-62.5 -31.5q-16 -4 -34.5 0t-35 14t-28.5 24t-16 31q-3 14 6.5 26t22 23.5t22.5 23.5t9 26z" />
    <glyph glyph-name="quotedblleft" unicode="&#x201c;" horiz-adv-x="601" 
d="M477 651q1 -12 12.5 -19.5t24 -14.5t23 -15t10.5 -20q0 -21 -11 -43t-28 -40t-39 -29t-43 -11q-20 0 -40 10.5t-36 27t-26.5 37.5t-12.5 41q-3 30 7 63t28.5 62t44.5 50.5t56 29.5q11 3 24 0.5t25 -8.5t21 -15.5t12 -19.5q3 -12 -5.5 -22.5t-19 -20.5t-20 -20.5
t-7.5 -22.5zM219 649q1 -12 12.5 -20t24.5 -15t23.5 -15t10.5 -20q0 -22 -10.5 -43.5t-28 -39t-39.5 -28.5t-44 -11q-20 0 -40 10.5t-36 27t-26.5 37.5t-12.5 41q-3 31 7 64t29 61.5t45 49.5t56 29q11 3 24 0.5t24.5 -8.5t20.5 -15.5t12 -19.5q3 -12 -5.5 -22t-19 -20
t-20 -20.5t-7.5 -22.5z" />
    <glyph glyph-name="quotedblright" unicode="&#x201d;" horiz-adv-x="601" 
d="M124 585q-2 12 -13.5 20t-24 14.5t-23 14.5t-10.5 20q0 22 10.5 44t28 39.5t39 28.5t44.5 11q20 0 40 -10.5t36 -27t26.5 -37.5t12.5 -41q3 -30 -7 -63t-28.5 -61.5t-44.5 -50.5t-56 -29q-11 -3 -24 -0.5t-25 8t-21 14.5t-12 20q-3 12 5.5 22.5t19.5 20.5t20 20.5t7 22.5
zM382 587q-2 12 -13 20t-24 15t-23.5 15t-10.5 20q0 22 10.5 44t28 39.5t39 28.5t44.5 11q21 0 40.5 -10.5t35 -27.5t26 -38t12.5 -41q3 -30 -7 -63t-28.5 -61.5t-44.5 -50.5t-56 -29q-11 -3 -24 -0.5t-24.5 8.5t-20.5 15t-12 20q-3 12 5.5 22t19 20t19.5 20.5t8 22.5z" />
    <glyph glyph-name="quoteleft" unicode="&#x2018;" horiz-adv-x="343" 
d="M219 649q1 -12 12.5 -20t24.5 -15t23.5 -15t10.5 -20q0 -22 -10.5 -43.5t-28 -39t-39.5 -28.5t-44 -11q-20 0 -40 10.5t-36 27t-26.5 37.5t-12.5 41q-3 31 7 64t29 61.5t45 49.5t56 29q11 3 24 0.5t24.5 -8.5t20.5 -15.5t12 -19.5q3 -12 -5.5 -22t-19 -20t-20 -20.5
t-7.5 -22.5z" />
    <glyph glyph-name="quoteright" unicode="&#x2019;" horiz-adv-x="343" 
d="M124 585q-2 12 -13.5 20t-24 14.5t-23 14.5t-10.5 20q0 22 10.5 44t28 39.5t39 28.5t44.5 11q20 0 40 -10.5t36 -27t26.5 -37.5t12.5 -41q3 -30 -7 -63t-28.5 -61.5t-44.5 -50.5t-56 -29q-11 -3 -24 -0.5t-25 8t-21 14.5t-12 20q-3 12 5.5 22.5t19.5 20.5t20 20.5t7 22.5
z" />
    <glyph glyph-name="quotesinglbase" unicode="&#x201a;" horiz-adv-x="350" 
d="M124 3q-2 12 -13.5 20t-24 14.5t-23 14.5t-10.5 20q0 22 10.5 44t28 39.5t39 28.5t44.5 11q21 0 42 -11t38 -28.5t28 -39.5t13 -43q2 -30 -8.5 -62t-30.5 -60t-46.5 -48.5t-56.5 -27.5q-11 -3 -24 -0.5t-25 8t-21 14.5t-12 20q-3 12 5.5 22.5t19.5 20.5t20 20.5t7 22.5z
" />
    <glyph glyph-name="quotesingle" unicode="'" horiz-adv-x="343" 
d="M131 585q-2 12 -13.5 20t-24 14.5t-23 14.5t-10.5 20q0 22 10.5 44t28 39.5t39 28.5t44.5 11q21 0 40.5 -10.5t35 -27t26 -37.5t12.5 -41q3 -30 -7 -63t-28.5 -61.5t-44.5 -50.5t-56 -29q-11 -3 -24 -0.5t-24.5 8t-20.5 14.5t-12 20q-3 12 5.5 22.5t19.5 20.5t20 20.5
t7 22.5z" />
    <glyph glyph-name="r" unicode="r" horiz-adv-x="586" 
d="M538 313q-14 -14 -35 -21t-44 -7q-20 0 -34.5 5t-26.5 14q-18 13 -18 34q0 15 5 32t5 32q0 4 -3 6t-6 2t-16 -5q-26 -13 -49.5 -30.5t-40.5 -43.5q-18 -28 -29 -63.5t-11 -67.5q0 -18 4.5 -36t9.5 -36t9.5 -37t4.5 -38q0 -15 -4 -28.5t-15 -24.5q-15 -16 -38.5 -23.5
t-48.5 -7.5q-26 0 -49 7.5t-39 23.5q-21 21 -30 47.5t-9 56.5t5 62.5t11 65t11 64.5t5 62q0 16 -4 34t-9.5 36.5t-9.5 36.5t-4 35q0 14 3.5 27t13.5 24q15 17 39.5 25.5t50.5 8.5q8 0 24 -3t31.5 -8.5t27.5 -14t12 -20.5q0 -14 -4 -29.5t-4 -27.5q0 -8 5 -14t15 -6
q12 0 21 9.5t17.5 23t16.5 28t18 25.5q19 20 45.5 32t58.5 12q68 0 107 -40q20 -21 32.5 -53.5t12.5 -66.5q0 -35 -10 -66.5t-30 -52.5z" />
    <glyph glyph-name="registered" unicode="&#xae;" horiz-adv-x="669" 
d="M124 478q0 -44 17 -82.5t46 -67t67 -44.5t81 -16t81.5 16t67 44.5t45 67t16.5 82.5q0 43 -16.5 81.5t-45 67.5t-67 45.5t-81.5 16.5t-81 -16.5t-67 -45.5t-46 -67.5t-17 -81.5zM40 478q0 61 23.5 115t64 94t94 63t113.5 23q61 0 114.5 -23t93.5 -63t63 -94t23 -115
q0 -62 -23 -116t-63 -93.5t-93.5 -62t-114.5 -22.5q-60 0 -113.5 22.5t-94 62t-64 93.5t-23.5 116zM301 557q-10 -10 -10 -27t10 -27q11 -11 31 -11q13 0 23.5 3t21.5 8q13 6 18 19q2 4 1 7.5t-1 7.5q0 7 -6 12t-12 8q-20 11 -45 11q-20 0 -31 -11zM422 308q-21 0 -36 21
t-29 44.5t-28.5 40.5t-33.5 9q-12 -5 -8.5 -18t10.5 -28t12 -30t-4 -24q-14 -14 -39 -14t-39 14q-27 27 -33.5 65t-6.5 83q0 22 1 44.5t5.5 43.5t12 39t21.5 32t32.5 19.5t39.5 5.5q28 0 57 -7.5t52 -17.5q22 -9 40 -26.5t26 -40.5q3 -8 4 -15.5t1 -13.5q0 -7 -1 -14t-4 -15
q-8 -22 -25 -42.5t-40 -20.5h-38q-11 0 -8 -3t14.5 -8t28 -12t32 -15.5t26.5 -18.5t12 -21q1 -10 -3.5 -20t-12.5 -18t-18 -13t-20 -5z" />
    <glyph glyph-name="s" unicode="s" horiz-adv-x="544" 
d="M51 155q13 15 28 21t32 6q19 0 40.5 -5.5t43.5 -12.5t43.5 -12.5t42.5 -5.5q4 0 14 1t20 4.5t17.5 9t7.5 14.5q0 7 -5.5 12t-13 8t-15.5 4.5t-14 1.5q-28 0 -49.5 -6.5t-44.5 -6.5t-54 16.5t-58.5 42.5t-46.5 58.5t-19 65.5q0 31 14 58t35.5 49t47 39.5t48.5 29.5
q36 20 85.5 36t97.5 16q35 0 67 -11.5t55 -40.5t23 -78t-23 -78q-11 -14 -25 -19.5t-29 -5.5q-18 0 -37.5 5t-39.5 11.5t-40 11.5t-39 5q-5 0 -14 -1t-18 -4t-15.5 -8.5t-6.5 -14.5q0 -8 5.5 -13t13 -8t15.5 -4t14 -1q23 0 47 6.5t47 6.5t53.5 -16.5t57.5 -42.5t46 -58.5
t19 -65.5q0 -31 -13.5 -57.5t-34.5 -48t-46 -39t-48 -30.5q-42 -23 -94.5 -39.5t-103.5 -16.5q-39 0 -73 12.5t-60 43.5q-23 29 -23 77q0 49 23 78z" />
    <glyph glyph-name="scaron" unicode="&#x161;" horiz-adv-x="544" 
d="M262 822q15 0 24 -13t17 -29t17 -29t24 -13t24 13t17.5 29t17.5 29t24 13q18 0 34.5 -17t16.5 -35q0 -17 -16.5 -40t-39 -44t-45 -36t-33.5 -15q-13 0 -35.5 15t-44 36t-37.5 44t-16 40q0 18 16.5 35t34.5 17zM51 155q13 15 28 21t32 6q19 0 40.5 -5.5t43.5 -12.5
t43.5 -12.5t42.5 -5.5q4 0 14 1t20 4.5t17.5 9t7.5 14.5q0 7 -5.5 12t-13 8t-15.5 4.5t-14 1.5q-28 0 -49.5 -6.5t-44.5 -6.5t-54 16.5t-58.5 42.5t-46.5 58.5t-19 65.5q0 31 14 58t35.5 49t47 39.5t48.5 29.5q36 20 85.5 36t97.5 16q35 0 67 -11.5t55 -40.5t23 -78t-23 -78
q-11 -14 -25 -19.5t-29 -5.5q-18 0 -37.5 5t-39.5 11.5t-40 11.5t-39 5q-5 0 -14 -1t-18 -4t-15.5 -8.5t-6.5 -14.5q0 -8 5.5 -13t13 -8t15.5 -4t14 -1q23 0 47 6.5t47 6.5t53.5 -16.5t57.5 -42.5t46 -58.5t19 -65.5q0 -31 -13.5 -57.5t-34.5 -48t-46 -39t-48 -30.5
q-42 -23 -94.5 -39.5t-103.5 -16.5q-39 0 -73 12.5t-60 43.5q-23 29 -23 77q0 49 23 78z" />
    <glyph glyph-name="section" unicode="&#xa7;" horiz-adv-x="729" 
d="M80 172q4 4 17.5 -5t35.5 -22t53 -24.5t72 -11.5q38 0 85 14.5t107 54.5q-5 5 -9.5 11.5t-11.5 9.5q-14 6 -29.5 8.5t-31.5 2.5q-32 0 -64 -5.5t-64 -5.5t-65.5 16t-60.5 41.5t-44 58t-17 64.5q0 16 14.5 25.5t32 18.5t32 18.5t14.5 25.5q0 19 -17.5 31t-38 22.5
t-38 22.5t-17.5 32q0 30 16 56.5t40.5 48.5t54.5 39t58 29q51 21 112 37.5t121 16.5q45 0 85 -12.5t69 -41.5q8 -8 14 -21.5t10.5 -30t6.5 -34t2 -33.5q0 -30 -8 -48t-25 -6q-67 49 -158 49q-42 0 -81.5 -11.5t-75.5 -37.5q-4 -3 -1.5 -6.5t8 -7.5t12 -7t11.5 -5
q16 -7 31.5 -9.5t30.5 -2.5q31 0 61 6t61 6t62 -15t56.5 -39t41.5 -54.5t16 -61.5q0 -16 -14 -25.5t-31.5 -18.5t-31.5 -18.5t-14 -25.5q0 -21 18.5 -33.5t41 -23t41 -23t18.5 -33.5q0 -32 -18 -58.5t-45.5 -48t-60 -39t-61.5 -32.5q-20 -10 -48.5 -20t-62 -18.5t-70 -13.5
t-72.5 -5q-52 0 -98 12.5t-78 44.5q-15 15 -22.5 38t-7.5 48t7.5 48t22.5 38zM284 355q39 -14 72 -14t77 14q8 3 18 9t10 15q0 8 -7.5 14t-15.5 9q-36 15 -77 15q-43 0 -77 -15q-8 -3 -15.5 -9t-7.5 -14t7.5 -14.5t15.5 -9.5z" />
    <glyph glyph-name="semicolon" unicode=";" horiz-adv-x="376" 
d="M111 25q-1 10 -10.5 16.5t-20 12.5t-19 12.5t-8.5 16.5q0 24 12 48t31.5 43.5t43.5 31.5t48 12q23 0 45 -11.5t40 -30t29.5 -41.5t13.5 -46q3 -32 -7 -66.5t-29.5 -65t-47 -53t-58.5 -29.5q-16 -4 -34.5 0t-35 14t-29 24t-16.5 31q-3 12 5 21.5t19 18.5t20 19t8 22z
M188 282q-24 0 -48 12t-43.5 31.5t-31.5 43.5t-12 48t12 48t31.5 43t43.5 31t48 12t48 -12t43.5 -31t31.5 -43t12 -48t-12 -48t-31.5 -43.5t-43.5 -31.5t-48 -12z" />
    <glyph glyph-name="seven" unicode="7" horiz-adv-x="645" 
d="M351 156q-8 -27 -19 -58t-28.5 -57.5t-43 -44t-61.5 -17.5q-24 0 -48.5 10t-44 27t-32 39.5t-12.5 48.5q0 47 31.5 93t74 91t86 88t67.5 85q4 7 10.5 18.5t13 25.5t11 28.5t4.5 26.5q0 28 -20.5 33.5t-55.5 5.5q-23 0 -46 -7.5t-46.5 -16.5t-47.5 -16.5t-48 -7.5
q-17 0 -31 4.5t-25 15.5q-16 16 -24 39.5t-8 49.5t8 49.5t24 39.5t36 22t43 6q22 0 42 -4.5t39.5 -10t39.5 -10t43 -4.5q28 0 59.5 6.5t64 14.5t64 14.5t60.5 6.5q44 0 75 -27.5t31 -75.5q0 -29 -13 -58.5t-33.5 -59.5t-46.5 -60t-51.5 -60t-48.5 -60t-38 -60
q-19 -37 -30.5 -82.5t-24.5 -90.5z" />
    <glyph glyph-name="six" unicode="6" horiz-adv-x="692" 
d="M292 522q-11 -13 -26.5 -36.5t-22.5 -62.5q-4 -23 4 -25.5t16 20.5q11 31 44 44t81 13q51 0 100 -19.5t87.5 -54t62.5 -82t24 -103.5q0 -35 -11.5 -68.5t-32 -62t-48 -50.5t-60.5 -35q-36 -14 -75 -22t-81 -8q-75 0 -135 25t-102 71.5t-64.5 112.5t-22.5 149q0 43 7 85.5
t23 80.5q35 85 101 150.5t151 101.5q39 17 86 29t92 12q29 0 56 -8t47.5 -23.5t32.5 -40t12 -57.5q0 -17 -4 -35.5t-13.5 -34.5t-24.5 -26t-36 -10q-15 0 -32 3.5t-34.5 8t-35.5 8.5t-34 4q-40 0 -76 -14.5t-56 -39.5zM316 299q-19 0 -30.5 4t-20.5 13q-15 15 -21.5 12
t-6.5 -22q0 -20 8 -49q23 -92 113 -92q13 0 33.5 3t40 10.5t33.5 20t14 32.5q0 16 -12 30.5t-31 25t-41 16t-41 4.5q-11 -1 -19.5 -4.5t-18.5 -3.5z" />
    <glyph glyph-name="slash" unicode="/" horiz-adv-x="647" 
d="M146 -29q-18 -4 -39 2t-39 18t-31.5 29t-17.5 35q-11 54 14 101t66 91t87.5 87t77.5 89q20 30 36 67t31 75t31 74.5t36 67t46 51.5t62 28q19 4 39.5 -2t39 -18.5t31.5 -29.5t17 -35q11 -54 -14 -100.5t-66 -90t-87 -86t-76 -88.5q-20 -31 -36.5 -67.5t-31.5 -74.5
t-31.5 -75t-36.5 -67.5t-46.5 -51.5t-61.5 -29z" />
    <glyph glyph-name="sterling" unicode="&#xa3;" horiz-adv-x="745" 
d="M534 305q-10 -10 -29 -10q-11 0 -24 3t-26 7t-25.5 7t-24.5 3q-8 0 -16 -2t-14 -8q-8 -7 -10.5 -18.5t-2.5 -24.5q0 -24 8 -46q6 -14 18.5 -23.5t26.5 -14.5q20 -7 49 -7q31 0 53 7q15 4 25 18t19 29t19 26.5t25 11.5q21 0 41.5 -11.5t37 -29.5t26 -40t8.5 -43
q-1 -25 -14.5 -47.5t-34 -41t-45.5 -31.5t-49 -19q-48 -13 -107 -13q-33 0 -66 4t-66 9q-9 1 -14.5 9t-10.5 17t-10.5 16t-14.5 7t-16 -7.5t-13 -17t-13 -17t-16 -7.5q-28 0 -60 -9t-60 -9q-14 0 -25.5 3.5t-22.5 14.5q-14 15 -20 35.5t-6 43.5q0 14 3.5 33t11 36t20.5 29
t33 12q17 0 37 -5.5t37 -5.5q8 0 14.5 11t10.5 25.5t6 28.5t2 21q0 6 -1 14t-4.5 15.5t-9 12.5t-14.5 5q-12 0 -26.5 -6t-26.5 -6q-11 0 -18.5 8.5t-12.5 20t-7.5 24.5t-2.5 22q0 8 3 22.5t9 29t14.5 25t20.5 10.5t26.5 -5.5t25.5 -4.5q12 0 17.5 10.5t5.5 22.5
q0 13 -4.5 29t-9 31.5t-6.5 30.5t3 27q9 24 24 47.5t34 43t42 33.5t48 18q34 6 71 6q35 0 71 -6q18 -3 37 -11.5t35 -20.5t27 -28t13 -34q2 -21 -7 -45t-25 -44t-37.5 -33.5t-45.5 -13.5q-8 0 -13.5 6t-11 14t-12 15.5t-16.5 10.5q-12 3 -25 3q-9 0 -16 -8t-10 -16
q-7 -18 -7 -43q0 -20 9 -35t33 -15q12 0 25 3.5t26.5 7.5t26.5 7.5t25 3.5q20 0 31 -12q14 -14 20 -31.5t6 -36.5q0 -23 -9 -45t-26 -38z" />
    <glyph glyph-name="t" unicode="t" horiz-adv-x="428" 
d="M402 108q0 -23 -14.5 -46t-36 -41t-47.5 -29.5t-48 -11.5q-31 0 -58 16.5t-49 41.5t-39.5 55t-29.5 58q-7 18 -7 41q0 20 4 39.5t9 39.5t9 37.5t4 33.5q0 4 -1 12.5t-3.5 17t-7 14.5t-11.5 6q-8 0 -15 -3t-16 -3q-10 0 -17.5 9.5t-12.5 23t-7.5 27.5t-2.5 23q0 6 2 20.5
t7 28.5t13 25t19 11q8 0 15 -3t15 -3t11 9.5t3 17.5q0 24 -10.5 46.5t-10.5 48.5q0 20 11 32q15 16 47 24t59 8q25 0 48.5 -8t40.5 -24q13 -13 13 -32q0 -14 -3 -26.5t-8 -23.5q-11 -27 -11 -45q0 -11 6.5 -21.5t20.5 -10.5q18 0 35 8t37 8q15 0 25.5 -9.5t17 -23.5t9 -29.5
t2.5 -27.5q0 -11 -2.5 -26t-9 -28.5t-17 -23.5t-25.5 -10q-18 0 -35 8t-37 8q-11 0 -19 -7.5t-12.5 -18.5t-6.5 -23.5t-2 -22.5q0 -24 7 -50t17 -49q8 -18 24.5 -28.5t36.5 -21.5q26 -14 45 -29t19 -39z" />
    <glyph glyph-name="thorn" unicode="&#xfe;" horiz-adv-x="659" 
d="M236 76q-16 -6 -22.5 -18t-6.5 -28q0 -20 7 -44.5t16 -50.5t16 -52t7 -48q0 -32 -18 -50q-15 -15 -37.5 -22.5t-46.5 -7.5t-46.5 7.5t-37.5 22.5q-21 21 -29.5 47t-8.5 55q0 33 8 70t17.5 74.5t17.5 75t8 72.5q0 43 -13 72q-3 6 -9.5 10.5t-13 8.5t-11.5 9t-5 11t5 10.5
t12 8.5t13.5 8t9.5 10q13 29 13 70q0 33 -7.5 68.5t-17 71.5t-17 70.5t-7.5 66.5q0 28 8 52t28 44q15 15 37.5 22.5t46.5 7.5t46.5 -7.5t37.5 -22.5q17 -17 17 -46q0 -21 -6.5 -45t-15 -48.5t-15 -47.5t-6.5 -41q0 -32 26 -43q10 -4 17.5 4t14.5 20t14.5 24t17.5 16
q14 5 28 9t28 4q29 0 60 -2t59 -11q45 -14 79.5 -50.5t51.5 -79.5q29 -70 29 -150q0 -77 -29 -150q-9 -23 -22 -44t-30.5 -39t-38 -31t-44.5 -19q-26 -6 -54 -8t-54 -2q-31 0 -51 10q-12 5 -21 19.5t-17 28.5t-17 23t-21 5zM366 414q-13 0 -24.5 -5.5t-23.5 -13.5
q-16 -11 -32.5 -22.5t-30.5 -25.5t-23 -29.5t-9 -33.5q0 -20 9.5 -36t24.5 -30t33.5 -26.5t36.5 -23.5q8 -5 18 -9t21 -4q22 0 42.5 18t29.5 39q7 16 10 34t3 37q0 42 -13 71q-4 9 -11 19.5t-16.5 19.5t-21 15t-23.5 6z" />
    <glyph glyph-name="three" unicode="3" horiz-adv-x="641" 
d="M260 283q-17 0 -28.5 9t-19 23t-11 30.5t-3.5 30.5t3.5 32t11 33.5t20 26t31.5 10.5q20 0 41.5 -6t41.5 -6q9 0 19.5 5t18.5 13t12.5 18.5t3.5 22.5q-2 16 -16.5 28t-29.5 18q-33 11 -60 11q-29 0 -60 -11q-12 -5 -20 -16.5t-15.5 -24.5t-16 -22.5t-21.5 -9.5
q-22 0 -44 11t-39.5 28.5t-28.5 39.5t-11 44t12.5 41.5t32 35.5t42.5 29t44 22q60 26 125 26q35 0 68.5 -7t62.5 -20q32 -15 62.5 -37t54 -50.5t38 -63.5t14.5 -74q0 -42 -15 -78q-4 -9 -13 -15.5t-18.5 -12.5t-17 -13t-7.5 -17q0 -13 10 -21.5t23 -16t25 -16t15 -21.5
q5 -22 9.5 -45.5t4.5 -46.5q0 -28 -7 -55t-23 -53q-23 -37 -56.5 -66.5t-72.5 -45.5q-65 -28 -145 -28q-81 0 -144 28q-21 9 -44.5 22t-43 30t-32.5 37.5t-13 43.5q0 21 10.5 43.5t27 41t37.5 31t42 12.5q13 0 22.5 -10t18 -22.5t17.5 -25t21 -17.5q30 -12 78 -12
q19 0 38 2.5t35 9.5q12 5 27.5 19t15.5 31q0 12 -7.5 23t-19 19.5t-25 14t-24.5 5.5q-20 0 -42.5 -7.5t-41.5 -7.5z" />
    <glyph glyph-name="threequarters" unicode="&#xbe;" horiz-adv-x="869" 
d="M178 490q-18 20 -18 50q0 14 4.5 28t13.5 23q4 4 9.5 3.5t12.5 -2t13.5 -2.5t12.5 1t12 7.5t6 11.5q0 8 -6.5 12.5t-13.5 7.5q-23 11 -46 0q-7 -3 -11.5 -10t-9 -14.5t-10 -13t-12.5 -5.5q-16 0 -31.5 8t-28 20.5t-20.5 28.5t-8 32q0 13 7 24.5t18.5 20.5t25 16t26.5 11
q30 9 71 9q38 0 71 -9q30 -8 55.5 -34t37.5 -56q11 -30 11 -54q0 -25 -11 -53q-2 -5 -9.5 -7.5t-7.5 -8.5q0 -5 3.5 -8t8 -5.5t8.5 -5.5t6 -7q5 -11 7 -23.5t2 -25.5q0 -25 -9 -46q-13 -29 -38.5 -51t-54.5 -33q-39 -14 -82 -14q-20 0 -40 3t-38 11q-13 6 -27.5 14
t-26.5 17.5t-20 21.5t-8 27q0 16 8.5 31.5t22 28t29.5 20t32 7.5q9 0 14.5 -6.5t10 -15.5t9.5 -17t13 -11q13 -5 27 -4.5t28 4.5q8 2 15.5 8t7.5 14t-6.5 13t-13.5 8q-6 3 -13 1.5t-14 -3.5t-14 -2.5t-11 4.5zM262 -39q-45 0 -76 23.5t-31 69.5q0 42 23 79.5t55.5 73
t67.5 71t58 73.5q22 35 42 80.5t39.5 93t40 93t42 81t46.5 57t53 21.5q23 0 43.5 -5.5t35.5 -17t24 -30t9 -44.5q0 -45 -27.5 -88.5t-65.5 -86t-79 -85t-68 -85.5q-19 -31 -37.5 -71t-36.5 -81.5t-36 -81.5t-37.5 -71t-40.5 -50t-44 -19zM677 443q10 0 23.5 -5t25.5 -13.5
t20.5 -20.5t8.5 -25q0 -8 -6.5 -15t-14 -13.5t-13.5 -13t-6 -13.5q0 -12 13 -12q8 0 18 4.5t19 4.5q11 0 15.5 -10.5t4.5 -20.5q0 -22 -10 -47t-10 -46q0 -8 4.5 -19.5t15.5 -11.5q8 0 16.5 3.5t15.5 3.5q6 0 9 -3q12 -11 16.5 -26.5t4.5 -32.5q0 -6 -1.5 -16.5t-5 -21
t-9.5 -18t-14 -7.5t-17.5 3.5t-17.5 3.5q-4 0 -7.5 -3.5t-3.5 -8.5q0 -8 3.5 -17t3.5 -17q0 -9 -8 -15t-19 -10t-22 -5.5t-18 -1.5q-5 0 -16 1.5t-22.5 5.5t-20 10t-8.5 14t4 18t4 19q0 14 -16 19.5t-30 5.5q-20 0 -43.5 -6t-46 -12.5t-42 -12.5t-32.5 -6q-18 0 -18 13
q0 23 12.5 48.5t21.5 47.5q21 49 48 102.5t56 97.5t59 72.5t56 28.5zM610 173q0 -5 4.5 -7.5t10.5 -2.5t15.5 3.5t9.5 11.5q0 5 -1.5 11.5t-0.5 12.5q1 3 5.5 13t4.5 18q0 7 -7 7q-4 0 -6 -4.5t-3.5 -10.5l-3 -12t-4.5 -10q-5 -7 -14.5 -13.5t-9.5 -16.5z" />
    <glyph glyph-name="threesuperior" unicode="&#xb3;" horiz-adv-x="407" 
d="M178 485q-19 21 -19 52q0 15 4.5 28.5t14.5 23.5q4 4 10 3.5t13 -2.5t14 -3t13 2q6 2 12.5 6.5t6.5 10.5t-6.5 11.5t-12.5 7.5q-29 11 -53 0q-6 -3 -10.5 -9.5l-9 -13t-9.5 -12t-11 -5.5q-16 0 -31.5 8t-28 20.5t-20.5 28.5t-8 32q0 13 7 24.5t18.5 21t25 16.5t26.5 12
q32 13 70 13q18 0 35.5 -3.5t34.5 -9.5q32 -11 57 -35.5t37 -55.5q11 -28 11 -57q0 -14 -2.5 -28t-8.5 -26q-2 -5 -10 -7t-8 -8q0 -5 3.5 -8t8 -5.5t9 -5.5t6.5 -7q10 -23 10 -49t-10 -49q-13 -29 -35.5 -52t-57.5 -33q-21 -6 -42.5 -9.5t-44.5 -3.5q-43 0 -72 13
q-13 6 -27.5 14t-26.5 18t-20 22t-8 27q0 16 8.5 31.5t22 28t29.5 20.5t32 8q8 0 13 -6t9.5 -14t9.5 -15.5t13 -10.5q14 -5 29 -2.5t29 2.5q7 0 13.5 5.5t6.5 12.5q0 8 -6.5 13.5t-13.5 8.5q-6 3 -13 1.5t-13.5 -3t-13 -2.5t-10.5 4z" />
    <glyph glyph-name="tilde" unicode="&#x2dc;" horiz-adv-x="0" 
d="M270 697q15 0 24 13t17 29t17 29t24 13q18 0 34.5 -17t16.5 -35q0 -24 -12 -48t-31 -43.5t-42.5 -31.5t-47.5 -12q-15 0 -24 13t-17.5 29t-17.5 29t-24 13t-24 -13t-17.5 -29t-17.5 -29t-24 -13q-18 0 -34.5 17t-16.5 35q0 24 12 48t31 43.5t43 31.5t48 12q15 0 24 -13
t17.5 -29t17.5 -29t24 -13z" />
    <glyph glyph-name="trademark" unicode="&#x2122;" horiz-adv-x="797" 
d="M701 375q-8 -8 -20.5 -12.5t-25.5 -4.5q-29 0 -46 17q-13 13 -13 35q0 20 7 44t7 44q0 10 -2 10q-1 0 -4 -10q-4 -13 -11 -38t-16.5 -50t-22.5 -43.5t-29 -18.5t-28.5 18.5t-21.5 43.5t-15 50t-10 38q-3 9 -5 9t-2 -9q0 -20 6.5 -43.5t6.5 -43.5q0 -11 -2.5 -19.5
t-10.5 -16.5q-17 -17 -47 -17q-29 0 -46 17q-33 33 -49.5 82.5t-16.5 103.5q0 47 12 89q-15 5 -30.5 11t-27.5 6q-10 0 -16 -6q-11 -11 -12 -22t-1 -29q0 -25 7 -49.5t15 -47.5t15 -45t7 -42q0 -15 -4 -27.5t-15 -23.5q-17 -17 -48 -17q-14 0 -27 4t-21 13q-11 11 -15 23.5
t-4 27.5q0 42 10 87.5t10 96.5q0 18 -1 29t-12 22q-6 6 -15 6t-19 -5t-20.5 -9.5t-19.5 -6t-16 6.5q-17 17 -17 47q0 31 17 48q13 13 31 19.5t38.5 9t42.5 2.5h43t42 1t39.5 -1.5t34.5 -9t28 -21.5l7 -9l8 9q8 8 21 8q18 0 26.5 -7.5t17.5 -20.5q17 -24 29.5 -60.5
t24.5 -70.5t25 -58.5t31 -24.5t31.5 24t26 57.5t25.5 70t28 60.5q8 14 15.5 22t24.5 8q7 0 13.5 -1.5t11.5 -6.5q33 -33 49.5 -83t16.5 -104t-16.5 -103.5t-49.5 -82.5z" />
    <glyph glyph-name="two" unicode="2" 
d="M371 179q21 0 43.5 4t45.5 9t45.5 9t43.5 4t39.5 -5.5t33.5 -20.5q16 -16 23.5 -39.5t7.5 -49.5t-8 -50.5t-24 -40.5q-17 -17 -38.5 -24t-45.5 -7t-50 5t-52.5 10.5t-52.5 10.5t-50 5t-50 -4.5t-52.5 -10.5t-52.5 -10.5t-50 -4.5t-45.5 6.5t-38.5 23.5q-11 11 -15.5 25.5
t-4.5 31.5q0 22 5.5 45.5t14.5 41.5q18 39 47.5 69.5t64.5 57.5t72 52.5t70.5 52.5t61 58.5t43.5 71.5q7 15 3.5 28t-13.5 22.5t-24 15t-29 5.5q-47 0 -77 -44q-11 -16 -20.5 -34t-20.5 -33t-24 -25t-30 -10q-23 0 -45.5 11.5t-40.5 30t-29.5 41t-11.5 45.5q0 27 12.5 51.5
t33 45.5t46.5 39t52 32q36 20 76 31.5t83 11.5q29 0 57 -5t54 -16q34 -14 64 -38t53 -54t36.5 -65t13.5 -70q0 -40 -14.5 -80.5t-44.5 -78.5q-20 -25 -45.5 -45.5t-52.5 -39t-54 -37.5t-50 -41q-5 -5 -14 -8.5t-17 -7t-14 -8t-6 -11.5q0 -4 2 -8t9 -4q4 0 10.5 4t13.5 9.5
t14 9.5t13 4z" />
    <glyph glyph-name="twosuperior" unicode="&#xb2;" horiz-adv-x="417" 
d="M239 607q-12 6 -26 5t-27 -6q-9 -4 -15 -13t-11 -18.5t-11.5 -16.5t-15.5 -7q-17 0 -33.5 8.5t-29.5 22t-21.5 30t-8.5 33.5q0 18 9.5 35t24 30.5t32.5 23.5t36 15q39 11 72 11q29 0 70 -11q32 -10 55.5 -35.5t36.5 -55.5q10 -23 10 -50t-10 -50q-6 -13 -21 -25.5
t-32.5 -24.5t-35.5 -22.5t-29.5 -18.5t-13.5 -12.5t11 -4.5q20 0 41.5 6t41.5 6q22 0 34 -12q11 -11 17.5 -30t6.5 -39q0 -17 -5.5 -31t-18.5 -20q-29 -13 -71 -18.5t-90 -5.5t-93 6t-74 18q-9 4 -13 13t-4 20q0 17 5.5 35t11.5 32q9 20 31.5 38.5t50 35.5t55 32.5t46 28.5
t24 23.5t-11.5 18.5z" />
    <glyph glyph-name="u" unicode="u" horiz-adv-x="685" 
d="M465 -7q-4 4 -4 11q0 8 3.5 18.5t3.5 18.5q0 6 -4.5 9.5t-10.5 3.5t-12 -4.5t-11.5 -11t-10.5 -13.5t-10 -13q-15 -16 -38.5 -22.5t-46.5 -6.5q-41 0 -86 17q-52 21 -94 62.5t-64 92.5q-22 52 -38.5 114.5t-16.5 123.5q0 46 12.5 87t42.5 71q15 15 38 23t49 8
q25 0 48.5 -8t39.5 -23q14 -14 19.5 -31.5t5.5 -37.5q0 -23 -5.5 -47.5t-11.5 -50t-11.5 -51t-5.5 -49.5q0 -13 2 -25.5t7 -23.5q10 -23 29 -39t47 -16q25 0 46 12t38 30q18 19 30.5 44.5t12.5 54.5q0 21 -4.5 43t-10.5 44t-10.5 43t-4.5 41q0 37 22 59q15 15 38 23t49 8
q25 0 48.5 -8t39.5 -23q23 -23 32 -52t9 -61q0 -33 -6.5 -68t-14 -71t-14 -71t-6.5 -68q0 -14 3.5 -29l7 -30l7 -30t3.5 -28q0 -26 -15 -42q-15 -17 -38.5 -25t-49.5 -8q-22 0 -42.5 7t-35.5 18z" />
    <glyph glyph-name="uacute" unicode="&#xfa;" horiz-adv-x="685" 
d="M465 -7q-4 4 -4 11q0 8 3.5 18.5t3.5 18.5q0 6 -4.5 9.5t-10.5 3.5t-12 -4.5t-11.5 -11t-10.5 -13.5t-10 -13q-15 -16 -38.5 -22.5t-46.5 -6.5q-41 0 -86 17q-52 21 -94 62.5t-64 92.5q-22 52 -38.5 114.5t-16.5 123.5q0 46 12.5 87t42.5 71q15 15 38 23t49 8
q25 0 48.5 -8t39.5 -23q14 -14 19.5 -31.5t5.5 -37.5q0 -23 -5.5 -47.5t-11.5 -50t-11.5 -51t-5.5 -49.5q0 -13 2 -25.5t7 -23.5q10 -23 29 -39t47 -16q25 0 46 12t38 30q18 19 30.5 44.5t12.5 54.5q0 21 -4.5 43t-10.5 44t-10.5 43t-4.5 41q0 37 22 59q15 15 38 23t49 8
q25 0 48.5 -8t39.5 -23q23 -23 32 -52t9 -61q0 -33 -6.5 -68t-14 -71t-14 -71t-6.5 -68q0 -14 3.5 -29l7 -30l7 -30t3.5 -28q0 -26 -15 -42q-15 -17 -38.5 -25t-49.5 -8q-22 0 -42.5 7t-35.5 18zM329 594q-11 0 -22 5.5t-20.5 14t-15.5 19t-6 21.5q0 13 13 21.5t23 18.5
q12 13 21 31t19.5 34.5t23 28.5t30.5 12q13 0 26.5 -7t24.5 -18t18 -24.5t7 -26.5q0 -18 -12 -31t-29 -24.5t-35.5 -21.5t-31.5 -22q-8 -8 -15.5 -19.5t-18.5 -11.5z" />
    <glyph glyph-name="ucircumflex" unicode="&#xfb;" horiz-adv-x="685" 
d="M465 -7q-4 4 -4 11q0 8 3.5 18.5t3.5 18.5q0 6 -4.5 9.5t-10.5 3.5t-12 -4.5t-11.5 -11t-10.5 -13.5t-10 -13q-15 -16 -38.5 -22.5t-46.5 -6.5q-41 0 -86 17q-52 21 -94 62.5t-64 92.5q-22 52 -38.5 114.5t-16.5 123.5q0 46 12.5 87t42.5 71q15 15 38 23t49 8
q25 0 48.5 -8t39.5 -23q14 -14 19.5 -31.5t5.5 -37.5q0 -23 -5.5 -47.5t-11.5 -50t-11.5 -51t-5.5 -49.5q0 -13 2 -25.5t7 -23.5q10 -23 29 -39t47 -16q25 0 46 12t38 30q18 19 30.5 44.5t12.5 54.5q0 21 -4.5 43t-10.5 44t-10.5 43t-4.5 41q0 37 22 59q15 15 38 23t49 8
q25 0 48.5 -8t39.5 -23q23 -23 32 -52t9 -61q0 -33 -6.5 -68t-14 -71t-14 -71t-6.5 -68q0 -14 3.5 -29l7 -30l7 -30t3.5 -28q0 -26 -15 -42q-15 -17 -38.5 -25t-49.5 -8q-22 0 -42.5 7t-35.5 18zM438 594q-15 0 -24 13t-17.5 29t-17.5 29t-24 13t-24 -13t-17 -29t-17 -29
t-24 -13q-18 0 -34.5 17t-16.5 35t16.5 41t38 44t44 35.5t34.5 14.5t34.5 -14.5t44.5 -35.5t38.5 -44t16.5 -41t-16.5 -35t-34.5 -17z" />
    <glyph glyph-name="udieresis" unicode="&#xfc;" horiz-adv-x="685" 
d="M465 -7q-4 4 -4 11q0 8 3.5 18.5t3.5 18.5q0 6 -4.5 9.5t-10.5 3.5t-12 -4.5t-11.5 -11t-10.5 -13.5t-10 -13q-15 -16 -38.5 -22.5t-46.5 -6.5q-41 0 -86 17q-52 21 -94 62.5t-64 92.5q-22 52 -38.5 114.5t-16.5 123.5q0 46 12.5 87t42.5 71q15 15 38 23t49 8
q25 0 48.5 -8t39.5 -23q14 -14 19.5 -31.5t5.5 -37.5q0 -23 -5.5 -47.5t-11.5 -50t-11.5 -51t-5.5 -49.5q0 -13 2 -25.5t7 -23.5q10 -23 29 -39t47 -16q25 0 46 12t38 30q18 19 30.5 44.5t12.5 54.5q0 21 -4.5 43t-10.5 44t-10.5 43t-4.5 41q0 37 22 59q15 15 38 23t49 8
q25 0 48.5 -8t39.5 -23q23 -23 32 -52t9 -61q0 -33 -6.5 -68t-14 -71t-14 -71t-6.5 -68q0 -14 3.5 -29l7 -30l7 -30t3.5 -28q0 -26 -15 -42q-15 -17 -38.5 -25t-49.5 -8q-22 0 -42.5 7t-35.5 18zM495 627q-9 -11 -23 -16t-29 -5t-29 5t-23 16q-7 7 -7 21q0 6 0.5 12.5
t0.5 12.5q0 17 -5 28t-5 22t10 21q21 21 58 21t58 -21q10 -10 10 -21t-5 -22.5t-5 -28.5q0 -6 0.5 -12t0.5 -12q0 -14 -7 -21zM321 627q-9 -11 -23 -16t-29 -5t-29 5t-23 16q-7 7 -7 20q0 6 0.5 12.5t0.5 12.5q0 16 -5 28t-5 23t10 21q21 21 58 21t58 -21q10 -10 10 -21
t-5 -22.5t-5 -28.5q0 -6 0.5 -12t0.5 -12q0 -14 -7 -21z" />
    <glyph glyph-name="ugrave" unicode="&#xf9;" horiz-adv-x="685" 
d="M465 -7q-4 4 -4 11q0 8 3.5 18.5t3.5 18.5q0 6 -4.5 9.5t-10.5 3.5t-12 -4.5t-11.5 -11t-10.5 -13.5t-10 -13q-15 -16 -38.5 -22.5t-46.5 -6.5q-41 0 -86 17q-52 21 -94 62.5t-64 92.5q-22 52 -38.5 114.5t-16.5 123.5q0 46 12.5 87t42.5 71q15 15 38 23t49 8
q25 0 48.5 -8t39.5 -23q14 -14 19.5 -31.5t5.5 -37.5q0 -23 -5.5 -47.5t-11.5 -50t-11.5 -51t-5.5 -49.5q0 -13 2 -25.5t7 -23.5q10 -23 29 -39t47 -16q25 0 46 12t38 30q18 19 30.5 44.5t12.5 54.5q0 21 -4.5 43t-10.5 44t-10.5 43t-4.5 41q0 37 22 59q15 15 38 23t49 8
q25 0 48.5 -8t39.5 -23q23 -23 32 -52t9 -61q0 -33 -6.5 -68t-14 -71t-14 -71t-6.5 -68q0 -14 3.5 -29l7 -30l7 -30t3.5 -28q0 -26 -15 -42q-15 -17 -38.5 -25t-49.5 -8q-22 0 -42.5 7t-35.5 18zM446 654q-1 -22 -21.5 -40.5t-42.5 -19.5q-9 0 -15.5 5t-12 11.5t-11 14.5
t-11.5 14q-11 10 -26.5 18.5t-29.5 17.5t-24 20t-10 26q0 13 7 26.5t18 24.5t24.5 18t26.5 7q15 0 26 -10t20 -24.5t17.5 -30.5t18.5 -27q6 -6 13.5 -11.5t15 -11.5t12.5 -12.5t5 -15.5z" />
    <glyph glyph-name="underscore" unicode="_" horiz-adv-x="546" 
d="M0 -105h546v-110h-546v110z" />
    <glyph glyph-name="uni00A0" unicode="&#xa0;" horiz-adv-x="667" 
 />
    <glyph glyph-name="v" unicode="v" horiz-adv-x="608" 
d="M280 346q4 -9 4.5 -21.5t1.5 -24.5t4.5 -20t13.5 -8t13.5 8t4.5 20t1.5 24.5t4.5 21.5q11 25 19 63.5t21 75t35.5 63t62.5 26.5q22 0 46 -8.5t43 -23.5t31.5 -36.5t12.5 -47.5q0 -32 -17 -62.5t-41 -60.5t-49.5 -59.5t-41.5 -59.5q-12 -23 -20.5 -52t-16 -59t-16 -59
t-20.5 -51.5t-29.5 -36.5t-43.5 -14q-38 0 -59 30t-34.5 73t-24.5 90t-29 81q-17 31 -42 60t-49 58t-41 58.5t-17 61.5q0 24 11.5 45.5t30.5 37.5t43 25.5t49 9.5q41 0 62.5 -25t34 -60.5t20.5 -75t21 -67.5z" />
    <glyph glyph-name="w" unicode="w" horiz-adv-x="868" 
d="M488 613q18 0 38.5 -7t37 -20t27.5 -31.5t11 -42.5q0 -20 -11.5 -38t-26 -36.5t-26 -38.5t-11.5 -44q0 -11 1 -25.5t4 -27t9.5 -21.5t17.5 -9q12 0 15 8t5 22q4 34 12 69q8 34 17.5 70.5t24.5 66.5q13 26 35.5 46t55.5 20q21 0 44 -8t42.5 -23t32.5 -35.5t13 -45.5
q0 -26 -14 -50t-33 -46.5t-39 -45t-32 -45.5q-15 -28 -25 -63.5t-19.5 -72t-20 -72t-25.5 -63t-36 -44t-53 -16.5q-22 0 -34 16.5t-19 41.5t-12 53.5t-12 53.5t-19 41.5t-34 16.5q-21 0 -32.5 -16.5t-18 -41.5t-10.5 -53.5t-10.5 -53.5t-18 -41.5t-32.5 -16.5
q-31 0 -52.5 16.5t-37 44t-26 62.5t-20 71.5t-18.5 71t-21 61.5q-10 22 -30 44.5t-40 46.5t-35 49t-15 52q0 23 12 43.5t31.5 35.5t43 23.5t46.5 8.5q32 0 57 -19q16 -13 26 -31.5t17 -41t12.5 -46.5t11.5 -47q3 -10 5.5 -25.5t5.5 -32t6.5 -31t8.5 -21.5q4 -7 12 -7
q9 0 14 9q9 21 14 54t11 57q12 45 23 91t33 80q14 21 35.5 35.5t50.5 14.5z" />
    <glyph glyph-name="x" unicode="x" horiz-adv-x="557" 
d="M275 420q21 0 32 21t20 47q6 17 12.5 33t15 28.5t20.5 20t29 7.5q21 0 45.5 -11t44.5 -29t33.5 -40.5t13.5 -46.5q0 -16 -7.5 -29t-19.5 -25t-27.5 -22.5t-31.5 -20.5q-28 -17 -50.5 -35t-22.5 -40q0 -10 7.5 -21t18.5 -22t25 -21t26 -18q16 -11 32 -22.5t28.5 -24
t20.5 -26.5t8 -30q0 -23 -12.5 -46t-32 -41t-43.5 -29.5t-48 -11.5q-20 0 -33 9t-22.5 23.5t-16 32.5t-12.5 37q-5 15 -10 29t-11 25t-14 18t-19 7t-19 -7t-14.5 -19t-11.5 -27l-10 -30q-6 -18 -11.5 -35.5t-14 -31t-19.5 -22t-27 -8.5q-21 0 -47 10t-48.5 27t-37.5 40.5
t-15 50.5q0 16 7.5 30.5t20.5 27t29 24.5t33 23q29 19 53 39.5t24 43.5q0 20 -21.5 38t-48.5 35q-16 10 -31 20.5t-27 22t-19 24.5t-7 28q0 22 12 45t31 41t43.5 29.5t48.5 11.5q17 0 29 -8t21 -21t15.5 -29t12.5 -32q9 -25 19.5 -46t30.5 -21z" />
    <glyph glyph-name="y" unicode="y" horiz-adv-x="642" 
d="M154 574q29 0 49 -18t30 -49q10 -33 14.5 -72.5t11.5 -74t21 -57.5t44 -23q26 0 39.5 23t21.5 57t13.5 73t15.5 72q9 28 27.5 49t53.5 21q28 0 53.5 -10.5t44.5 -29.5t30 -44t11 -54q0 -50 -26 -97t-61.5 -93.5t-73.5 -93t-62 -94.5q-20 -39 -32.5 -85t-29.5 -88
q-29 -70 -78 -101q-26 -16 -58 -22.5t-72 -6.5q-30 0 -56.5 4.5t-46.5 24.5q-15 15 -22.5 38t-7.5 48q0 12 3 29t9.5 32.5t18 26t28.5 10.5q20 0 42 -6.5t42 -6.5q21 0 36.5 12.5t25.5 31t15 40.5t5 41q0 34 -16 66t-39.5 63t-51.5 60.5t-51.5 59.5t-39.5 60.5t-16 61.5
q0 25 11.5 47t30.5 38.5t43 26.5t50 10z" />
    <glyph glyph-name="yacute" unicode="&#xfd;" horiz-adv-x="642" 
d="M154 574q29 0 49 -18t30 -49q10 -33 14.5 -72.5t11.5 -74t21 -57.5t44 -23q26 0 39.5 23t21.5 57t13.5 73t15.5 72q9 28 27.5 49t53.5 21q28 0 53.5 -10.5t44.5 -29.5t30 -44t11 -54q0 -50 -26 -97t-61.5 -93.5t-73.5 -93t-62 -94.5q-20 -39 -32.5 -85t-29.5 -88
q-29 -70 -78 -101q-26 -16 -58 -22.5t-72 -6.5q-30 0 -56.5 4.5t-46.5 24.5q-15 15 -22.5 38t-7.5 48q0 12 3 29t9.5 32.5t18 26t28.5 10.5q20 0 42 -6.5t42 -6.5q21 0 36.5 12.5t25.5 31t15 40.5t5 41q0 34 -16 66t-39.5 63t-51.5 60.5t-51.5 59.5t-39.5 60.5t-16 61.5
q0 25 11.5 47t30.5 38.5t43 26.5t50 10zM287 594q-11 0 -22 5.5t-20.5 14t-15.5 19t-6 21.5q0 13 13 21.5t23 18.5q12 13 21 31t19.5 34.5t23 28.5t30.5 12q13 0 26.5 -7t24.5 -18t18 -24.5t7 -26.5q0 -18 -12 -31t-29 -24.5t-35.5 -21.5t-31.5 -22q-8 -8 -15.5 -19.5
t-18.5 -11.5z" />
    <glyph glyph-name="ydieresis" unicode="&#xff;" horiz-adv-x="642" 
d="M154 574q29 0 49 -18t30 -49q10 -33 14.5 -72.5t11.5 -74t21 -57.5t44 -23q26 0 39.5 23t21.5 57t13.5 73t15.5 72q9 28 27.5 49t53.5 21q28 0 53.5 -10.5t44.5 -29.5t30 -44t11 -54q0 -50 -26 -97t-61.5 -93.5t-73.5 -93t-62 -94.5q-20 -39 -32.5 -85t-29.5 -88
q-29 -70 -78 -101q-26 -16 -58 -22.5t-72 -6.5q-30 0 -56.5 4.5t-46.5 24.5q-15 15 -22.5 38t-7.5 48q0 12 3 29t9.5 32.5t18 26t28.5 10.5q20 0 42 -6.5t42 -6.5q21 0 36.5 12.5t25.5 31t15 40.5t5 41q0 34 -16 66t-39.5 63t-51.5 60.5t-51.5 59.5t-39.5 60.5t-16 61.5
q0 25 11.5 47t30.5 38.5t43 26.5t50 10zM462 627q-9 -11 -23 -16t-29 -5t-29 5t-23 16q-7 7 -7 21q0 6 0.5 12.5t0.5 12.5q0 17 -5 28t-5 22t10 21q21 21 58 21t58 -21q10 -10 10 -21t-5 -22.5t-5 -28.5q0 -6 0.5 -12t0.5 -12q0 -14 -7 -21zM288 627q-9 -11 -23 -16t-29 -5
t-29 5t-23 16q-7 7 -7 20q0 6 0.5 12.5t0.5 12.5q0 16 -5 28t-5 23t10 21q21 21 58 21t58 -21q10 -10 10 -21t-5 -22.5t-5 -28.5q0 -6 0.5 -12t0.5 -12q0 -14 -7 -21z" />
    <glyph glyph-name="yen" unicode="&#xa5;" horiz-adv-x="786" 
d="M139 103q-17 0 -29.5 7.5t-21 19.5t-13 27.5t-4.5 31.5q0 20 6.5 39t18.5 30q18 18 43 18q16 0 31 -4t30 -9t30.5 -9t32.5 -4t27.5 8.5t10.5 27.5q0 17 -10 26.5t-28 9.5q-15 0 -30 -4t-30 -9.5t-31 -9.5t-33 -4t-30 7.5t-21.5 20t-12.5 28.5t-4 32q0 10 2 23.5t8 26.5
t16 22t27 9q19 0 36.5 -8.5t37.5 -8.5q11 0 19 3t8 17q0 8 -7.5 18.5t-19 21.5t-25.5 22t-27 20q-18 12 -35.5 25t-32 27t-23.5 29.5t-9 32.5q0 23 13.5 43t33.5 35t44.5 23.5t46.5 8.5q30 0 49.5 -12.5t33 -33.5t22 -47t16.5 -53q6 -21 13 -41.5t16 -36.5t21 -26t29 -10
q16 0 28 10t21 26t16.5 37t13.5 42q8 25 17.5 51t23.5 47t33 34t46 13q19 0 43 -7.5t45.5 -21.5t36 -34.5t14.5 -46.5q0 -17 -8.5 -31.5t-22.5 -28.5t-32 -27l-36 -26q-32 -23 -57.5 -43t-25.5 -40q0 -14 8 -17.5t22 -3.5q18 0 36 9t38 9q15 0 25 -8.5t16.5 -21t9.5 -26.5
t3 -25q0 -20 -7 -39t-19 -32q-17 -17 -43 -17q-16 0 -31.5 4t-31 9.5t-31 9.5t-31.5 4q-15 0 -25.5 -9.5t-10.5 -26.5q0 -16 9 -26t27 -10q16 0 31 4t30.5 9t31 9t32.5 4q16 0 29 -8t21.5 -20.5t13 -28t4.5 -30.5t-3.5 -30.5t-12 -27.5t-21.5 -20t-31 -8q-16 0 -31.5 4
t-31 9t-31 9t-31.5 4q-11 0 -22 -6.5t-11 -20.5q0 -22 10 -42.5t10 -44.5q0 -21 -14 -35q-17 -16 -42 -25t-51 -9t-51 9t-41 25q-14 14 -14 35q0 22 10 43t10 44q0 14 -10.5 20.5t-24.5 6.5q-15 0 -30 -4t-30.5 -9t-31 -9t-32.5 -4z" />
    <glyph glyph-name="z" unicode="z" horiz-adv-x="582" 
d="M32 130q7 19 16.5 35t21.5 31.5t26.5 32t31.5 36.5q4 5 19.5 20.5t32 33.5t29.5 34t13 22q0 11 -10 12.5t-20 1.5q-12 0 -27.5 -4.5t-32 -10t-32.5 -10t-30 -4.5q-18 0 -30 10t-19.5 25.5t-10.5 33t-3 32.5q0 26 8 50t24 40t35 22t41 6t45.5 -4.5t47.5 -9.5t47.5 -9.5
t45.5 -4.5t47.5 5.5t52 12.5t52 12.5t48.5 5.5q34 0 56.5 -21.5t22.5 -58.5q0 -26 -13 -49.5t-34 -47t-47.5 -47t-52.5 -47.5q-5 -5 -27 -23t-47 -39.5t-44.5 -42t-19.5 -29.5q0 -13 13 -18t26 -5q16 0 36.5 6t41.5 13t42.5 13t39.5 6q26 0 41 -15q16 -17 24 -41t8 -50
t-8 -50.5t-24 -40.5q-15 -15 -33.5 -20.5t-39.5 -5.5t-43.5 4t-45.5 9t-45 9t-43 4t-43.5 -4t-46 -9t-46 -9t-43.5 -4t-39.5 5.5t-33.5 20.5q-17 17 -17 48q0 20 5 43t11 39z" />
    <glyph glyph-name="zcaron" unicode="&#x17e;" horiz-adv-x="582" 
d="M218 781q15 0 24 -13t17 -29t17 -29t24 -13t24 13t17.5 29t17.5 29t24 13q18 0 34.5 -17t16.5 -35q0 -17 -16.5 -40t-39 -44t-45 -36t-33.5 -15q-13 0 -35.5 15t-44 36t-37.5 44t-16 40q0 18 16.5 35t34.5 17zM32 130q7 19 16.5 35t21.5 31.5t26.5 32t31.5 36.5
q4 5 19.5 20.5t32 33.5t29.5 34t13 22q0 11 -10 12.5t-20 1.5q-12 0 -27.5 -4.5t-32 -10t-32.5 -10t-30 -4.5q-18 0 -30 10t-19.5 25.5t-10.5 33t-3 32.5q0 26 8 50t24 40t35 22t41 6t45.5 -4.5t47.5 -9.5t47.5 -9.5t45.5 -4.5t47.5 5.5t52 12.5t52 12.5t48.5 5.5
q34 0 56.5 -21.5t22.5 -58.5q0 -26 -13 -49.5t-34 -47t-47.5 -47t-52.5 -47.5q-5 -5 -27 -23t-47 -39.5t-44.5 -42t-19.5 -29.5q0 -13 13 -18t26 -5q16 0 36.5 6t41.5 13t42.5 13t39.5 6q26 0 41 -15q16 -17 24 -41t8 -50t-8 -50.5t-24 -40.5q-15 -15 -33.5 -20.5
t-39.5 -5.5t-43.5 4t-45.5 9t-45 9t-43 4t-43.5 -4t-46 -9t-46 -9t-43.5 -4t-39.5 5.5t-33.5 20.5q-17 17 -17 48q0 20 5 43t11 39z" />
    <glyph glyph-name="zero" unicode="0" horiz-adv-x="670" 
d="M238 240q9 -29 33.5 -43t55.5 -16q37 0 60 21.5t35.5 54t17 70t4.5 69.5q0 30 -3 60t-16 59q-12 28 -36.5 39.5t-57.5 11.5q-21 0 -41 -8.5t-38.5 -18t-35.5 -16t-32 -2.5q16 -11 23 -25t8.5 -29t0 -31t-1.5 -31q0 -42 5 -81t19 -84zM225 -1q-51 20 -88.5 59.5
t-59.5 88.5q-23 54 -34 111t-11 117q0 25 10.5 57t27.5 58.5t38.5 41.5t44.5 6q-12 27 -15 56.5t3.5 56.5t22 49t39.5 34q31 16 63.5 22.5t64.5 6.5q30 0 59.5 -6t57.5 -19q49 -23 90 -61t62 -90q21 -51 29.5 -103t8.5 -106t-10.5 -110.5t-33.5 -108t-61 -93.5t-93 -67
q-50 -21 -104 -21q-29 0 -57 5.5t-54 15.5z" />
    <glyph glyph-name="numero" unicode="&#x2116;" horiz-adv-x="902" 
d="M132 769q28 0 49 -18.5t37.5 -46.5t31 -60t29 -60t31 -46.5t37.5 -18.5q14 0 14 25q0 13 -3.5 31t-7.5 38.5t-7.5 42t-3.5 39.5q0 15 3 27.5t11 20.5q24 26 62 26q18 0 34.5 -6.5t27.5 -19.5q14 -15 19 -33t5 -39t-4 -44t-8.5 -46t-8 -45.5t-3.5 -43.5q0 -8 2 -29.5
t3.5 -49.5t2 -59t-2 -56.5t-9 -42t-19.5 -16.5q-27 0 -47 17.5t-37 44t-32 57t-30.5 57t-33.5 44t-42 17.5q-18 0 -18 -22q0 -11 4 -27t9.5 -34t9.5 -36t4 -33q0 -20 -9 -32q-11 -14 -28.5 -19.5t-35.5 -5.5t-34.5 6t-27.5 19q-20 23 -32.5 56t-20 70.5t-10.5 76.5t-3 74
q0 36 5 71.5t16.5 64t29 46.5t41.5 18zM666 508q10 -5 24 -5t25 5q21 8 27 34q5 17 8 35.5t-8 39.5q-5 10 -10.5 19t-16.5 14t-25 5t-24 -5t-17 -14t-12 -19q-9 -19 -8 -39.5t8 -35.5q11 -25 29 -34zM626 409q-31 14 -56.5 39.5t-37.5 56.5q-14 35 -14 75q0 36 14 73
q12 31 37 56t57 38q32 12 66 10t60 -10q32 -9 57 -36t38 -58q15 -35 15 -73q0 -39 -15 -75q-13 -31 -38.5 -56.5t-56.5 -39.5q-15 -7 -31 -9.5t-33 -2.5t-32 2.5t-30 9.5zM531 292q-13 13 -13 38q0 24 13 37q14 14 32 14t38 -6t42 -13t45 -7q22 0 44 7t42.5 13t38.5 6
t32 -14q13 -13 13 -37q0 -25 -13 -38q-14 -14 -32 -21.5t-38.5 -11.5t-42.5 -4.5t-44 -0.5q-45 0 -87 5t-70 33z" />
  </font>
</defs>
</svg>
